<svg width="1671" height="715" viewBox="0 0 1671 715" fill="none" xmlns="http://www.w3.org/2000/svg">
<g clip-path="url(#clip0_810_1118)">
<path d="M1136.93 157.044C1144.38 156.148 1151.9 156.103 1159.36 156.91C1223.76 163.474 1252.73 215.223 1246.3 275.991C1196.25 277.51 1140.55 276.084 1089.96 276.301C1090.91 280.953 1091.96 284.709 1093.98 288.985C1100.82 303.453 1113.17 314.58 1128.27 319.883C1147.82 326.803 1172.29 324.387 1189.32 312.144C1193.61 309.062 1202.11 300.044 1206.03 298.514C1214.69 305.028 1226.68 316.04 1235.17 323.375C1200.55 367.977 1129.09 375.504 1084.99 341.372C1064.03 324.871 1050.49 300.722 1047.34 274.238C1039.77 214.252 1075.9 163.82 1136.93 157.044ZM1089.36 241.826C1110.74 242.036 1132.12 242.067 1153.49 241.918C1170.71 242.039 1187.93 242.007 1205.14 241.821C1199.66 223.454 1193.94 212.664 1176.36 202.542C1168.34 197.926 1152.61 194.213 1143.63 196.216C1113.96 198.99 1098.3 214.323 1089.36 241.826Z" fill="#FEFEFE"/>
<path d="M1483.21 93.1164C1497.12 92.8737 1511.54 93.0834 1525.5 93.0987C1526.49 110.301 1525.44 131.052 1525.8 148.592C1525.97 156.812 1526.28 180.145 1525.06 186.867C1527.78 183.868 1530.66 180.642 1533.61 177.977C1569.47 145.605 1638.23 154.103 1660.08 199.181C1663.39 206.09 1666.69 214.315 1668 221.901C1672.44 247.613 1670.59 275.076 1670.74 301.227C1670.84 319.843 1671.45 340.582 1670.27 358.981L1628.41 359.135C1627.52 330.138 1628.11 298.596 1628.12 269.412C1628.29 249.418 1628.98 230.21 1614.45 214.057C1604.92 203.806 1592.72 199.295 1579.04 198.904C1555.86 197.854 1534.07 213.231 1528.25 235.891C1524.25 251.48 1525.84 271.562 1525.64 287.82C1525.35 311.47 1526.12 335.232 1525.6 358.913C1511.92 359.367 1497.2 359.153 1483.5 359.064C1482.49 327.214 1483.15 292.059 1483.15 259.955L1483.21 93.1164Z" fill="#FEFEFE"/>
<path d="M1413.9 439.044C1415.53 438.843 1417.17 438.728 1418.82 438.7C1437.96 438.491 1458.79 445.553 1472.51 459.38C1497.11 484.194 1493.54 518.617 1493.55 550.887L1493.52 618.124L1455.87 618.167C1454.86 595.52 1455.92 572.414 1455.56 549.731C1455.31 534.397 1457.23 516.357 1451.55 501.912C1447.51 491.32 1439.32 482.831 1428.89 478.396C1415.36 472.584 1402.66 474.084 1389.4 479.43C1358.35 495.855 1363.35 529.431 1363.36 559.555V618.131L1325.87 618.16C1324.55 600.149 1325.4 570.139 1325.41 551.274C1325.3 514.914 1325.38 478.561 1325.68 442.209C1338.2 442.094 1350.73 442.101 1363.26 442.216C1363.41 450.066 1363.44 456.596 1363.1 464.475L1364.02 463.37C1377.57 447.167 1393.19 440.852 1413.9 439.044Z" fill="#FEFEFE"/>
<path d="M1582.43 439.712C1614.76 437.444 1640.43 443.034 1666.84 461.67C1660.95 471.113 1654.92 480.456 1648.74 489.706C1627.29 476.962 1613.42 470.97 1587.46 472.348C1580.26 472.24 1565.12 475.857 1561.16 482.466C1545.73 508.758 1581.87 511.879 1598.94 512.906C1630 514.771 1668.37 522.385 1670.69 560.438C1673.52 606.852 1635.94 619.036 1597.51 620.945C1568.79 621.533 1537.05 614.106 1514.59 595.413C1519.88 586.235 1527.45 575.213 1533.54 566.466C1555.98 581.693 1574.5 589.393 1602.43 587.778C1616.19 586.982 1636.71 582.117 1633.71 564.342C1630.05 542.814 1588.45 547.708 1572.57 544.085C1559.63 541.128 1549.02 539.93 1538.17 531.534C1517.42 516.494 1515.86 482.473 1531.13 463.033C1543.21 447.663 1563.69 441.958 1582.43 439.712Z" fill="#FEFEFE"/>
<path d="M1008.07 437.545C1043.72 433.225 1076.22 446.773 1097.25 475.856C1088 483.047 1077.24 490.56 1067.69 497.542C1065.73 495.231 1063.59 492.741 1061.54 490.524C1051.33 479.459 1037.1 472.965 1022.05 472.505C1007.33 472.096 993.06 477.607 982.44 487.804C946.404 522.564 970.61 586.752 1021.82 585.446C1039.52 584.994 1050.45 579.382 1062.71 566.817L1067.88 561.364C1074.33 564.995 1091.6 577.911 1097.59 582.791C1096.94 583.824 1096.27 584.829 1095.56 585.819C1067.37 625.81 1003.86 631.536 965.33 603.637C945.599 589.393 932.383 567.851 928.631 543.804C924.566 518.624 930.862 492.87 946.086 472.405C961.49 451.624 982.95 441.276 1008.07 437.545Z" fill="#FEFEFE"/>
<path d="M1363.6 157.035C1380.65 155.291 1397.88 157.47 1413.95 163.404C1429.85 169.293 1453.1 184.727 1460.19 200.313C1449.54 207.552 1438.04 216.299 1427.54 223.934C1412.46 206.948 1398.82 196.069 1374.81 196.166C1358.18 196.113 1342.24 202.804 1330.63 214.707C1306.48 239.781 1307.52 282.773 1333.18 306.453C1345.44 317.78 1361.76 323.655 1378.43 322.738C1395.93 321.893 1410.75 314.373 1422.36 301.406C1424.14 299.038 1424.58 298.123 1427.16 296.587C1431.35 296.514 1456 315.706 1460.99 319.382C1430.24 368.354 1354.35 375.569 1310.16 340.801C1288.65 324.006 1274.76 299.316 1271.56 272.224C1264.74 211.446 1303.01 163.95 1363.6 157.035Z" fill="#FEFEFE"/>
<path d="M919.636 113.903L961.51 113.978C962.27 124.428 962.2 152.126 961.37 162.269L1029.14 162.299C1029.24 174.918 1029.69 189.837 1028.93 202.244C1007.54 203.114 983.83 202.193 961.96 202.574C961.42 220.828 962.48 241.023 961.63 258.851C959.74 298.335 961.74 334.351 1014.07 319.449C1018.18 318.014 1023.59 315.592 1027.73 313.872C1031.98 325.552 1037.99 337.067 1041.74 348.848C1025.9 357.804 1007.99 362.434 989.8 362.273C949.31 362.241 922.694 339.702 920.139 298.244C918.836 277.089 919.456 255.58 919.44 234.367L919.636 113.903Z" fill="#FEFEFE"/>
<path d="M861.996 448.968C874.243 449.141 886.624 448.933 898.926 449.062C900.044 464.052 899.279 488.421 899.279 504.151L899.332 616.524L898.91 617.278C896.621 618.871 866.778 618.16 861.681 618.139C860.415 580.394 862.273 539.707 861.472 501.661C861.325 494.628 861.219 452.549 861.996 448.968Z" fill="#FEFEFE"/>
<path d="M866.07 395.078C871.447 394.805 891.474 393.7 895.964 396.556C899.46 398.781 899.902 410.915 899.502 415.077C898.845 421.93 900.326 426.63 895.089 431.639C890.564 432.758 865.994 434.172 863.316 429.436C859.937 423.466 861.09 409.408 861.717 402.34C862.057 398.501 863.21 397.31 866.07 395.078Z" fill="#FEFEFE"/>
<path d="M860 162.371H1029.25V203.044H860V162.371Z" fill="#FEFEFE"/>
<mask id="mask0_810_1118" style="mask-type:luminance" maskUnits="userSpaceOnUse" x="860" y="93" width="811" height="530">
<path d="M1136.93 157.044C1144.38 156.148 1151.9 156.103 1159.36 156.91C1223.76 163.474 1252.73 215.223 1246.3 275.991C1196.25 277.51 1140.55 276.084 1089.96 276.301C1090.91 280.953 1091.96 284.709 1093.98 288.985C1100.82 303.453 1113.17 314.58 1128.27 319.883C1147.82 326.803 1172.29 324.387 1189.32 312.144C1193.61 309.062 1202.11 300.044 1206.03 298.514C1214.69 305.028 1226.68 316.04 1235.17 323.375C1200.55 367.977 1129.09 375.504 1084.99 341.372C1064.03 324.871 1050.49 300.722 1047.34 274.238C1039.77 214.252 1075.9 163.82 1136.93 157.044ZM1089.36 241.826C1110.74 242.036 1132.12 242.067 1153.49 241.918C1170.71 242.039 1187.93 242.007 1205.14 241.821C1199.66 223.454 1193.94 212.664 1176.36 202.542C1168.34 197.926 1152.61 194.213 1143.63 196.216C1113.96 198.99 1098.3 214.323 1089.36 241.826Z" fill="white"/>
<path d="M1483.21 93.1164C1497.12 92.8737 1511.54 93.0834 1525.5 93.0987C1526.49 110.301 1525.44 131.052 1525.8 148.592C1525.97 156.812 1526.28 180.145 1525.06 186.867C1527.78 183.868 1530.66 180.642 1533.61 177.977C1569.47 145.605 1638.23 154.103 1660.08 199.181C1663.39 206.09 1666.69 214.315 1668 221.901C1672.44 247.613 1670.59 275.076 1670.74 301.227C1670.84 319.843 1671.45 340.582 1670.27 358.981L1628.41 359.135C1627.52 330.138 1628.11 298.596 1628.12 269.412C1628.29 249.418 1628.98 230.21 1614.45 214.057C1604.92 203.806 1592.72 199.295 1579.04 198.904C1555.86 197.854 1534.07 213.231 1528.25 235.891C1524.25 251.48 1525.84 271.562 1525.64 287.82C1525.35 311.47 1526.12 335.232 1525.6 358.913C1511.92 359.367 1497.2 359.153 1483.5 359.064C1482.49 327.214 1483.15 292.059 1483.15 259.955L1483.21 93.1164Z" fill="white"/>
<path d="M1413.9 439.044C1415.53 438.843 1417.17 438.728 1418.82 438.7C1437.96 438.491 1458.79 445.553 1472.51 459.38C1497.11 484.194 1493.54 518.617 1493.55 550.887L1493.52 618.124L1455.87 618.167C1454.86 595.52 1455.92 572.414 1455.56 549.731C1455.31 534.397 1457.23 516.357 1451.55 501.912C1447.51 491.32 1439.32 482.831 1428.89 478.396C1415.36 472.584 1402.66 474.084 1389.4 479.43C1358.35 495.855 1363.35 529.431 1363.36 559.555V618.131L1325.87 618.16C1324.55 600.149 1325.4 570.139 1325.41 551.274C1325.3 514.914 1325.38 478.561 1325.68 442.209C1338.2 442.094 1350.73 442.101 1363.26 442.216C1363.41 450.066 1363.44 456.596 1363.1 464.475L1364.02 463.37C1377.57 447.167 1393.19 440.852 1413.9 439.044Z" fill="white"/>
<path d="M1582.43 439.712C1614.76 437.444 1640.43 443.034 1666.84 461.67C1660.95 471.113 1654.92 480.456 1648.74 489.706C1627.29 476.962 1613.42 470.97 1587.46 472.348C1580.26 472.24 1565.12 475.857 1561.16 482.466C1545.73 508.758 1581.87 511.879 1598.94 512.906C1630 514.771 1668.37 522.385 1670.69 560.438C1673.52 606.852 1635.94 619.036 1597.51 620.945C1568.79 621.533 1537.05 614.106 1514.59 595.413C1519.88 586.235 1527.45 575.213 1533.54 566.466C1555.98 581.693 1574.5 589.393 1602.43 587.778C1616.19 586.982 1636.71 582.117 1633.71 564.342C1630.05 542.814 1588.45 547.708 1572.57 544.085C1559.63 541.128 1549.02 539.93 1538.17 531.534C1517.42 516.494 1515.86 482.473 1531.13 463.033C1543.21 447.663 1563.69 441.958 1582.43 439.712Z" fill="white"/>
<path d="M1008.07 437.545C1043.72 433.225 1076.22 446.773 1097.25 475.856C1088 483.047 1077.24 490.56 1067.69 497.542C1065.73 495.231 1063.59 492.741 1061.54 490.524C1051.33 479.459 1037.1 472.965 1022.05 472.505C1007.33 472.096 993.06 477.607 982.44 487.804C946.404 522.564 970.61 586.752 1021.82 585.446C1039.52 584.994 1050.45 579.382 1062.71 566.817L1067.88 561.364C1074.33 564.995 1091.6 577.911 1097.59 582.791C1096.94 583.824 1096.27 584.829 1095.56 585.819C1067.37 625.81 1003.86 631.536 965.33 603.637C945.599 589.393 932.383 567.851 928.631 543.804C924.566 518.624 930.862 492.87 946.086 472.405C961.49 451.624 982.95 441.276 1008.07 437.545Z" fill="white"/>
<path d="M1363.6 157.035C1380.65 155.291 1397.88 157.47 1413.95 163.404C1429.85 169.293 1453.1 184.727 1460.19 200.313C1449.54 207.552 1438.04 216.299 1427.54 223.934C1412.46 206.948 1398.82 196.069 1374.81 196.166C1358.18 196.113 1342.24 202.804 1330.63 214.707C1306.48 239.781 1307.52 282.773 1333.18 306.453C1345.44 317.78 1361.76 323.655 1378.43 322.738C1395.93 321.893 1410.75 314.373 1422.36 301.406C1424.14 299.038 1424.58 298.123 1427.16 296.587C1431.35 296.514 1456 315.706 1460.99 319.382C1430.24 368.354 1354.35 375.569 1310.16 340.801C1288.65 324.006 1274.76 299.316 1271.56 272.224C1264.74 211.446 1303.01 163.95 1363.6 157.035Z" fill="white"/>
<path d="M919.636 113.903L961.51 113.978C962.27 124.428 962.2 152.126 961.37 162.269L1029.14 162.299C1029.24 174.918 1029.69 189.837 1028.93 202.244C1007.54 203.114 983.83 202.193 961.96 202.574C961.42 220.828 962.48 241.023 961.63 258.851C959.74 298.335 961.74 334.351 1014.07 319.449C1018.18 318.014 1023.59 315.592 1027.73 313.872C1031.98 325.552 1037.99 337.067 1041.74 348.848C1025.9 357.804 1007.99 362.434 989.8 362.273C949.31 362.241 922.694 339.702 920.139 298.244C918.836 277.089 919.456 255.58 919.44 234.367L919.636 113.903Z" fill="white"/>
<path d="M861.996 448.968C874.243 449.141 886.624 448.933 898.926 449.062C900.044 464.052 899.279 488.421 899.279 504.151L899.332 616.524L898.91 617.278C896.621 618.871 866.778 618.16 861.681 618.139C860.415 580.394 862.273 539.707 861.472 501.661C861.325 494.628 861.219 452.549 861.996 448.968Z" fill="white"/>
<path d="M866.07 395.078C871.447 394.805 891.474 393.7 895.964 396.556C899.46 398.781 899.902 410.915 899.502 415.077C898.845 421.93 900.326 426.63 895.089 431.639C890.564 432.758 865.994 434.172 863.316 429.436C859.937 423.466 861.09 409.408 861.717 402.34C862.057 398.501 863.21 397.31 866.07 395.078Z" fill="white"/>
<path d="M860 162.371H1029.25V203.044H860V162.371Z" fill="white"/>
<path d="M1303.47 527.117C1303.47 580.014 1260.59 622.896 1207.69 622.896C1154.79 622.896 1111.91 580.014 1111.91 527.117C1111.91 474.22 1154.79 431.339 1207.69 431.339C1260.59 431.339 1303.47 474.22 1303.47 527.117Z" fill="white"/>
</mask>
<g mask="url(#mask0_810_1118)">
<path d="M1136.93 157.044C1144.38 156.148 1151.9 156.103 1159.36 156.91C1223.76 163.474 1252.73 215.223 1246.3 275.991C1196.25 277.51 1140.55 276.084 1089.96 276.301C1090.91 280.953 1091.96 284.709 1093.98 288.985C1100.82 303.453 1113.17 314.58 1128.27 319.883C1147.82 326.803 1172.29 324.387 1189.32 312.144C1193.61 309.062 1202.11 300.044 1206.03 298.514C1214.69 305.028 1226.68 316.04 1235.17 323.375C1200.55 367.977 1129.09 375.504 1084.99 341.372C1064.03 324.871 1050.49 300.722 1047.34 274.238C1039.77 214.252 1075.9 163.82 1136.93 157.044ZM1089.36 241.826C1110.74 242.036 1132.12 242.067 1153.49 241.918C1170.71 242.039 1187.93 242.007 1205.14 241.821C1199.66 223.454 1193.94 212.664 1176.36 202.542C1168.34 197.926 1152.61 194.213 1143.63 196.216C1113.96 198.99 1098.3 214.323 1089.36 241.826Z" stroke="#FEFEFE" stroke-width="78.7222"/>
</g>
<mask id="mask1_810_1118" style="mask-type:luminance" maskUnits="userSpaceOnUse" x="860" y="93" width="811" height="530">
<path d="M1136.93 157.044C1144.38 156.148 1151.9 156.103 1159.36 156.91C1223.76 163.474 1252.73 215.223 1246.3 275.991C1196.25 277.51 1140.55 276.084 1089.96 276.301C1090.91 280.953 1091.96 284.709 1093.98 288.985C1100.82 303.453 1113.17 314.58 1128.27 319.883C1147.82 326.803 1172.29 324.387 1189.32 312.144C1193.61 309.062 1202.11 300.044 1206.03 298.514C1214.69 305.028 1226.68 316.04 1235.17 323.375C1200.55 367.977 1129.09 375.504 1084.99 341.372C1064.03 324.871 1050.49 300.722 1047.34 274.238C1039.77 214.252 1075.9 163.82 1136.93 157.044ZM1089.36 241.826C1110.74 242.036 1132.12 242.067 1153.49 241.918C1170.71 242.039 1187.93 242.007 1205.14 241.821C1199.66 223.454 1193.94 212.664 1176.36 202.542C1168.34 197.926 1152.61 194.213 1143.63 196.216C1113.96 198.99 1098.3 214.323 1089.36 241.826Z" fill="white"/>
<path d="M1483.21 93.1164C1497.12 92.8737 1511.54 93.0834 1525.5 93.0987C1526.49 110.301 1525.44 131.052 1525.8 148.592C1525.97 156.812 1526.28 180.145 1525.06 186.867C1527.78 183.868 1530.66 180.642 1533.61 177.977C1569.47 145.605 1638.23 154.103 1660.08 199.181C1663.39 206.09 1666.69 214.315 1668 221.901C1672.44 247.613 1670.59 275.076 1670.74 301.227C1670.84 319.843 1671.45 340.582 1670.27 358.981L1628.41 359.135C1627.52 330.138 1628.11 298.596 1628.12 269.412C1628.29 249.418 1628.98 230.21 1614.45 214.057C1604.92 203.806 1592.72 199.295 1579.04 198.904C1555.86 197.854 1534.07 213.231 1528.25 235.891C1524.25 251.48 1525.84 271.562 1525.64 287.82C1525.35 311.47 1526.12 335.232 1525.6 358.913C1511.92 359.367 1497.2 359.153 1483.5 359.064C1482.49 327.214 1483.15 292.059 1483.15 259.955L1483.21 93.1164Z" fill="white"/>
<path d="M1413.9 439.044C1415.53 438.843 1417.17 438.728 1418.82 438.7C1437.96 438.491 1458.79 445.553 1472.51 459.38C1497.11 484.194 1493.54 518.617 1493.55 550.887L1493.52 618.124L1455.87 618.167C1454.86 595.52 1455.92 572.414 1455.56 549.731C1455.31 534.397 1457.23 516.357 1451.55 501.912C1447.51 491.32 1439.32 482.831 1428.89 478.396C1415.36 472.584 1402.66 474.084 1389.4 479.43C1358.35 495.855 1363.35 529.431 1363.36 559.555V618.131L1325.87 618.16C1324.55 600.149 1325.4 570.139 1325.41 551.274C1325.3 514.914 1325.38 478.561 1325.68 442.209C1338.2 442.094 1350.73 442.101 1363.26 442.216C1363.41 450.066 1363.44 456.596 1363.1 464.475L1364.02 463.37C1377.57 447.167 1393.19 440.852 1413.9 439.044Z" fill="white"/>
<path d="M1582.43 439.712C1614.76 437.444 1640.43 443.034 1666.84 461.67C1660.95 471.113 1654.92 480.456 1648.74 489.706C1627.29 476.962 1613.42 470.97 1587.46 472.348C1580.26 472.24 1565.12 475.857 1561.16 482.466C1545.73 508.758 1581.87 511.879 1598.94 512.906C1630 514.771 1668.37 522.385 1670.69 560.438C1673.52 606.852 1635.94 619.036 1597.51 620.945C1568.79 621.533 1537.05 614.106 1514.59 595.413C1519.88 586.235 1527.45 575.213 1533.54 566.466C1555.98 581.693 1574.5 589.393 1602.43 587.778C1616.19 586.982 1636.71 582.117 1633.71 564.342C1630.05 542.814 1588.45 547.708 1572.57 544.085C1559.63 541.128 1549.02 539.93 1538.17 531.534C1517.42 516.494 1515.86 482.473 1531.13 463.033C1543.21 447.663 1563.69 441.958 1582.43 439.712Z" fill="white"/>
<path d="M1008.07 437.545C1043.72 433.225 1076.22 446.773 1097.25 475.856C1088 483.047 1077.24 490.56 1067.69 497.542C1065.73 495.231 1063.59 492.741 1061.54 490.524C1051.33 479.459 1037.1 472.965 1022.05 472.505C1007.33 472.096 993.06 477.607 982.44 487.804C946.404 522.564 970.61 586.752 1021.82 585.446C1039.52 584.994 1050.45 579.382 1062.71 566.817L1067.88 561.364C1074.33 564.995 1091.6 577.911 1097.59 582.791C1096.94 583.824 1096.27 584.829 1095.56 585.819C1067.37 625.81 1003.86 631.536 965.33 603.637C945.599 589.393 932.383 567.851 928.631 543.804C924.566 518.624 930.862 492.87 946.086 472.405C961.49 451.624 982.95 441.276 1008.07 437.545Z" fill="white"/>
<path d="M1363.6 157.035C1380.65 155.291 1397.88 157.47 1413.95 163.404C1429.85 169.293 1453.1 184.727 1460.19 200.313C1449.54 207.552 1438.04 216.299 1427.54 223.934C1412.46 206.948 1398.82 196.069 1374.81 196.166C1358.18 196.113 1342.24 202.804 1330.63 214.707C1306.48 239.781 1307.52 282.773 1333.18 306.453C1345.44 317.78 1361.76 323.655 1378.43 322.738C1395.93 321.893 1410.75 314.373 1422.36 301.406C1424.14 299.038 1424.58 298.123 1427.16 296.587C1431.35 296.514 1456 315.706 1460.99 319.382C1430.24 368.354 1354.35 375.569 1310.16 340.801C1288.65 324.006 1274.76 299.316 1271.56 272.224C1264.74 211.446 1303.01 163.95 1363.6 157.035Z" fill="white"/>
<path d="M919.636 113.903L961.51 113.978C962.27 124.428 962.2 152.126 961.37 162.269L1029.14 162.299C1029.24 174.918 1029.69 189.837 1028.93 202.244C1007.54 203.114 983.83 202.193 961.96 202.574C961.42 220.828 962.48 241.023 961.63 258.851C959.74 298.335 961.74 334.351 1014.07 319.449C1018.18 318.014 1023.59 315.592 1027.73 313.872C1031.98 325.552 1037.99 337.067 1041.74 348.848C1025.9 357.804 1007.99 362.434 989.8 362.273C949.31 362.241 922.694 339.702 920.139 298.244C918.836 277.089 919.456 255.58 919.44 234.367L919.636 113.903Z" fill="white"/>
<path d="M861.996 448.968C874.243 449.141 886.624 448.933 898.926 449.062C900.044 464.052 899.279 488.421 899.279 504.151L899.332 616.524L898.91 617.278C896.621 618.871 866.778 618.16 861.681 618.139C860.415 580.394 862.273 539.707 861.472 501.661C861.325 494.628 861.219 452.549 861.996 448.968Z" fill="white"/>
<path d="M866.07 395.078C871.447 394.805 891.474 393.7 895.964 396.556C899.46 398.781 899.902 410.915 899.502 415.077C898.845 421.93 900.326 426.63 895.089 431.639C890.564 432.758 865.994 434.172 863.316 429.436C859.937 423.466 861.09 409.408 861.717 402.34C862.057 398.501 863.21 397.31 866.07 395.078Z" fill="white"/>
<path d="M860 162.371H1029.25V203.044H860V162.371Z" fill="white"/>
<path d="M1303.47 527.117C1303.47 580.014 1260.59 622.896 1207.69 622.896C1154.79 622.896 1111.91 580.014 1111.91 527.117C1111.91 474.22 1154.79 431.339 1207.69 431.339C1260.59 431.339 1303.47 474.22 1303.47 527.117Z" fill="white"/>
</mask>
<g mask="url(#mask1_810_1118)">
<path d="M1483.21 93.1164C1497.12 92.8737 1511.54 93.0834 1525.5 93.0987C1526.49 110.301 1525.44 131.052 1525.8 148.592C1525.97 156.812 1526.28 180.145 1525.06 186.867C1527.78 183.868 1530.66 180.642 1533.61 177.977C1569.47 145.605 1638.23 154.103 1660.08 199.181C1663.39 206.09 1666.69 214.315 1668 221.901C1672.44 247.613 1670.59 275.076 1670.74 301.227C1670.84 319.843 1671.45 340.582 1670.27 358.981L1628.41 359.135C1627.52 330.138 1628.11 298.596 1628.12 269.412C1628.29 249.418 1628.98 230.21 1614.45 214.057C1604.92 203.806 1592.72 199.295 1579.04 198.904C1555.86 197.854 1534.07 213.231 1528.25 235.891C1524.25 251.48 1525.84 271.562 1525.64 287.82C1525.35 311.47 1526.12 335.232 1525.6 358.913C1511.92 359.367 1497.2 359.153 1483.5 359.064C1482.49 327.214 1483.15 292.059 1483.15 259.955L1483.21 93.1164Z" stroke="#FEFEFE" stroke-width="78.7222"/>
</g>
<mask id="mask2_810_1118" style="mask-type:luminance" maskUnits="userSpaceOnUse" x="860" y="93" width="811" height="530">
<path d="M1136.93 157.044C1144.38 156.148 1151.9 156.103 1159.36 156.91C1223.76 163.474 1252.73 215.223 1246.3 275.991C1196.25 277.51 1140.55 276.084 1089.96 276.301C1090.91 280.953 1091.96 284.709 1093.98 288.985C1100.82 303.453 1113.17 314.58 1128.27 319.883C1147.82 326.803 1172.29 324.387 1189.32 312.144C1193.61 309.062 1202.11 300.044 1206.03 298.514C1214.69 305.028 1226.68 316.04 1235.17 323.375C1200.55 367.977 1129.09 375.504 1084.99 341.372C1064.03 324.871 1050.49 300.722 1047.34 274.238C1039.77 214.252 1075.9 163.82 1136.93 157.044ZM1089.36 241.826C1110.74 242.036 1132.12 242.067 1153.49 241.918C1170.71 242.039 1187.93 242.007 1205.14 241.821C1199.66 223.454 1193.94 212.664 1176.36 202.542C1168.34 197.926 1152.61 194.213 1143.63 196.216C1113.96 198.99 1098.3 214.323 1089.36 241.826Z" fill="white"/>
<path d="M1483.21 93.1164C1497.12 92.8737 1511.54 93.0834 1525.5 93.0987C1526.49 110.301 1525.44 131.052 1525.8 148.592C1525.97 156.812 1526.28 180.145 1525.06 186.867C1527.78 183.868 1530.66 180.642 1533.61 177.977C1569.47 145.605 1638.23 154.103 1660.08 199.181C1663.39 206.09 1666.69 214.315 1668 221.901C1672.44 247.613 1670.59 275.076 1670.74 301.227C1670.84 319.843 1671.45 340.582 1670.27 358.981L1628.41 359.135C1627.52 330.138 1628.11 298.596 1628.12 269.412C1628.29 249.418 1628.98 230.21 1614.45 214.057C1604.92 203.806 1592.72 199.295 1579.04 198.904C1555.86 197.854 1534.07 213.231 1528.25 235.891C1524.25 251.48 1525.84 271.562 1525.64 287.82C1525.35 311.47 1526.12 335.232 1525.6 358.913C1511.92 359.367 1497.2 359.153 1483.5 359.064C1482.49 327.214 1483.15 292.059 1483.15 259.955L1483.21 93.1164Z" fill="white"/>
<path d="M1413.9 439.044C1415.53 438.843 1417.17 438.728 1418.82 438.7C1437.96 438.491 1458.79 445.553 1472.51 459.38C1497.11 484.194 1493.54 518.617 1493.55 550.887L1493.52 618.124L1455.87 618.167C1454.86 595.52 1455.92 572.414 1455.56 549.731C1455.31 534.397 1457.23 516.357 1451.55 501.912C1447.51 491.32 1439.32 482.831 1428.89 478.396C1415.36 472.584 1402.66 474.084 1389.4 479.43C1358.35 495.855 1363.35 529.431 1363.36 559.555V618.131L1325.87 618.16C1324.55 600.149 1325.4 570.139 1325.41 551.274C1325.3 514.914 1325.38 478.561 1325.68 442.209C1338.2 442.094 1350.73 442.101 1363.26 442.216C1363.41 450.066 1363.44 456.596 1363.1 464.475L1364.02 463.37C1377.57 447.167 1393.19 440.852 1413.9 439.044Z" fill="white"/>
<path d="M1582.43 439.712C1614.76 437.444 1640.43 443.034 1666.84 461.67C1660.95 471.113 1654.92 480.456 1648.74 489.706C1627.29 476.962 1613.42 470.97 1587.46 472.348C1580.26 472.24 1565.12 475.857 1561.16 482.466C1545.73 508.758 1581.87 511.879 1598.94 512.906C1630 514.771 1668.37 522.385 1670.69 560.438C1673.52 606.852 1635.94 619.036 1597.51 620.945C1568.79 621.533 1537.05 614.106 1514.59 595.413C1519.88 586.235 1527.45 575.213 1533.54 566.466C1555.98 581.693 1574.5 589.393 1602.43 587.778C1616.19 586.982 1636.71 582.117 1633.71 564.342C1630.05 542.814 1588.45 547.708 1572.57 544.085C1559.63 541.128 1549.02 539.93 1538.17 531.534C1517.42 516.494 1515.86 482.473 1531.13 463.033C1543.21 447.663 1563.69 441.958 1582.43 439.712Z" fill="white"/>
<path d="M1008.07 437.545C1043.72 433.225 1076.22 446.773 1097.25 475.856C1088 483.047 1077.24 490.56 1067.69 497.542C1065.73 495.231 1063.59 492.741 1061.54 490.524C1051.33 479.459 1037.1 472.965 1022.05 472.505C1007.33 472.096 993.06 477.607 982.44 487.804C946.404 522.564 970.61 586.752 1021.82 585.446C1039.52 584.994 1050.45 579.382 1062.71 566.817L1067.88 561.364C1074.33 564.995 1091.6 577.911 1097.59 582.791C1096.94 583.824 1096.27 584.829 1095.56 585.819C1067.37 625.81 1003.86 631.536 965.33 603.637C945.599 589.393 932.383 567.851 928.631 543.804C924.566 518.624 930.862 492.87 946.086 472.405C961.49 451.624 982.95 441.276 1008.07 437.545Z" fill="white"/>
<path d="M1363.6 157.035C1380.65 155.291 1397.88 157.47 1413.95 163.404C1429.85 169.293 1453.1 184.727 1460.19 200.313C1449.54 207.552 1438.04 216.299 1427.54 223.934C1412.46 206.948 1398.82 196.069 1374.81 196.166C1358.18 196.113 1342.24 202.804 1330.63 214.707C1306.48 239.781 1307.52 282.773 1333.18 306.453C1345.44 317.78 1361.76 323.655 1378.43 322.738C1395.93 321.893 1410.75 314.373 1422.36 301.406C1424.14 299.038 1424.58 298.123 1427.16 296.587C1431.35 296.514 1456 315.706 1460.99 319.382C1430.24 368.354 1354.35 375.569 1310.16 340.801C1288.65 324.006 1274.76 299.316 1271.56 272.224C1264.74 211.446 1303.01 163.95 1363.6 157.035Z" fill="white"/>
<path d="M919.636 113.903L961.51 113.978C962.27 124.428 962.2 152.126 961.37 162.269L1029.14 162.299C1029.24 174.918 1029.69 189.837 1028.93 202.244C1007.54 203.114 983.83 202.193 961.96 202.574C961.42 220.828 962.48 241.023 961.63 258.851C959.74 298.335 961.74 334.351 1014.07 319.449C1018.18 318.014 1023.59 315.592 1027.73 313.872C1031.98 325.552 1037.99 337.067 1041.74 348.848C1025.9 357.804 1007.99 362.434 989.8 362.273C949.31 362.241 922.694 339.702 920.139 298.244C918.836 277.089 919.456 255.58 919.44 234.367L919.636 113.903Z" fill="white"/>
<path d="M861.996 448.968C874.243 449.141 886.624 448.933 898.926 449.062C900.044 464.052 899.279 488.421 899.279 504.151L899.332 616.524L898.91 617.278C896.621 618.871 866.778 618.16 861.681 618.139C860.415 580.394 862.273 539.707 861.472 501.661C861.325 494.628 861.219 452.549 861.996 448.968Z" fill="white"/>
<path d="M866.07 395.078C871.447 394.805 891.474 393.7 895.964 396.556C899.46 398.781 899.902 410.915 899.502 415.077C898.845 421.93 900.326 426.63 895.089 431.639C890.564 432.758 865.994 434.172 863.316 429.436C859.937 423.466 861.09 409.408 861.717 402.34C862.057 398.501 863.21 397.31 866.07 395.078Z" fill="white"/>
<path d="M860 162.371H1029.25V203.044H860V162.371Z" fill="white"/>
<path d="M1303.47 527.117C1303.47 580.014 1260.59 622.896 1207.69 622.896C1154.79 622.896 1111.91 580.014 1111.91 527.117C1111.91 474.22 1154.79 431.339 1207.69 431.339C1260.59 431.339 1303.47 474.22 1303.47 527.117Z" fill="white"/>
</mask>
<g mask="url(#mask2_810_1118)">
<path d="M1413.9 439.044C1415.53 438.843 1417.17 438.728 1418.82 438.7C1437.96 438.491 1458.79 445.553 1472.51 459.38C1497.11 484.194 1493.54 518.617 1493.55 550.887L1493.52 618.124L1455.87 618.167C1454.86 595.52 1455.92 572.414 1455.56 549.731C1455.31 534.397 1457.23 516.357 1451.55 501.912C1447.51 491.32 1439.32 482.831 1428.89 478.396C1415.36 472.584 1402.66 474.084 1389.4 479.43C1358.35 495.855 1363.35 529.431 1363.36 559.555V618.131L1325.87 618.16C1324.55 600.149 1325.4 570.139 1325.41 551.274C1325.3 514.914 1325.38 478.561 1325.68 442.209C1338.2 442.094 1350.73 442.101 1363.26 442.216C1363.41 450.066 1363.44 456.596 1363.1 464.475L1364.02 463.37C1377.57 447.167 1393.19 440.852 1413.9 439.044Z" stroke="#FEFEFE" stroke-width="78.7222"/>
</g>
<mask id="mask3_810_1118" style="mask-type:luminance" maskUnits="userSpaceOnUse" x="860" y="93" width="811" height="530">
<path d="M1136.93 157.044C1144.38 156.148 1151.9 156.103 1159.36 156.91C1223.76 163.474 1252.73 215.223 1246.3 275.991C1196.25 277.51 1140.55 276.084 1089.96 276.301C1090.91 280.953 1091.96 284.709 1093.98 288.985C1100.82 303.453 1113.17 314.58 1128.27 319.883C1147.82 326.803 1172.29 324.387 1189.32 312.144C1193.61 309.062 1202.11 300.044 1206.03 298.514C1214.69 305.028 1226.68 316.04 1235.17 323.375C1200.55 367.977 1129.09 375.504 1084.99 341.372C1064.03 324.871 1050.49 300.722 1047.34 274.238C1039.77 214.252 1075.9 163.82 1136.93 157.044ZM1089.36 241.826C1110.74 242.036 1132.12 242.067 1153.49 241.918C1170.71 242.039 1187.93 242.007 1205.14 241.821C1199.66 223.454 1193.94 212.664 1176.36 202.542C1168.34 197.926 1152.61 194.213 1143.63 196.216C1113.96 198.99 1098.3 214.323 1089.36 241.826Z" fill="white"/>
<path d="M1483.21 93.1164C1497.12 92.8737 1511.54 93.0834 1525.5 93.0987C1526.49 110.301 1525.44 131.052 1525.8 148.592C1525.97 156.812 1526.28 180.145 1525.06 186.867C1527.78 183.868 1530.66 180.642 1533.61 177.977C1569.47 145.605 1638.23 154.103 1660.08 199.181C1663.39 206.09 1666.69 214.315 1668 221.901C1672.44 247.613 1670.59 275.076 1670.74 301.227C1670.84 319.843 1671.45 340.582 1670.27 358.981L1628.41 359.135C1627.52 330.138 1628.11 298.596 1628.12 269.412C1628.29 249.418 1628.98 230.21 1614.45 214.057C1604.92 203.806 1592.72 199.295 1579.04 198.904C1555.86 197.854 1534.07 213.231 1528.25 235.891C1524.25 251.48 1525.84 271.562 1525.64 287.82C1525.35 311.47 1526.12 335.232 1525.6 358.913C1511.92 359.367 1497.2 359.153 1483.5 359.064C1482.49 327.214 1483.15 292.059 1483.15 259.955L1483.21 93.1164Z" fill="white"/>
<path d="M1413.9 439.044C1415.53 438.843 1417.17 438.728 1418.82 438.7C1437.96 438.491 1458.79 445.553 1472.51 459.38C1497.11 484.194 1493.54 518.617 1493.55 550.887L1493.52 618.124L1455.87 618.167C1454.86 595.52 1455.92 572.414 1455.56 549.731C1455.31 534.397 1457.23 516.357 1451.55 501.912C1447.51 491.32 1439.32 482.831 1428.89 478.396C1415.36 472.584 1402.66 474.084 1389.4 479.43C1358.35 495.855 1363.35 529.431 1363.36 559.555V618.131L1325.87 618.16C1324.55 600.149 1325.4 570.139 1325.41 551.274C1325.3 514.914 1325.38 478.561 1325.68 442.209C1338.2 442.094 1350.73 442.101 1363.26 442.216C1363.41 450.066 1363.44 456.596 1363.1 464.475L1364.02 463.37C1377.57 447.167 1393.19 440.852 1413.9 439.044Z" fill="white"/>
<path d="M1582.43 439.712C1614.76 437.444 1640.43 443.034 1666.84 461.67C1660.95 471.113 1654.92 480.456 1648.74 489.706C1627.29 476.962 1613.42 470.97 1587.46 472.348C1580.26 472.24 1565.12 475.857 1561.16 482.466C1545.73 508.758 1581.87 511.879 1598.94 512.906C1630 514.771 1668.37 522.385 1670.69 560.438C1673.52 606.852 1635.94 619.036 1597.51 620.945C1568.79 621.533 1537.05 614.106 1514.59 595.413C1519.88 586.235 1527.45 575.213 1533.54 566.466C1555.98 581.693 1574.5 589.393 1602.43 587.778C1616.19 586.982 1636.71 582.117 1633.71 564.342C1630.05 542.814 1588.45 547.708 1572.57 544.085C1559.63 541.128 1549.02 539.93 1538.17 531.534C1517.42 516.494 1515.86 482.473 1531.13 463.033C1543.21 447.663 1563.69 441.958 1582.43 439.712Z" fill="white"/>
<path d="M1008.07 437.545C1043.72 433.225 1076.22 446.773 1097.25 475.856C1088 483.047 1077.24 490.56 1067.69 497.542C1065.73 495.231 1063.59 492.741 1061.54 490.524C1051.33 479.459 1037.1 472.965 1022.05 472.505C1007.33 472.096 993.06 477.607 982.44 487.804C946.404 522.564 970.61 586.752 1021.82 585.446C1039.52 584.994 1050.45 579.382 1062.71 566.817L1067.88 561.364C1074.33 564.995 1091.6 577.911 1097.59 582.791C1096.94 583.824 1096.27 584.829 1095.56 585.819C1067.37 625.81 1003.86 631.536 965.33 603.637C945.599 589.393 932.383 567.851 928.631 543.804C924.566 518.624 930.862 492.87 946.086 472.405C961.49 451.624 982.95 441.276 1008.07 437.545Z" fill="white"/>
<path d="M1363.6 157.035C1380.65 155.291 1397.88 157.47 1413.95 163.404C1429.85 169.293 1453.1 184.727 1460.19 200.313C1449.54 207.552 1438.04 216.299 1427.54 223.934C1412.46 206.948 1398.82 196.069 1374.81 196.166C1358.18 196.113 1342.24 202.804 1330.63 214.707C1306.48 239.781 1307.52 282.773 1333.18 306.453C1345.44 317.78 1361.76 323.655 1378.43 322.738C1395.93 321.893 1410.75 314.373 1422.36 301.406C1424.14 299.038 1424.58 298.123 1427.16 296.587C1431.35 296.514 1456 315.706 1460.99 319.382C1430.24 368.354 1354.35 375.569 1310.16 340.801C1288.65 324.006 1274.76 299.316 1271.56 272.224C1264.74 211.446 1303.01 163.95 1363.6 157.035Z" fill="white"/>
<path d="M919.636 113.903L961.51 113.978C962.27 124.428 962.2 152.126 961.37 162.269L1029.14 162.299C1029.24 174.918 1029.69 189.837 1028.93 202.244C1007.54 203.114 983.83 202.193 961.96 202.574C961.42 220.828 962.48 241.023 961.63 258.851C959.74 298.335 961.74 334.351 1014.07 319.449C1018.18 318.014 1023.59 315.592 1027.73 313.872C1031.98 325.552 1037.99 337.067 1041.74 348.848C1025.9 357.804 1007.99 362.434 989.8 362.273C949.31 362.241 922.694 339.702 920.139 298.244C918.836 277.089 919.456 255.58 919.44 234.367L919.636 113.903Z" fill="white"/>
<path d="M861.996 448.968C874.243 449.141 886.624 448.933 898.926 449.062C900.044 464.052 899.279 488.421 899.279 504.151L899.332 616.524L898.91 617.278C896.621 618.871 866.778 618.16 861.681 618.139C860.415 580.394 862.273 539.707 861.472 501.661C861.325 494.628 861.219 452.549 861.996 448.968Z" fill="white"/>
<path d="M866.07 395.078C871.447 394.805 891.474 393.7 895.964 396.556C899.46 398.781 899.902 410.915 899.502 415.077C898.845 421.93 900.326 426.63 895.089 431.639C890.564 432.758 865.994 434.172 863.316 429.436C859.937 423.466 861.09 409.408 861.717 402.34C862.057 398.501 863.21 397.31 866.07 395.078Z" fill="white"/>
<path d="M860 162.371H1029.25V203.044H860V162.371Z" fill="white"/>
<path d="M1303.47 527.117C1303.47 580.014 1260.59 622.896 1207.69 622.896C1154.79 622.896 1111.91 580.014 1111.91 527.117C1111.91 474.22 1154.79 431.339 1207.69 431.339C1260.59 431.339 1303.47 474.22 1303.47 527.117Z" fill="white"/>
</mask>
<g mask="url(#mask3_810_1118)">
<path d="M1582.43 439.712C1614.76 437.444 1640.43 443.034 1666.84 461.67C1660.95 471.113 1654.92 480.456 1648.74 489.706C1627.29 476.962 1613.42 470.97 1587.46 472.348C1580.26 472.24 1565.12 475.857 1561.16 482.466C1545.73 508.758 1581.87 511.879 1598.94 512.906C1630 514.771 1668.37 522.385 1670.69 560.438C1673.52 606.852 1635.94 619.036 1597.51 620.945C1568.79 621.533 1537.05 614.106 1514.59 595.413C1519.88 586.235 1527.45 575.213 1533.54 566.466C1555.98 581.693 1574.5 589.393 1602.43 587.778C1616.19 586.982 1636.71 582.117 1633.71 564.342C1630.05 542.814 1588.45 547.708 1572.57 544.085C1559.63 541.128 1549.02 539.93 1538.17 531.534C1517.42 516.494 1515.86 482.473 1531.13 463.033C1543.21 447.663 1563.69 441.958 1582.43 439.712Z" stroke="#FEFEFE" stroke-width="78.7222"/>
</g>
<mask id="mask4_810_1118" style="mask-type:luminance" maskUnits="userSpaceOnUse" x="860" y="93" width="811" height="530">
<path d="M1136.93 157.044C1144.38 156.148 1151.9 156.103 1159.36 156.91C1223.76 163.474 1252.73 215.223 1246.3 275.991C1196.25 277.51 1140.55 276.084 1089.96 276.301C1090.91 280.953 1091.96 284.709 1093.98 288.985C1100.82 303.453 1113.17 314.58 1128.27 319.883C1147.82 326.803 1172.29 324.387 1189.32 312.144C1193.61 309.062 1202.11 300.044 1206.03 298.514C1214.69 305.028 1226.68 316.04 1235.17 323.375C1200.55 367.977 1129.09 375.504 1084.99 341.372C1064.03 324.871 1050.49 300.722 1047.34 274.238C1039.77 214.252 1075.9 163.82 1136.93 157.044ZM1089.36 241.826C1110.74 242.036 1132.12 242.067 1153.49 241.918C1170.71 242.039 1187.93 242.007 1205.14 241.821C1199.66 223.454 1193.94 212.664 1176.36 202.542C1168.34 197.926 1152.61 194.213 1143.63 196.216C1113.96 198.99 1098.3 214.323 1089.36 241.826Z" fill="white"/>
<path d="M1483.21 93.1164C1497.12 92.8737 1511.54 93.0834 1525.5 93.0987C1526.49 110.301 1525.44 131.052 1525.8 148.592C1525.97 156.812 1526.28 180.145 1525.06 186.867C1527.78 183.868 1530.66 180.642 1533.61 177.977C1569.47 145.605 1638.23 154.103 1660.08 199.181C1663.39 206.09 1666.69 214.315 1668 221.901C1672.44 247.613 1670.59 275.076 1670.74 301.227C1670.84 319.843 1671.45 340.582 1670.27 358.981L1628.41 359.135C1627.52 330.138 1628.11 298.596 1628.12 269.412C1628.29 249.418 1628.98 230.21 1614.45 214.057C1604.92 203.806 1592.72 199.295 1579.04 198.904C1555.86 197.854 1534.07 213.231 1528.25 235.891C1524.25 251.48 1525.84 271.562 1525.64 287.82C1525.35 311.47 1526.12 335.232 1525.6 358.913C1511.92 359.367 1497.2 359.153 1483.5 359.064C1482.49 327.214 1483.15 292.059 1483.15 259.955L1483.21 93.1164Z" fill="white"/>
<path d="M1413.9 439.044C1415.53 438.843 1417.17 438.728 1418.82 438.7C1437.96 438.491 1458.79 445.553 1472.51 459.38C1497.11 484.194 1493.54 518.617 1493.55 550.887L1493.52 618.124L1455.87 618.167C1454.86 595.52 1455.92 572.414 1455.56 549.731C1455.31 534.397 1457.23 516.357 1451.55 501.912C1447.51 491.32 1439.32 482.831 1428.89 478.396C1415.36 472.584 1402.66 474.084 1389.4 479.43C1358.35 495.855 1363.35 529.431 1363.36 559.555V618.131L1325.87 618.16C1324.55 600.149 1325.4 570.139 1325.41 551.274C1325.3 514.914 1325.38 478.561 1325.68 442.209C1338.2 442.094 1350.73 442.101 1363.26 442.216C1363.41 450.066 1363.44 456.596 1363.1 464.475L1364.02 463.37C1377.57 447.167 1393.19 440.852 1413.9 439.044Z" fill="white"/>
<path d="M1582.43 439.712C1614.76 437.444 1640.43 443.034 1666.84 461.67C1660.95 471.113 1654.92 480.456 1648.74 489.706C1627.29 476.962 1613.42 470.97 1587.46 472.348C1580.26 472.24 1565.12 475.857 1561.16 482.466C1545.73 508.758 1581.87 511.879 1598.94 512.906C1630 514.771 1668.37 522.385 1670.69 560.438C1673.52 606.852 1635.94 619.036 1597.51 620.945C1568.79 621.533 1537.05 614.106 1514.59 595.413C1519.88 586.235 1527.45 575.213 1533.54 566.466C1555.98 581.693 1574.5 589.393 1602.43 587.778C1616.19 586.982 1636.71 582.117 1633.71 564.342C1630.05 542.814 1588.45 547.708 1572.57 544.085C1559.63 541.128 1549.02 539.93 1538.17 531.534C1517.42 516.494 1515.86 482.473 1531.13 463.033C1543.21 447.663 1563.69 441.958 1582.43 439.712Z" fill="white"/>
<path d="M1008.07 437.545C1043.72 433.225 1076.22 446.773 1097.25 475.856C1088 483.047 1077.24 490.56 1067.69 497.542C1065.73 495.231 1063.59 492.741 1061.54 490.524C1051.33 479.459 1037.1 472.965 1022.05 472.505C1007.33 472.096 993.06 477.607 982.44 487.804C946.404 522.564 970.61 586.752 1021.82 585.446C1039.52 584.994 1050.45 579.382 1062.71 566.817L1067.88 561.364C1074.33 564.995 1091.6 577.911 1097.59 582.791C1096.94 583.824 1096.27 584.829 1095.56 585.819C1067.37 625.81 1003.86 631.536 965.33 603.637C945.599 589.393 932.383 567.851 928.631 543.804C924.566 518.624 930.862 492.87 946.086 472.405C961.49 451.624 982.95 441.276 1008.07 437.545Z" fill="white"/>
<path d="M1363.6 157.035C1380.65 155.291 1397.88 157.47 1413.95 163.404C1429.85 169.293 1453.1 184.727 1460.19 200.313C1449.54 207.552 1438.04 216.299 1427.54 223.934C1412.46 206.948 1398.82 196.069 1374.81 196.166C1358.18 196.113 1342.24 202.804 1330.63 214.707C1306.48 239.781 1307.52 282.773 1333.18 306.453C1345.44 317.78 1361.76 323.655 1378.43 322.738C1395.93 321.893 1410.75 314.373 1422.36 301.406C1424.14 299.038 1424.58 298.123 1427.16 296.587C1431.35 296.514 1456 315.706 1460.99 319.382C1430.24 368.354 1354.35 375.569 1310.16 340.801C1288.65 324.006 1274.76 299.316 1271.56 272.224C1264.74 211.446 1303.01 163.95 1363.6 157.035Z" fill="white"/>
<path d="M919.636 113.903L961.51 113.978C962.27 124.428 962.2 152.126 961.37 162.269L1029.14 162.299C1029.24 174.918 1029.69 189.837 1028.93 202.244C1007.54 203.114 983.83 202.193 961.96 202.574C961.42 220.828 962.48 241.023 961.63 258.851C959.74 298.335 961.74 334.351 1014.07 319.449C1018.18 318.014 1023.59 315.592 1027.73 313.872C1031.98 325.552 1037.99 337.067 1041.74 348.848C1025.9 357.804 1007.99 362.434 989.8 362.273C949.31 362.241 922.694 339.702 920.139 298.244C918.836 277.089 919.456 255.58 919.44 234.367L919.636 113.903Z" fill="white"/>
<path d="M861.996 448.968C874.243 449.141 886.624 448.933 898.926 449.062C900.044 464.052 899.279 488.421 899.279 504.151L899.332 616.524L898.91 617.278C896.621 618.871 866.778 618.16 861.681 618.139C860.415 580.394 862.273 539.707 861.472 501.661C861.325 494.628 861.219 452.549 861.996 448.968Z" fill="white"/>
<path d="M866.07 395.078C871.447 394.805 891.474 393.7 895.964 396.556C899.46 398.781 899.902 410.915 899.502 415.077C898.845 421.93 900.326 426.63 895.089 431.639C890.564 432.758 865.994 434.172 863.316 429.436C859.937 423.466 861.09 409.408 861.717 402.34C862.057 398.501 863.21 397.31 866.07 395.078Z" fill="white"/>
<path d="M860 162.371H1029.25V203.044H860V162.371Z" fill="white"/>
<path d="M1303.47 527.117C1303.47 580.014 1260.59 622.896 1207.69 622.896C1154.79 622.896 1111.91 580.014 1111.91 527.117C1111.91 474.22 1154.79 431.339 1207.69 431.339C1260.59 431.339 1303.47 474.22 1303.47 527.117Z" fill="white"/>
</mask>
<g mask="url(#mask4_810_1118)">
<path d="M1008.07 437.545C1043.72 433.225 1076.22 446.773 1097.25 475.856C1088 483.047 1077.24 490.56 1067.69 497.542C1065.73 495.231 1063.59 492.741 1061.54 490.524C1051.33 479.459 1037.1 472.965 1022.05 472.505C1007.33 472.096 993.06 477.607 982.44 487.804C946.404 522.564 970.61 586.752 1021.82 585.446C1039.52 584.994 1050.45 579.382 1062.71 566.817L1067.88 561.364C1074.33 564.995 1091.6 577.911 1097.59 582.791C1096.94 583.824 1096.27 584.829 1095.56 585.819C1067.37 625.81 1003.86 631.536 965.33 603.637C945.599 589.393 932.383 567.851 928.631 543.804C924.566 518.624 930.862 492.87 946.086 472.405C961.49 451.624 982.95 441.276 1008.07 437.545Z" stroke="#FEFEFE" stroke-width="78.7222"/>
</g>
<mask id="mask5_810_1118" style="mask-type:luminance" maskUnits="userSpaceOnUse" x="860" y="93" width="811" height="530">
<path d="M1136.93 157.044C1144.38 156.148 1151.9 156.103 1159.36 156.91C1223.76 163.474 1252.73 215.223 1246.3 275.991C1196.25 277.51 1140.55 276.084 1089.96 276.301C1090.91 280.953 1091.96 284.709 1093.98 288.985C1100.82 303.453 1113.17 314.58 1128.27 319.883C1147.82 326.803 1172.29 324.387 1189.32 312.144C1193.61 309.062 1202.11 300.044 1206.03 298.514C1214.69 305.028 1226.68 316.04 1235.17 323.375C1200.55 367.977 1129.09 375.504 1084.99 341.372C1064.03 324.871 1050.49 300.722 1047.34 274.238C1039.77 214.252 1075.9 163.82 1136.93 157.044ZM1089.36 241.826C1110.74 242.036 1132.12 242.067 1153.49 241.918C1170.71 242.039 1187.93 242.007 1205.14 241.821C1199.66 223.454 1193.94 212.664 1176.36 202.542C1168.34 197.926 1152.61 194.213 1143.63 196.216C1113.96 198.99 1098.3 214.323 1089.36 241.826Z" fill="white"/>
<path d="M1483.21 93.1164C1497.12 92.8737 1511.54 93.0834 1525.5 93.0987C1526.49 110.301 1525.44 131.052 1525.8 148.592C1525.97 156.812 1526.28 180.145 1525.06 186.867C1527.78 183.868 1530.66 180.642 1533.61 177.977C1569.47 145.605 1638.23 154.103 1660.08 199.181C1663.39 206.09 1666.69 214.315 1668 221.901C1672.44 247.613 1670.59 275.076 1670.74 301.227C1670.84 319.843 1671.45 340.582 1670.27 358.981L1628.41 359.135C1627.52 330.138 1628.11 298.596 1628.12 269.412C1628.29 249.418 1628.98 230.21 1614.45 214.057C1604.92 203.806 1592.72 199.295 1579.04 198.904C1555.86 197.854 1534.07 213.231 1528.25 235.891C1524.25 251.48 1525.84 271.562 1525.64 287.82C1525.35 311.47 1526.12 335.232 1525.6 358.913C1511.92 359.367 1497.2 359.153 1483.5 359.064C1482.49 327.214 1483.15 292.059 1483.15 259.955L1483.21 93.1164Z" fill="white"/>
<path d="M1413.9 439.044C1415.53 438.843 1417.17 438.728 1418.82 438.7C1437.96 438.491 1458.79 445.553 1472.51 459.38C1497.11 484.194 1493.54 518.617 1493.55 550.887L1493.52 618.124L1455.87 618.167C1454.86 595.52 1455.92 572.414 1455.56 549.731C1455.31 534.397 1457.23 516.357 1451.55 501.912C1447.51 491.32 1439.32 482.831 1428.89 478.396C1415.36 472.584 1402.66 474.084 1389.4 479.43C1358.35 495.855 1363.35 529.431 1363.36 559.555V618.131L1325.87 618.16C1324.55 600.149 1325.4 570.139 1325.41 551.274C1325.3 514.914 1325.38 478.561 1325.68 442.209C1338.2 442.094 1350.73 442.101 1363.26 442.216C1363.41 450.066 1363.44 456.596 1363.1 464.475L1364.02 463.37C1377.57 447.167 1393.19 440.852 1413.9 439.044Z" fill="white"/>
<path d="M1582.43 439.712C1614.76 437.444 1640.43 443.034 1666.84 461.67C1660.95 471.113 1654.92 480.456 1648.74 489.706C1627.29 476.962 1613.42 470.97 1587.46 472.348C1580.26 472.24 1565.12 475.857 1561.16 482.466C1545.73 508.758 1581.87 511.879 1598.94 512.906C1630 514.771 1668.37 522.385 1670.69 560.438C1673.52 606.852 1635.94 619.036 1597.51 620.945C1568.79 621.533 1537.05 614.106 1514.59 595.413C1519.88 586.235 1527.45 575.213 1533.54 566.466C1555.98 581.693 1574.5 589.393 1602.43 587.778C1616.19 586.982 1636.71 582.117 1633.71 564.342C1630.05 542.814 1588.45 547.708 1572.57 544.085C1559.63 541.128 1549.02 539.93 1538.17 531.534C1517.42 516.494 1515.86 482.473 1531.13 463.033C1543.21 447.663 1563.69 441.958 1582.43 439.712Z" fill="white"/>
<path d="M1008.07 437.545C1043.72 433.225 1076.22 446.773 1097.25 475.856C1088 483.047 1077.24 490.56 1067.69 497.542C1065.73 495.231 1063.59 492.741 1061.54 490.524C1051.33 479.459 1037.1 472.965 1022.05 472.505C1007.33 472.096 993.06 477.607 982.44 487.804C946.404 522.564 970.61 586.752 1021.82 585.446C1039.52 584.994 1050.45 579.382 1062.71 566.817L1067.88 561.364C1074.33 564.995 1091.6 577.911 1097.59 582.791C1096.94 583.824 1096.27 584.829 1095.56 585.819C1067.37 625.81 1003.86 631.536 965.33 603.637C945.599 589.393 932.383 567.851 928.631 543.804C924.566 518.624 930.862 492.87 946.086 472.405C961.49 451.624 982.95 441.276 1008.07 437.545Z" fill="white"/>
<path d="M1363.6 157.035C1380.65 155.291 1397.88 157.47 1413.95 163.404C1429.85 169.293 1453.1 184.727 1460.19 200.313C1449.54 207.552 1438.04 216.299 1427.54 223.934C1412.46 206.948 1398.82 196.069 1374.81 196.166C1358.18 196.113 1342.24 202.804 1330.63 214.707C1306.48 239.781 1307.52 282.773 1333.18 306.453C1345.44 317.78 1361.76 323.655 1378.43 322.738C1395.93 321.893 1410.75 314.373 1422.36 301.406C1424.14 299.038 1424.58 298.123 1427.16 296.587C1431.35 296.514 1456 315.706 1460.99 319.382C1430.24 368.354 1354.35 375.569 1310.16 340.801C1288.65 324.006 1274.76 299.316 1271.56 272.224C1264.74 211.446 1303.01 163.95 1363.6 157.035Z" fill="white"/>
<path d="M919.636 113.903L961.51 113.978C962.27 124.428 962.2 152.126 961.37 162.269L1029.14 162.299C1029.24 174.918 1029.69 189.837 1028.93 202.244C1007.54 203.114 983.83 202.193 961.96 202.574C961.42 220.828 962.48 241.023 961.63 258.851C959.74 298.335 961.74 334.351 1014.07 319.449C1018.18 318.014 1023.59 315.592 1027.73 313.872C1031.98 325.552 1037.99 337.067 1041.74 348.848C1025.9 357.804 1007.99 362.434 989.8 362.273C949.31 362.241 922.694 339.702 920.139 298.244C918.836 277.089 919.456 255.58 919.44 234.367L919.636 113.903Z" fill="white"/>
<path d="M861.996 448.968C874.243 449.141 886.624 448.933 898.926 449.062C900.044 464.052 899.279 488.421 899.279 504.151L899.332 616.524L898.91 617.278C896.621 618.871 866.778 618.16 861.681 618.139C860.415 580.394 862.273 539.707 861.472 501.661C861.325 494.628 861.219 452.549 861.996 448.968Z" fill="white"/>
<path d="M866.07 395.078C871.447 394.805 891.474 393.7 895.964 396.556C899.46 398.781 899.902 410.915 899.502 415.077C898.845 421.93 900.326 426.63 895.089 431.639C890.564 432.758 865.994 434.172 863.316 429.436C859.937 423.466 861.09 409.408 861.717 402.34C862.057 398.501 863.21 397.31 866.07 395.078Z" fill="white"/>
<path d="M860 162.371H1029.25V203.044H860V162.371Z" fill="white"/>
<path d="M1303.47 527.117C1303.47 580.014 1260.59 622.896 1207.69 622.896C1154.79 622.896 1111.91 580.014 1111.91 527.117C1111.91 474.22 1154.79 431.339 1207.69 431.339C1260.59 431.339 1303.47 474.22 1303.47 527.117Z" fill="white"/>
</mask>
<g mask="url(#mask5_810_1118)">
<path d="M1363.6 157.035C1380.65 155.291 1397.88 157.47 1413.95 163.404C1429.85 169.293 1453.1 184.727 1460.19 200.313C1449.54 207.552 1438.04 216.299 1427.54 223.934C1412.46 206.948 1398.82 196.069 1374.81 196.166C1358.18 196.113 1342.24 202.804 1330.63 214.707C1306.48 239.781 1307.52 282.773 1333.18 306.453C1345.44 317.78 1361.76 323.655 1378.43 322.738C1395.93 321.893 1410.75 314.373 1422.36 301.406C1424.14 299.038 1424.58 298.123 1427.16 296.587C1431.35 296.514 1456 315.706 1460.99 319.382C1430.24 368.354 1354.35 375.569 1310.16 340.801C1288.65 324.006 1274.76 299.316 1271.56 272.224C1264.74 211.446 1303.01 163.95 1363.6 157.035Z" stroke="#FEFEFE" stroke-width="78.7222"/>
</g>
<mask id="mask6_810_1118" style="mask-type:luminance" maskUnits="userSpaceOnUse" x="860" y="93" width="811" height="530">
<path d="M1136.93 157.044C1144.38 156.148 1151.9 156.103 1159.36 156.91C1223.76 163.474 1252.73 215.223 1246.3 275.991C1196.25 277.51 1140.55 276.084 1089.96 276.301C1090.91 280.953 1091.96 284.709 1093.98 288.985C1100.82 303.453 1113.17 314.58 1128.27 319.883C1147.82 326.803 1172.29 324.387 1189.32 312.144C1193.61 309.062 1202.11 300.044 1206.03 298.514C1214.69 305.028 1226.68 316.04 1235.17 323.375C1200.55 367.977 1129.09 375.504 1084.99 341.372C1064.03 324.871 1050.49 300.722 1047.34 274.238C1039.77 214.252 1075.9 163.82 1136.93 157.044ZM1089.36 241.826C1110.74 242.036 1132.12 242.067 1153.49 241.918C1170.71 242.039 1187.93 242.007 1205.14 241.821C1199.66 223.454 1193.94 212.664 1176.36 202.542C1168.34 197.926 1152.61 194.213 1143.63 196.216C1113.96 198.99 1098.3 214.323 1089.36 241.826Z" fill="white"/>
<path d="M1483.21 93.1164C1497.12 92.8737 1511.54 93.0834 1525.5 93.0987C1526.49 110.301 1525.44 131.052 1525.8 148.592C1525.97 156.812 1526.28 180.145 1525.06 186.867C1527.78 183.868 1530.66 180.642 1533.61 177.977C1569.47 145.605 1638.23 154.103 1660.08 199.181C1663.39 206.09 1666.69 214.315 1668 221.901C1672.44 247.613 1670.59 275.076 1670.74 301.227C1670.84 319.843 1671.45 340.582 1670.27 358.981L1628.41 359.135C1627.52 330.138 1628.11 298.596 1628.12 269.412C1628.29 249.418 1628.98 230.21 1614.45 214.057C1604.92 203.806 1592.72 199.295 1579.04 198.904C1555.86 197.854 1534.07 213.231 1528.25 235.891C1524.25 251.48 1525.84 271.562 1525.64 287.82C1525.35 311.47 1526.12 335.232 1525.6 358.913C1511.92 359.367 1497.2 359.153 1483.5 359.064C1482.49 327.214 1483.15 292.059 1483.15 259.955L1483.21 93.1164Z" fill="white"/>
<path d="M1413.9 439.044C1415.53 438.843 1417.17 438.728 1418.82 438.7C1437.96 438.491 1458.79 445.553 1472.51 459.38C1497.11 484.194 1493.54 518.617 1493.55 550.887L1493.52 618.124L1455.87 618.167C1454.86 595.52 1455.92 572.414 1455.56 549.731C1455.31 534.397 1457.23 516.357 1451.55 501.912C1447.51 491.32 1439.32 482.831 1428.89 478.396C1415.36 472.584 1402.66 474.084 1389.4 479.43C1358.35 495.855 1363.35 529.431 1363.36 559.555V618.131L1325.87 618.16C1324.55 600.149 1325.4 570.139 1325.41 551.274C1325.3 514.914 1325.38 478.561 1325.68 442.209C1338.2 442.094 1350.73 442.101 1363.26 442.216C1363.41 450.066 1363.44 456.596 1363.1 464.475L1364.02 463.37C1377.57 447.167 1393.19 440.852 1413.9 439.044Z" fill="white"/>
<path d="M1582.43 439.712C1614.76 437.444 1640.43 443.034 1666.84 461.67C1660.95 471.113 1654.92 480.456 1648.74 489.706C1627.29 476.962 1613.42 470.97 1587.46 472.348C1580.26 472.24 1565.12 475.857 1561.16 482.466C1545.73 508.758 1581.87 511.879 1598.94 512.906C1630 514.771 1668.37 522.385 1670.69 560.438C1673.52 606.852 1635.94 619.036 1597.51 620.945C1568.79 621.533 1537.05 614.106 1514.59 595.413C1519.88 586.235 1527.45 575.213 1533.54 566.466C1555.98 581.693 1574.5 589.393 1602.43 587.778C1616.19 586.982 1636.71 582.117 1633.71 564.342C1630.05 542.814 1588.45 547.708 1572.57 544.085C1559.63 541.128 1549.02 539.93 1538.17 531.534C1517.42 516.494 1515.86 482.473 1531.13 463.033C1543.21 447.663 1563.69 441.958 1582.43 439.712Z" fill="white"/>
<path d="M1008.07 437.545C1043.72 433.225 1076.22 446.773 1097.25 475.856C1088 483.047 1077.24 490.56 1067.69 497.542C1065.73 495.231 1063.59 492.741 1061.54 490.524C1051.33 479.459 1037.1 472.965 1022.05 472.505C1007.33 472.096 993.06 477.607 982.44 487.804C946.404 522.564 970.61 586.752 1021.82 585.446C1039.52 584.994 1050.45 579.382 1062.71 566.817L1067.88 561.364C1074.33 564.995 1091.6 577.911 1097.59 582.791C1096.94 583.824 1096.27 584.829 1095.56 585.819C1067.37 625.81 1003.86 631.536 965.33 603.637C945.599 589.393 932.383 567.851 928.631 543.804C924.566 518.624 930.862 492.87 946.086 472.405C961.49 451.624 982.95 441.276 1008.07 437.545Z" fill="white"/>
<path d="M1363.6 157.035C1380.65 155.291 1397.88 157.47 1413.95 163.404C1429.85 169.293 1453.1 184.727 1460.19 200.313C1449.54 207.552 1438.04 216.299 1427.54 223.934C1412.46 206.948 1398.82 196.069 1374.81 196.166C1358.18 196.113 1342.24 202.804 1330.63 214.707C1306.48 239.781 1307.52 282.773 1333.18 306.453C1345.44 317.78 1361.76 323.655 1378.43 322.738C1395.93 321.893 1410.75 314.373 1422.36 301.406C1424.14 299.038 1424.58 298.123 1427.16 296.587C1431.35 296.514 1456 315.706 1460.99 319.382C1430.24 368.354 1354.35 375.569 1310.16 340.801C1288.65 324.006 1274.76 299.316 1271.56 272.224C1264.74 211.446 1303.01 163.95 1363.6 157.035Z" fill="white"/>
<path d="M919.636 113.903L961.51 113.978C962.27 124.428 962.2 152.126 961.37 162.269L1029.14 162.299C1029.24 174.918 1029.69 189.837 1028.93 202.244C1007.54 203.114 983.83 202.193 961.96 202.574C961.42 220.828 962.48 241.023 961.63 258.851C959.74 298.335 961.74 334.351 1014.07 319.449C1018.18 318.014 1023.59 315.592 1027.73 313.872C1031.98 325.552 1037.99 337.067 1041.74 348.848C1025.9 357.804 1007.99 362.434 989.8 362.273C949.31 362.241 922.694 339.702 920.139 298.244C918.836 277.089 919.456 255.58 919.44 234.367L919.636 113.903Z" fill="white"/>
<path d="M861.996 448.968C874.243 449.141 886.624 448.933 898.926 449.062C900.044 464.052 899.279 488.421 899.279 504.151L899.332 616.524L898.91 617.278C896.621 618.871 866.778 618.16 861.681 618.139C860.415 580.394 862.273 539.707 861.472 501.661C861.325 494.628 861.219 452.549 861.996 448.968Z" fill="white"/>
<path d="M866.07 395.078C871.447 394.805 891.474 393.7 895.964 396.556C899.46 398.781 899.902 410.915 899.502 415.077C898.845 421.93 900.326 426.63 895.089 431.639C890.564 432.758 865.994 434.172 863.316 429.436C859.937 423.466 861.09 409.408 861.717 402.34C862.057 398.501 863.21 397.31 866.07 395.078Z" fill="white"/>
<path d="M860 162.371H1029.25V203.044H860V162.371Z" fill="white"/>
<path d="M1303.47 527.117C1303.47 580.014 1260.59 622.896 1207.69 622.896C1154.79 622.896 1111.91 580.014 1111.91 527.117C1111.91 474.22 1154.79 431.339 1207.69 431.339C1260.59 431.339 1303.47 474.22 1303.47 527.117Z" fill="white"/>
</mask>
<g mask="url(#mask6_810_1118)">
<path d="M919.636 113.903L961.51 113.978C962.27 124.428 962.2 152.126 961.37 162.269L1029.14 162.299C1029.24 174.918 1029.69 189.837 1028.93 202.244C1007.54 203.114 983.83 202.193 961.96 202.574C961.42 220.828 962.48 241.023 961.63 258.851C959.74 298.335 961.74 334.351 1014.07 319.449C1018.18 318.014 1023.59 315.592 1027.73 313.872C1031.98 325.552 1037.99 337.067 1041.74 348.848C1025.9 357.804 1007.99 362.434 989.8 362.273C949.31 362.241 922.694 339.702 920.139 298.244C918.836 277.089 919.456 255.58 919.44 234.367L919.636 113.903Z" stroke="#FEFEFE" stroke-width="78.7222"/>
</g>
<mask id="mask7_810_1118" style="mask-type:luminance" maskUnits="userSpaceOnUse" x="860" y="93" width="811" height="530">
<path d="M1136.93 157.044C1144.38 156.148 1151.9 156.103 1159.36 156.91C1223.76 163.474 1252.73 215.223 1246.3 275.991C1196.25 277.51 1140.55 276.084 1089.96 276.301C1090.91 280.953 1091.96 284.709 1093.98 288.985C1100.82 303.453 1113.17 314.58 1128.27 319.883C1147.82 326.803 1172.29 324.387 1189.32 312.144C1193.61 309.062 1202.11 300.044 1206.03 298.514C1214.69 305.028 1226.68 316.04 1235.17 323.375C1200.55 367.977 1129.09 375.504 1084.99 341.372C1064.03 324.871 1050.49 300.722 1047.34 274.238C1039.77 214.252 1075.9 163.82 1136.93 157.044ZM1089.36 241.826C1110.74 242.036 1132.12 242.067 1153.49 241.918C1170.71 242.039 1187.93 242.007 1205.14 241.821C1199.66 223.454 1193.94 212.664 1176.36 202.542C1168.34 197.926 1152.61 194.213 1143.63 196.216C1113.96 198.99 1098.3 214.323 1089.36 241.826Z" fill="white"/>
<path d="M1483.21 93.1164C1497.12 92.8737 1511.54 93.0834 1525.5 93.0987C1526.49 110.301 1525.44 131.052 1525.8 148.592C1525.97 156.812 1526.28 180.145 1525.06 186.867C1527.78 183.868 1530.66 180.642 1533.61 177.977C1569.47 145.605 1638.23 154.103 1660.08 199.181C1663.39 206.09 1666.69 214.315 1668 221.901C1672.44 247.613 1670.59 275.076 1670.74 301.227C1670.84 319.843 1671.45 340.582 1670.27 358.981L1628.41 359.135C1627.52 330.138 1628.11 298.596 1628.12 269.412C1628.29 249.418 1628.98 230.21 1614.45 214.057C1604.92 203.806 1592.72 199.295 1579.04 198.904C1555.86 197.854 1534.07 213.231 1528.25 235.891C1524.25 251.48 1525.84 271.562 1525.64 287.82C1525.35 311.47 1526.12 335.232 1525.6 358.913C1511.92 359.367 1497.2 359.153 1483.5 359.064C1482.49 327.214 1483.15 292.059 1483.15 259.955L1483.21 93.1164Z" fill="white"/>
<path d="M1413.9 439.044C1415.53 438.843 1417.17 438.728 1418.82 438.7C1437.96 438.491 1458.79 445.553 1472.51 459.38C1497.11 484.194 1493.54 518.617 1493.55 550.887L1493.52 618.124L1455.87 618.167C1454.86 595.52 1455.92 572.414 1455.56 549.731C1455.31 534.397 1457.23 516.357 1451.55 501.912C1447.51 491.32 1439.32 482.831 1428.89 478.396C1415.36 472.584 1402.66 474.084 1389.4 479.43C1358.35 495.855 1363.35 529.431 1363.36 559.555V618.131L1325.87 618.16C1324.55 600.149 1325.4 570.139 1325.41 551.274C1325.3 514.914 1325.38 478.561 1325.68 442.209C1338.2 442.094 1350.73 442.101 1363.26 442.216C1363.41 450.066 1363.44 456.596 1363.1 464.475L1364.02 463.37C1377.57 447.167 1393.19 440.852 1413.9 439.044Z" fill="white"/>
<path d="M1582.43 439.712C1614.76 437.444 1640.43 443.034 1666.84 461.67C1660.95 471.113 1654.92 480.456 1648.74 489.706C1627.29 476.962 1613.42 470.97 1587.46 472.348C1580.26 472.24 1565.12 475.857 1561.16 482.466C1545.73 508.758 1581.87 511.879 1598.94 512.906C1630 514.771 1668.37 522.385 1670.69 560.438C1673.52 606.852 1635.94 619.036 1597.51 620.945C1568.79 621.533 1537.05 614.106 1514.59 595.413C1519.88 586.235 1527.45 575.213 1533.54 566.466C1555.98 581.693 1574.5 589.393 1602.43 587.778C1616.19 586.982 1636.71 582.117 1633.71 564.342C1630.05 542.814 1588.45 547.708 1572.57 544.085C1559.63 541.128 1549.02 539.93 1538.17 531.534C1517.42 516.494 1515.86 482.473 1531.13 463.033C1543.21 447.663 1563.69 441.958 1582.43 439.712Z" fill="white"/>
<path d="M1008.07 437.545C1043.72 433.225 1076.22 446.773 1097.25 475.856C1088 483.047 1077.24 490.56 1067.69 497.542C1065.73 495.231 1063.59 492.741 1061.54 490.524C1051.33 479.459 1037.1 472.965 1022.05 472.505C1007.33 472.096 993.06 477.607 982.44 487.804C946.404 522.564 970.61 586.752 1021.82 585.446C1039.52 584.994 1050.45 579.382 1062.71 566.817L1067.88 561.364C1074.33 564.995 1091.6 577.911 1097.59 582.791C1096.94 583.824 1096.27 584.829 1095.56 585.819C1067.37 625.81 1003.86 631.536 965.33 603.637C945.599 589.393 932.383 567.851 928.631 543.804C924.566 518.624 930.862 492.87 946.086 472.405C961.49 451.624 982.95 441.276 1008.07 437.545Z" fill="white"/>
<path d="M1363.6 157.035C1380.65 155.291 1397.88 157.47 1413.95 163.404C1429.85 169.293 1453.1 184.727 1460.19 200.313C1449.54 207.552 1438.04 216.299 1427.54 223.934C1412.46 206.948 1398.82 196.069 1374.81 196.166C1358.18 196.113 1342.24 202.804 1330.63 214.707C1306.48 239.781 1307.52 282.773 1333.18 306.453C1345.44 317.78 1361.76 323.655 1378.43 322.738C1395.93 321.893 1410.75 314.373 1422.36 301.406C1424.14 299.038 1424.58 298.123 1427.16 296.587C1431.35 296.514 1456 315.706 1460.99 319.382C1430.24 368.354 1354.35 375.569 1310.16 340.801C1288.65 324.006 1274.76 299.316 1271.56 272.224C1264.74 211.446 1303.01 163.95 1363.6 157.035Z" fill="white"/>
<path d="M919.636 113.903L961.51 113.978C962.27 124.428 962.2 152.126 961.37 162.269L1029.14 162.299C1029.24 174.918 1029.69 189.837 1028.93 202.244C1007.54 203.114 983.83 202.193 961.96 202.574C961.42 220.828 962.48 241.023 961.63 258.851C959.74 298.335 961.74 334.351 1014.07 319.449C1018.18 318.014 1023.59 315.592 1027.73 313.872C1031.98 325.552 1037.99 337.067 1041.74 348.848C1025.9 357.804 1007.99 362.434 989.8 362.273C949.31 362.241 922.694 339.702 920.139 298.244C918.836 277.089 919.456 255.58 919.44 234.367L919.636 113.903Z" fill="white"/>
<path d="M861.996 448.968C874.243 449.141 886.624 448.933 898.926 449.062C900.044 464.052 899.279 488.421 899.279 504.151L899.332 616.524L898.91 617.278C896.621 618.871 866.778 618.16 861.681 618.139C860.415 580.394 862.273 539.707 861.472 501.661C861.325 494.628 861.219 452.549 861.996 448.968Z" fill="white"/>
<path d="M866.07 395.078C871.447 394.805 891.474 393.7 895.964 396.556C899.46 398.781 899.902 410.915 899.502 415.077C898.845 421.93 900.326 426.63 895.089 431.639C890.564 432.758 865.994 434.172 863.316 429.436C859.937 423.466 861.09 409.408 861.717 402.34C862.057 398.501 863.21 397.31 866.07 395.078Z" fill="white"/>
<path d="M860 162.371H1029.25V203.044H860V162.371Z" fill="white"/>
<path d="M1303.47 527.117C1303.47 580.014 1260.59 622.896 1207.69 622.896C1154.79 622.896 1111.91 580.014 1111.91 527.117C1111.91 474.22 1154.79 431.339 1207.69 431.339C1260.59 431.339 1303.47 474.22 1303.47 527.117Z" fill="white"/>
</mask>
<g mask="url(#mask7_810_1118)">
<path d="M861.996 448.968C874.243 449.141 886.624 448.933 898.926 449.062C900.044 464.052 899.279 488.421 899.279 504.151L899.332 616.524L898.91 617.278C896.621 618.871 866.778 618.16 861.681 618.139C860.415 580.394 862.273 539.707 861.472 501.661C861.325 494.628 861.219 452.549 861.996 448.968Z" stroke="#FEFEFE" stroke-width="78.7222"/>
</g>
<mask id="mask8_810_1118" style="mask-type:luminance" maskUnits="userSpaceOnUse" x="860" y="93" width="811" height="530">
<path d="M1136.93 157.044C1144.38 156.148 1151.9 156.103 1159.36 156.91C1223.76 163.474 1252.73 215.223 1246.3 275.991C1196.25 277.51 1140.55 276.084 1089.96 276.301C1090.91 280.953 1091.96 284.709 1093.98 288.985C1100.82 303.453 1113.17 314.58 1128.27 319.883C1147.82 326.803 1172.29 324.387 1189.32 312.144C1193.61 309.062 1202.11 300.044 1206.03 298.514C1214.69 305.028 1226.68 316.04 1235.17 323.375C1200.55 367.977 1129.09 375.504 1084.99 341.372C1064.03 324.871 1050.49 300.722 1047.34 274.238C1039.77 214.252 1075.9 163.82 1136.93 157.044ZM1089.36 241.826C1110.74 242.036 1132.12 242.067 1153.49 241.918C1170.71 242.039 1187.93 242.007 1205.14 241.821C1199.66 223.454 1193.94 212.664 1176.36 202.542C1168.34 197.926 1152.61 194.213 1143.63 196.216C1113.96 198.99 1098.3 214.323 1089.36 241.826Z" fill="white"/>
<path d="M1483.21 93.1164C1497.12 92.8737 1511.54 93.0834 1525.5 93.0987C1526.49 110.301 1525.44 131.052 1525.8 148.592C1525.97 156.812 1526.28 180.145 1525.06 186.867C1527.78 183.868 1530.66 180.642 1533.61 177.977C1569.47 145.605 1638.23 154.103 1660.08 199.181C1663.39 206.09 1666.69 214.315 1668 221.901C1672.44 247.613 1670.59 275.076 1670.74 301.227C1670.84 319.843 1671.45 340.582 1670.27 358.981L1628.41 359.135C1627.52 330.138 1628.11 298.596 1628.12 269.412C1628.29 249.418 1628.98 230.21 1614.45 214.057C1604.92 203.806 1592.72 199.295 1579.04 198.904C1555.86 197.854 1534.07 213.231 1528.25 235.891C1524.25 251.48 1525.84 271.562 1525.64 287.82C1525.35 311.47 1526.12 335.232 1525.6 358.913C1511.92 359.367 1497.2 359.153 1483.5 359.064C1482.49 327.214 1483.15 292.059 1483.15 259.955L1483.21 93.1164Z" fill="white"/>
<path d="M1413.9 439.044C1415.53 438.843 1417.17 438.728 1418.82 438.7C1437.96 438.491 1458.79 445.553 1472.51 459.38C1497.11 484.194 1493.54 518.617 1493.55 550.887L1493.52 618.124L1455.87 618.167C1454.86 595.52 1455.92 572.414 1455.56 549.731C1455.31 534.397 1457.23 516.357 1451.55 501.912C1447.51 491.32 1439.32 482.831 1428.89 478.396C1415.36 472.584 1402.66 474.084 1389.4 479.43C1358.35 495.855 1363.35 529.431 1363.36 559.555V618.131L1325.87 618.16C1324.55 600.149 1325.4 570.139 1325.41 551.274C1325.3 514.914 1325.38 478.561 1325.68 442.209C1338.2 442.094 1350.73 442.101 1363.26 442.216C1363.41 450.066 1363.44 456.596 1363.1 464.475L1364.02 463.37C1377.57 447.167 1393.19 440.852 1413.9 439.044Z" fill="white"/>
<path d="M1582.43 439.712C1614.76 437.444 1640.43 443.034 1666.84 461.67C1660.95 471.113 1654.92 480.456 1648.74 489.706C1627.29 476.962 1613.42 470.97 1587.46 472.348C1580.26 472.24 1565.12 475.857 1561.16 482.466C1545.73 508.758 1581.87 511.879 1598.94 512.906C1630 514.771 1668.37 522.385 1670.69 560.438C1673.52 606.852 1635.94 619.036 1597.51 620.945C1568.79 621.533 1537.05 614.106 1514.59 595.413C1519.88 586.235 1527.45 575.213 1533.54 566.466C1555.98 581.693 1574.5 589.393 1602.43 587.778C1616.19 586.982 1636.71 582.117 1633.71 564.342C1630.05 542.814 1588.45 547.708 1572.57 544.085C1559.63 541.128 1549.02 539.93 1538.17 531.534C1517.42 516.494 1515.86 482.473 1531.13 463.033C1543.21 447.663 1563.69 441.958 1582.43 439.712Z" fill="white"/>
<path d="M1008.07 437.545C1043.72 433.225 1076.22 446.773 1097.25 475.856C1088 483.047 1077.24 490.56 1067.69 497.542C1065.73 495.231 1063.59 492.741 1061.54 490.524C1051.33 479.459 1037.1 472.965 1022.05 472.505C1007.33 472.096 993.06 477.607 982.44 487.804C946.404 522.564 970.61 586.752 1021.82 585.446C1039.52 584.994 1050.45 579.382 1062.71 566.817L1067.88 561.364C1074.33 564.995 1091.6 577.911 1097.59 582.791C1096.94 583.824 1096.27 584.829 1095.56 585.819C1067.37 625.81 1003.86 631.536 965.33 603.637C945.599 589.393 932.383 567.851 928.631 543.804C924.566 518.624 930.862 492.87 946.086 472.405C961.49 451.624 982.95 441.276 1008.07 437.545Z" fill="white"/>
<path d="M1363.6 157.035C1380.65 155.291 1397.88 157.47 1413.95 163.404C1429.85 169.293 1453.1 184.727 1460.19 200.313C1449.54 207.552 1438.04 216.299 1427.54 223.934C1412.46 206.948 1398.82 196.069 1374.81 196.166C1358.18 196.113 1342.24 202.804 1330.63 214.707C1306.48 239.781 1307.52 282.773 1333.18 306.453C1345.44 317.78 1361.76 323.655 1378.43 322.738C1395.93 321.893 1410.75 314.373 1422.36 301.406C1424.14 299.038 1424.58 298.123 1427.16 296.587C1431.35 296.514 1456 315.706 1460.99 319.382C1430.24 368.354 1354.35 375.569 1310.16 340.801C1288.65 324.006 1274.76 299.316 1271.56 272.224C1264.74 211.446 1303.01 163.95 1363.6 157.035Z" fill="white"/>
<path d="M919.636 113.903L961.51 113.978C962.27 124.428 962.2 152.126 961.37 162.269L1029.14 162.299C1029.24 174.918 1029.69 189.837 1028.93 202.244C1007.54 203.114 983.83 202.193 961.96 202.574C961.42 220.828 962.48 241.023 961.63 258.851C959.74 298.335 961.74 334.351 1014.07 319.449C1018.18 318.014 1023.59 315.592 1027.73 313.872C1031.98 325.552 1037.99 337.067 1041.74 348.848C1025.9 357.804 1007.99 362.434 989.8 362.273C949.31 362.241 922.694 339.702 920.139 298.244C918.836 277.089 919.456 255.58 919.44 234.367L919.636 113.903Z" fill="white"/>
<path d="M861.996 448.968C874.243 449.141 886.624 448.933 898.926 449.062C900.044 464.052 899.279 488.421 899.279 504.151L899.332 616.524L898.91 617.278C896.621 618.871 866.778 618.16 861.681 618.139C860.415 580.394 862.273 539.707 861.472 501.661C861.325 494.628 861.219 452.549 861.996 448.968Z" fill="white"/>
<path d="M866.07 395.078C871.447 394.805 891.474 393.7 895.964 396.556C899.46 398.781 899.902 410.915 899.502 415.077C898.845 421.93 900.326 426.63 895.089 431.639C890.564 432.758 865.994 434.172 863.316 429.436C859.937 423.466 861.09 409.408 861.717 402.34C862.057 398.501 863.21 397.31 866.07 395.078Z" fill="white"/>
<path d="M860 162.371H1029.25V203.044H860V162.371Z" fill="white"/>
<path d="M1303.47 527.117C1303.47 580.014 1260.59 622.896 1207.69 622.896C1154.79 622.896 1111.91 580.014 1111.91 527.117C1111.91 474.22 1154.79 431.339 1207.69 431.339C1260.59 431.339 1303.47 474.22 1303.47 527.117Z" fill="white"/>
</mask>
<g mask="url(#mask8_810_1118)">
<path d="M866.07 395.078C871.447 394.805 891.474 393.7 895.964 396.556C899.46 398.781 899.902 410.915 899.502 415.077C898.845 421.93 900.326 426.63 895.089 431.639C890.564 432.758 865.994 434.172 863.316 429.436C859.937 423.466 861.09 409.408 861.717 402.34C862.057 398.501 863.21 397.31 866.07 395.078Z" stroke="#FEFEFE" stroke-width="78.7222"/>
</g>
<mask id="mask9_810_1118" style="mask-type:luminance" maskUnits="userSpaceOnUse" x="860" y="93" width="811" height="530">
<path d="M1136.93 157.044C1144.38 156.148 1151.9 156.103 1159.36 156.91C1223.76 163.474 1252.73 215.223 1246.3 275.991C1196.25 277.51 1140.55 276.084 1089.96 276.301C1090.91 280.953 1091.96 284.709 1093.98 288.985C1100.82 303.453 1113.17 314.58 1128.27 319.883C1147.82 326.803 1172.29 324.387 1189.32 312.144C1193.61 309.062 1202.11 300.044 1206.03 298.514C1214.69 305.028 1226.68 316.04 1235.17 323.375C1200.55 367.977 1129.09 375.504 1084.99 341.372C1064.03 324.871 1050.49 300.722 1047.34 274.238C1039.77 214.252 1075.9 163.82 1136.93 157.044ZM1089.36 241.826C1110.74 242.036 1132.12 242.067 1153.49 241.918C1170.71 242.039 1187.93 242.007 1205.14 241.821C1199.66 223.454 1193.94 212.664 1176.36 202.542C1168.34 197.926 1152.61 194.213 1143.63 196.216C1113.96 198.99 1098.3 214.323 1089.36 241.826Z" fill="white"/>
<path d="M1483.21 93.1164C1497.12 92.8737 1511.54 93.0834 1525.5 93.0987C1526.49 110.301 1525.44 131.052 1525.8 148.592C1525.97 156.812 1526.28 180.145 1525.06 186.867C1527.78 183.868 1530.66 180.642 1533.61 177.977C1569.47 145.605 1638.23 154.103 1660.08 199.181C1663.39 206.09 1666.69 214.315 1668 221.901C1672.44 247.613 1670.59 275.076 1670.74 301.227C1670.84 319.843 1671.45 340.582 1670.27 358.981L1628.41 359.135C1627.52 330.138 1628.11 298.596 1628.12 269.412C1628.29 249.418 1628.98 230.21 1614.45 214.057C1604.92 203.806 1592.72 199.295 1579.04 198.904C1555.86 197.854 1534.07 213.231 1528.25 235.891C1524.25 251.48 1525.84 271.562 1525.64 287.82C1525.35 311.47 1526.12 335.232 1525.6 358.913C1511.92 359.367 1497.2 359.153 1483.5 359.064C1482.49 327.214 1483.15 292.059 1483.15 259.955L1483.21 93.1164Z" fill="white"/>
<path d="M1413.9 439.044C1415.53 438.843 1417.17 438.728 1418.82 438.7C1437.96 438.491 1458.79 445.553 1472.51 459.38C1497.11 484.194 1493.54 518.617 1493.55 550.887L1493.52 618.124L1455.87 618.167C1454.86 595.52 1455.92 572.414 1455.56 549.731C1455.31 534.397 1457.23 516.357 1451.55 501.912C1447.51 491.32 1439.32 482.831 1428.89 478.396C1415.36 472.584 1402.66 474.084 1389.4 479.43C1358.35 495.855 1363.35 529.431 1363.36 559.555V618.131L1325.87 618.16C1324.55 600.149 1325.4 570.139 1325.41 551.274C1325.3 514.914 1325.38 478.561 1325.68 442.209C1338.2 442.094 1350.73 442.101 1363.26 442.216C1363.41 450.066 1363.44 456.596 1363.1 464.475L1364.02 463.37C1377.57 447.167 1393.19 440.852 1413.9 439.044Z" fill="white"/>
<path d="M1582.43 439.712C1614.76 437.444 1640.43 443.034 1666.84 461.67C1660.95 471.113 1654.92 480.456 1648.74 489.706C1627.29 476.962 1613.42 470.97 1587.46 472.348C1580.26 472.24 1565.12 475.857 1561.16 482.466C1545.73 508.758 1581.87 511.879 1598.94 512.906C1630 514.771 1668.37 522.385 1670.69 560.438C1673.52 606.852 1635.94 619.036 1597.51 620.945C1568.79 621.533 1537.05 614.106 1514.59 595.413C1519.88 586.235 1527.45 575.213 1533.54 566.466C1555.98 581.693 1574.5 589.393 1602.43 587.778C1616.19 586.982 1636.71 582.117 1633.71 564.342C1630.05 542.814 1588.45 547.708 1572.57 544.085C1559.63 541.128 1549.02 539.93 1538.17 531.534C1517.42 516.494 1515.86 482.473 1531.13 463.033C1543.21 447.663 1563.69 441.958 1582.43 439.712Z" fill="white"/>
<path d="M1008.07 437.545C1043.72 433.225 1076.22 446.773 1097.25 475.856C1088 483.047 1077.24 490.56 1067.69 497.542C1065.73 495.231 1063.59 492.741 1061.54 490.524C1051.33 479.459 1037.1 472.965 1022.05 472.505C1007.33 472.096 993.06 477.607 982.44 487.804C946.404 522.564 970.61 586.752 1021.82 585.446C1039.52 584.994 1050.45 579.382 1062.71 566.817L1067.88 561.364C1074.33 564.995 1091.6 577.911 1097.59 582.791C1096.94 583.824 1096.27 584.829 1095.56 585.819C1067.37 625.81 1003.86 631.536 965.33 603.637C945.599 589.393 932.383 567.851 928.631 543.804C924.566 518.624 930.862 492.87 946.086 472.405C961.49 451.624 982.95 441.276 1008.07 437.545Z" fill="white"/>
<path d="M1363.6 157.035C1380.65 155.291 1397.88 157.47 1413.95 163.404C1429.85 169.293 1453.1 184.727 1460.19 200.313C1449.54 207.552 1438.04 216.299 1427.54 223.934C1412.46 206.948 1398.82 196.069 1374.81 196.166C1358.18 196.113 1342.24 202.804 1330.63 214.707C1306.48 239.781 1307.52 282.773 1333.18 306.453C1345.44 317.78 1361.76 323.655 1378.43 322.738C1395.93 321.893 1410.75 314.373 1422.36 301.406C1424.14 299.038 1424.58 298.123 1427.16 296.587C1431.35 296.514 1456 315.706 1460.99 319.382C1430.24 368.354 1354.35 375.569 1310.16 340.801C1288.65 324.006 1274.76 299.316 1271.56 272.224C1264.74 211.446 1303.01 163.95 1363.6 157.035Z" fill="white"/>
<path d="M919.636 113.903L961.51 113.978C962.27 124.428 962.2 152.126 961.37 162.269L1029.14 162.299C1029.24 174.918 1029.69 189.837 1028.93 202.244C1007.54 203.114 983.83 202.193 961.96 202.574C961.42 220.828 962.48 241.023 961.63 258.851C959.74 298.335 961.74 334.351 1014.07 319.449C1018.18 318.014 1023.59 315.592 1027.73 313.872C1031.98 325.552 1037.99 337.067 1041.74 348.848C1025.9 357.804 1007.99 362.434 989.8 362.273C949.31 362.241 922.694 339.702 920.139 298.244C918.836 277.089 919.456 255.58 919.44 234.367L919.636 113.903Z" fill="white"/>
<path d="M861.996 448.968C874.243 449.141 886.624 448.933 898.926 449.062C900.044 464.052 899.279 488.421 899.279 504.151L899.332 616.524L898.91 617.278C896.621 618.871 866.778 618.16 861.681 618.139C860.415 580.394 862.273 539.707 861.472 501.661C861.325 494.628 861.219 452.549 861.996 448.968Z" fill="white"/>
<path d="M866.07 395.078C871.447 394.805 891.474 393.7 895.964 396.556C899.46 398.781 899.902 410.915 899.502 415.077C898.845 421.93 900.326 426.63 895.089 431.639C890.564 432.758 865.994 434.172 863.316 429.436C859.937 423.466 861.09 409.408 861.717 402.34C862.057 398.501 863.21 397.31 866.07 395.078Z" fill="white"/>
<path d="M860 162.371H1029.25V203.044H860V162.371Z" fill="white"/>
<path d="M1303.47 527.117C1303.47 580.014 1260.59 622.896 1207.69 622.896C1154.79 622.896 1111.91 580.014 1111.91 527.117C1111.91 474.22 1154.79 431.339 1207.69 431.339C1260.59 431.339 1303.47 474.22 1303.47 527.117Z" fill="white"/>
</mask>
<g mask="url(#mask9_810_1118)">
<path d="M860 162.371H1029.25V203.044H860V162.371Z" stroke="#FEFEFE" stroke-width="78.7222"/>
</g>
<mask id="mask10_810_1118" style="mask-type:luminance" maskUnits="userSpaceOnUse" x="860" y="92" width="811" height="530">
<path d="M1136.93 156.044C1144.38 155.148 1151.9 155.103 1159.36 155.91C1223.76 162.474 1252.73 214.223 1246.3 274.991C1196.25 276.51 1140.55 275.084 1089.96 275.301C1090.91 279.953 1091.96 283.709 1093.98 287.985C1100.82 302.453 1113.17 313.58 1128.27 318.883C1147.82 325.803 1172.29 323.387 1189.32 311.144C1193.61 308.062 1202.11 299.044 1206.03 297.514C1214.69 304.028 1226.68 315.04 1235.17 322.375C1200.55 366.977 1129.09 374.504 1084.99 340.372C1064.03 323.871 1050.49 299.722 1047.34 273.238C1039.77 213.252 1075.9 162.82 1136.93 156.044ZM1089.36 240.826C1110.74 241.036 1132.12 241.067 1153.49 240.918C1170.71 241.039 1187.93 241.007 1205.14 240.821C1199.66 222.454 1193.94 211.664 1176.36 201.542C1168.34 196.926 1152.61 193.213 1143.63 195.216C1113.96 197.99 1098.3 213.323 1089.36 240.826Z" fill="white"/>
<path d="M1483.21 92.1164C1497.12 91.8737 1511.54 92.0834 1525.5 92.0987C1526.49 109.301 1525.44 130.052 1525.8 147.592C1525.97 155.812 1526.28 179.145 1525.06 185.867C1527.78 182.868 1530.66 179.642 1533.61 176.977C1569.47 144.605 1638.23 153.103 1660.08 198.181C1663.39 205.09 1666.69 213.315 1668 220.901C1672.44 246.613 1670.59 274.076 1670.74 300.227C1670.84 318.843 1671.45 339.582 1670.27 357.981L1628.41 358.135C1627.52 329.138 1628.11 297.596 1628.12 268.412C1628.29 248.418 1628.98 229.21 1614.45 213.057C1604.92 202.806 1592.72 198.295 1579.04 197.904C1555.86 196.854 1534.07 212.231 1528.25 234.891C1524.25 250.48 1525.84 270.562 1525.64 286.82C1525.35 310.47 1526.12 334.232 1525.6 357.913C1511.92 358.367 1497.2 358.153 1483.5 358.064C1482.49 326.214 1483.15 291.059 1483.15 258.955L1483.21 92.1164Z" fill="white"/>
<path d="M1413.9 438.044C1415.53 437.843 1417.17 437.728 1418.82 437.7C1437.96 437.491 1458.79 444.553 1472.51 458.38C1497.11 483.194 1493.54 517.617 1493.55 549.887L1493.52 617.124L1455.87 617.167C1454.86 594.52 1455.92 571.414 1455.56 548.731C1455.31 533.397 1457.23 515.357 1451.55 500.912C1447.51 490.32 1439.32 481.831 1428.89 477.396C1415.36 471.584 1402.66 473.084 1389.4 478.43C1358.35 494.855 1363.35 528.431 1363.36 558.555V617.131L1325.87 617.16C1324.55 599.149 1325.4 569.139 1325.41 550.274C1325.3 513.914 1325.38 477.561 1325.68 441.209C1338.2 441.094 1350.73 441.101 1363.26 441.216C1363.41 449.066 1363.44 455.596 1363.1 463.475L1364.02 462.37C1377.57 446.167 1393.19 439.852 1413.9 438.044Z" fill="white"/>
<path d="M1582.43 438.712C1614.76 436.444 1640.43 442.034 1666.84 460.67C1660.95 470.113 1654.92 479.456 1648.74 488.706C1627.29 475.962 1613.42 469.97 1587.46 471.348C1580.26 471.24 1565.12 474.857 1561.16 481.466C1545.73 507.758 1581.87 510.879 1598.94 511.906C1630 513.771 1668.37 521.385 1670.69 559.438C1673.52 605.852 1635.94 618.036 1597.51 619.945C1568.79 620.533 1537.05 613.106 1514.59 594.413C1519.88 585.235 1527.45 574.213 1533.54 565.466C1555.98 580.693 1574.5 588.393 1602.43 586.778C1616.19 585.982 1636.71 581.117 1633.71 563.342C1630.05 541.814 1588.45 546.708 1572.57 543.085C1559.63 540.128 1549.02 538.93 1538.17 530.534C1517.42 515.494 1515.86 481.473 1531.13 462.033C1543.21 446.663 1563.69 440.958 1582.43 438.712Z" fill="white"/>
<path d="M1008.07 436.545C1043.72 432.225 1076.22 445.773 1097.25 474.856C1088 482.047 1077.24 489.56 1067.69 496.542C1065.73 494.231 1063.59 491.741 1061.54 489.524C1051.33 478.459 1037.1 471.965 1022.05 471.505C1007.33 471.096 993.06 476.607 982.44 486.804C946.404 521.564 970.61 585.752 1021.82 584.446C1039.52 583.994 1050.45 578.382 1062.71 565.817L1067.88 560.364C1074.33 563.995 1091.6 576.911 1097.59 581.791C1096.94 582.824 1096.27 583.829 1095.56 584.819C1067.37 624.81 1003.86 630.536 965.33 602.637C945.599 588.393 932.383 566.851 928.631 542.804C924.566 517.624 930.862 491.87 946.086 471.405C961.49 450.624 982.95 440.276 1008.07 436.545Z" fill="white"/>
<path d="M1363.6 156.035C1380.65 154.291 1397.88 156.47 1413.95 162.404C1429.85 168.293 1453.1 183.727 1460.19 199.313C1449.54 206.552 1438.04 215.299 1427.54 222.934C1412.46 205.948 1398.82 195.069 1374.81 195.166C1358.18 195.113 1342.24 201.804 1330.63 213.707C1306.48 238.781 1307.52 281.773 1333.18 305.453C1345.44 316.78 1361.76 322.655 1378.43 321.738C1395.93 320.893 1410.75 313.373 1422.36 300.406C1424.14 298.038 1424.58 297.123 1427.16 295.587C1431.35 295.514 1456 314.706 1460.99 318.382C1430.24 367.354 1354.35 374.569 1310.16 339.801C1288.65 323.006 1274.76 298.316 1271.56 271.224C1264.74 210.446 1303.01 162.95 1363.6 156.035Z" fill="white"/>
<path d="M919.636 112.903L961.51 112.978C962.27 123.428 962.2 151.126 961.37 161.269L1029.14 161.299C1029.24 173.918 1029.69 188.837 1028.93 201.244C1007.54 202.114 983.83 201.193 961.96 201.574C961.42 219.828 962.48 240.023 961.63 257.851C959.74 297.335 961.74 333.351 1014.07 318.449C1018.18 317.014 1023.59 314.592 1027.73 312.872C1031.98 324.552 1037.99 336.067 1041.74 347.848C1025.9 356.804 1007.99 361.434 989.8 361.273C949.31 361.241 922.694 338.702 920.139 297.244C918.836 276.089 919.456 254.58 919.44 233.367L919.636 112.903Z" fill="white"/>
<path d="M861.996 447.968C874.243 448.141 886.624 447.933 898.926 448.062C900.044 463.052 899.279 487.421 899.279 503.151L899.332 615.524L898.91 616.278C896.621 617.871 866.778 617.16 861.681 617.139C860.415 579.394 862.273 538.707 861.472 500.661C861.325 493.628 861.219 451.549 861.996 447.968Z" fill="white"/>
<path d="M866.07 394.078C871.447 393.805 891.474 392.7 895.964 395.556C899.46 397.781 899.902 409.915 899.502 414.077C898.845 420.93 900.326 425.63 895.089 430.639C890.564 431.758 865.994 433.172 863.316 428.436C859.937 422.466 861.09 408.408 861.717 401.34C862.057 397.501 863.21 396.31 866.07 394.078Z" fill="white"/>
<path d="M860 161.371H1029.25V202.044H860V161.371Z" fill="white"/>
<path d="M1303.47 526.117C1303.47 579.014 1260.59 621.896 1207.69 621.896C1154.79 621.896 1111.91 579.014 1111.91 526.117C1111.91 473.22 1154.79 430.339 1207.69 430.339C1260.59 430.339 1303.47 473.22 1303.47 526.117Z" fill="white"/>
</mask>
<g mask="url(#mask10_810_1118)">
<path d="M1303.47 526.117C1303.47 579.014 1260.59 621.896 1207.69 621.896C1154.79 621.896 1111.91 579.014 1111.91 526.117C1111.91 473.22 1154.79 430.339 1207.69 430.339C1260.59 430.339 1303.47 473.22 1303.47 526.117Z" stroke="#FEFEFE" stroke-width="78.7222"/>
</g>
<path d="M44.2448 2H44.9372C48.8456 5.67944 63.1212 13.2331 68.312 15.8669C111.462 37.76 159.671 52.5566 207.934 56.8145C210.086 57.0045 212.351 57.0359 214.464 57.3026C216.164 56.8389 228.816 50.8333 231.696 49.5929C249.293 42.0108 267.549 36.058 286.232 31.809C338.621 20.1341 402.739 21.099 454.406 35.7636C467.537 39.5111 480.409 44.104 492.947 49.5134C498.75 51.9755 504.808 55.0682 510.486 57.3319C556.576 54.3092 602.468 41.1434 644.358 21.9073C654.274 17.3526 671.43 8.49182 680.186 2H680.946C679.653 11.5279 678.325 19.4004 675.902 28.731C669.151 54.738 654.034 86.4706 634.511 105.418C637.864 106.596 640.168 107.832 641.771 111.412C645.379 119.473 642.524 132.542 639.673 140.412C637.613 146.107 634.249 151.757 632.468 157.442C639.098 163.125 648.927 174.588 654.532 181.449C686.568 220.653 709.214 272.243 712.714 322.987C714.021 341.948 712.491 371.216 707.416 389.655C708.116 400.948 704.578 421.454 702.588 432.453C691.183 495.507 664.135 554.179 621.562 602.381C611.021 614.377 599.561 625.533 587.288 635.748C581.533 640.549 575.416 644.914 569.654 649.669C573.614 657.322 605.131 691.868 588.766 698.035C573.91 703.634 527.782 691.899 515.506 681.667C482.737 695.082 456.383 705.123 421.115 711.063C412.213 712.566 403.255 713.709 394.259 714.497C390.77 714.801 380.184 715.289 377.518 716H349.087C344.864 715.278 338.808 715.135 334.366 714.776C325.927 714.121 317.515 713.152 309.148 711.865C271.867 706.071 244.416 695.95 209.711 681.667C201.367 687.311 183.905 693.81 173.981 695.88C105.403 710.199 135.565 680.408 155.466 649.718C150.091 645.203 144.209 640.992 138.738 636.498C129.326 628.706 120.37 620.38 111.915 611.557C65.9975 563.71 35.7974 501.859 23.4387 437.038C20.6056 422.179 17.3292 404.124 17.63 388.955C15.8008 381.274 14.4413 373.489 13.5591 365.641C13.1544 361.974 12.7671 354.736 12 351.605V325.026C12.5777 323.245 13.1537 313.944 13.5346 310.981C14.6056 302.747 16.1179 294.578 18.0648 286.506C29.4359 239.789 57.0733 190.147 92.5829 157.356C91.4354 153.17 88.0042 146.871 86.2318 142.418C82.8699 133.973 79.7587 121.235 82.9515 112.328C84.3722 108.365 86.9397 106.814 90.4138 105.264C63.8821 77.5024 48.9519 39.7503 44.2448 2Z" fill="#55B7B6"/>
<path d="M92.5829 157.356C96.2003 162.488 114.461 172.671 120.346 175.898C166.334 201.122 222.414 210.481 263.575 244.333C310.32 282.776 334.304 343.681 340.293 402.631C341.3 412.47 341.716 421.82 341.895 431.732C342.039 431.697 342.184 431.662 342.329 431.631C356.611 423.643 366.886 422.831 381.993 431.292C382.415 431.53 382.833 431.77 383.255 432.011C398.999 445.761 413.402 460.661 417.926 481.754C414.043 498.819 409.822 507.539 401.516 523.084C434.859 551.201 482.002 568.194 525.753 566.848C534.784 586.082 544.035 605.365 553.959 624.167C558.417 632.611 564.325 641.459 569.219 649.76C553.234 661.073 533.087 673.244 515.506 681.667C482.737 695.082 456.383 705.123 421.115 711.063C412.213 712.566 403.255 713.709 394.259 714.497C390.77 714.801 380.184 715.289 377.518 716H349.087C344.864 715.278 338.808 715.135 334.366 714.776C325.927 714.121 317.515 713.152 309.148 711.865C271.867 706.071 244.416 695.95 209.711 681.667C201.367 687.311 183.905 693.81 173.981 695.88C105.403 710.199 135.565 680.408 155.466 649.718C150.091 645.203 144.209 640.992 138.738 636.498C129.326 628.706 120.37 620.38 111.915 611.557C65.9975 563.71 35.7974 501.859 23.4387 437.038C20.6056 422.179 17.3292 404.124 17.63 388.955C15.8008 381.274 14.4413 373.489 13.5591 365.641C13.1544 361.974 12.7671 354.736 12 351.605V325.026C12.5777 323.245 13.1537 313.944 13.5346 310.981C14.6056 302.747 16.1179 294.578 18.0648 286.506C29.4359 239.789 57.0733 190.147 92.5829 157.356Z" fill="#F7F7F7"/>
<path d="M341.895 431.732C342.039 431.697 342.184 431.662 342.329 431.631C356.611 423.643 366.886 422.831 381.993 431.292C382.415 431.53 382.833 431.77 383.255 432.011C398.999 445.761 413.402 460.661 417.926 481.754C414.043 498.819 409.822 507.539 401.516 523.084C434.859 551.201 482.002 568.194 525.753 566.848C534.784 586.082 544.035 605.365 553.959 624.167C558.417 632.611 564.325 641.459 569.219 649.76C553.234 661.073 533.087 673.244 515.506 681.667C482.737 695.082 456.383 705.123 421.115 711.063C412.213 712.566 403.255 713.709 394.259 714.497C390.77 714.801 380.184 715.289 377.518 716H349.087C344.864 715.278 338.808 715.135 334.366 714.776C325.927 714.121 317.515 713.152 309.148 711.865C271.867 706.071 244.416 695.95 209.711 681.667C208.353 681.311 202.699 678.337 201.284 677.591C185.616 669.189 170.445 659.891 155.848 649.742C160.13 642.142 165.611 634.326 169.684 626.726C180.182 607.143 189.915 586.915 199.322 566.796C200.233 566.872 201.145 566.928 202.059 566.959C236.298 568.134 273.312 555.967 302.208 538.208C309.302 533.85 317.4 528.46 323.442 522.781C315.217 507.723 310.979 498.457 307.192 481.806C310.283 463.653 324.503 447.574 337.809 435.553C339.162 434.329 340.903 433.252 341.895 431.732Z" fill="#11585C"/>
<path d="M341.895 431.732C342.039 431.697 342.184 431.662 342.329 431.631C356.611 423.643 366.886 422.831 381.993 431.292C382.415 431.53 382.833 431.77 383.255 432.011C398.999 445.761 413.402 460.661 417.926 481.754C414.043 498.819 409.822 507.539 401.516 523.084C398.013 528.237 393.095 537.51 389.459 543.28C380.878 556.811 371.888 570.083 362.505 583.073C357.394 575.47 351.862 567.953 346.685 560.259C338.451 548.074 330.698 535.572 323.442 522.781C315.217 507.723 310.979 498.457 307.192 481.806C310.283 463.653 324.503 447.574 337.809 435.553C339.162 434.329 340.903 433.252 341.895 431.732Z" fill="#FEB524"/>
<path d="M17.63 388.955C18.4644 392.371 20.7719 397.203 22.0323 400.738C36.0417 439.754 63.0529 472.755 98.5252 494.193C138.951 518.789 188.907 528.966 235.111 517.286C262.555 510.352 284.698 498.708 307.192 481.806C310.979 498.457 315.217 507.723 323.442 522.781C317.4 528.46 309.302 533.85 302.208 538.208C273.312 555.967 236.298 568.134 202.059 566.959C201.145 566.928 200.233 566.872 199.322 566.796C189.915 586.915 180.182 607.143 169.684 626.726C165.611 634.326 160.13 642.142 155.848 649.742C170.445 659.891 185.616 669.189 201.284 677.591C202.699 678.337 208.353 681.311 209.711 681.667C201.367 687.311 183.905 693.81 173.981 695.88C105.403 710.199 135.565 680.408 155.466 649.718C150.091 645.203 144.209 640.992 138.738 636.498C129.326 628.706 120.37 620.38 111.915 611.557C65.9975 563.71 35.7974 501.859 23.4387 437.038C20.6056 422.179 17.3292 404.124 17.63 388.955Z" fill="#01414A"/>
<path d="M188.127 261.152C231.094 257.122 269.178 288.727 273.15 331.708C277.121 374.688 245.474 412.738 202.496 416.657C159.599 420.565 121.642 388.982 117.677 346.081C113.713 303.179 145.239 265.173 188.127 261.152Z" fill="#010A11"/>
<path d="M175.164 293.954C184.4 293.095 192.594 299.865 193.494 309.099C194.394 318.334 187.663 326.56 178.435 327.502C169.147 328.45 160.859 321.665 159.952 312.371C159.046 303.077 165.868 294.818 175.164 293.954Z" fill="#F7F7F7"/>
<path d="M632.468 157.442C639.098 163.125 648.927 174.588 654.532 181.449C686.568 220.653 709.214 272.243 712.714 322.987C714.021 341.948 712.491 371.216 707.416 389.655C708.116 400.948 704.578 421.454 702.588 432.453C691.183 495.507 664.135 554.179 621.562 602.381C611.021 614.377 599.561 625.533 587.288 635.748C581.533 640.549 575.416 644.914 569.654 649.669C573.614 657.322 605.131 691.868 588.766 698.035C573.91 703.634 527.782 691.899 515.506 681.667C533.087 673.244 553.234 661.073 569.219 649.76C564.325 641.459 558.417 632.611 553.959 624.167C544.035 605.365 534.784 586.082 525.753 566.848C482.002 568.194 434.859 551.201 401.516 523.084C409.822 507.539 414.043 498.819 417.926 481.754C413.402 460.661 398.999 445.761 383.255 432.011C382.69 395.638 391.558 353.188 405.991 319.927C412.259 305.407 420.108 291.623 429.397 278.824C457.679 239.567 489.81 222.798 534.296 205.704C557.287 196.869 582.387 187.986 604.005 176.263C610.959 172.493 627.515 163.206 632.468 157.442Z" fill="#F7F7F7"/>
<path d="M707.416 389.655C708.116 400.948 704.578 421.454 702.588 432.453C691.183 495.507 664.135 554.179 621.562 602.381C611.021 614.377 599.561 625.533 587.288 635.748C581.533 640.549 575.416 644.914 569.654 649.669C573.614 657.322 605.131 691.868 588.766 698.035C573.91 703.634 527.782 691.899 515.506 681.667C533.087 673.244 553.234 661.073 569.219 649.76C564.325 641.459 558.417 632.611 553.959 624.167C544.035 605.365 534.784 586.082 525.753 566.848C482.002 568.194 434.859 551.201 401.516 523.084C409.822 507.539 414.043 498.819 417.926 481.754C431.182 492.471 449.83 502.999 465.491 509.365C510.413 527.623 557.009 525.821 601.45 506.984C642.078 490.037 675.299 459.113 695.112 419.802C700.134 409.817 703.233 399.964 707.416 389.655Z" fill="#01414A"/>
<path d="M522.247 261.166C565.228 257.066 603.374 288.639 607.386 331.636C611.401 374.633 579.763 412.724 536.768 416.657C493.888 420.576 455.933 389.035 451.928 346.158C447.927 303.28 479.384 265.254 522.247 261.166Z" fill="#010A11"/>
<path d="M508.653 293.973C517.935 293.001 526.241 299.765 527.172 309.057C528.102 318.348 521.306 326.625 512.009 327.515C502.776 328.4 494.561 321.651 493.637 312.417C492.71 303.183 499.423 294.938 508.653 293.973Z" fill="#F7F7F7"/>
<path d="M90.4138 105.264C100.19 113.477 110.308 123.502 121.831 129.17C166.976 153.508 217.394 163.076 260.677 190.185C308.812 220.333 343.892 269.801 362.529 323.035C385.646 258.189 428.393 204.8 491.354 175.549C527.98 158.532 567.988 148.882 603.113 129.258C615.685 122.962 623.936 114.076 634.511 105.418C637.864 106.596 640.168 107.832 641.771 111.412C645.379 119.473 642.524 132.542 639.673 140.412C637.613 146.107 634.249 151.757 632.468 157.442C627.515 163.206 610.959 172.493 604.005 176.263C582.387 187.986 557.287 196.869 534.296 205.704C489.81 222.798 457.679 239.567 429.397 278.824C420.108 291.623 412.259 305.407 405.991 319.927C391.558 353.188 382.69 395.638 383.255 432.011C382.833 431.77 382.415 431.53 381.993 431.292C366.886 422.831 356.611 423.643 342.329 431.631C342.184 431.662 342.039 431.697 341.895 431.732C341.716 421.82 341.3 412.47 340.293 402.631C334.304 343.681 310.32 282.776 263.575 244.333C222.414 210.481 166.334 201.122 120.346 175.898C114.461 172.671 96.2003 162.488 92.5829 157.356C91.4354 153.17 88.0042 146.871 86.2318 142.418C82.8699 133.973 79.7587 121.235 82.9515 112.328C84.3722 108.365 86.9397 106.814 90.4138 105.264Z" fill="#010A11"/>
<path d="M680.186 2H680.946C679.653 11.5279 678.325 19.4004 675.902 28.731C669.151 54.738 654.034 86.4706 634.511 105.418C623.936 114.076 615.685 122.962 603.113 129.258C601.241 125.438 593.266 118.79 589.832 115.603C575.005 101.846 559.839 89.4096 543.038 78.064C536.782 73.8037 530.427 69.6888 523.982 65.7224C519.89 63.1966 514.338 60.0128 510.486 57.3319C556.576 54.3092 602.468 41.1434 644.358 21.9073C654.274 17.3526 671.43 8.49182 680.186 2Z" fill="#2AADB0"/>
<path d="M44.2448 2H44.9372C48.8456 5.67944 63.1212 13.2331 68.312 15.8669C111.462 37.76 159.671 52.5566 207.934 56.8145C210.086 57.0045 212.351 57.0359 214.464 57.3026C209.848 60.5365 204.614 63.6345 199.767 66.5529C173.266 82.507 149.435 101.833 127.058 123.115C125.258 124.827 123.141 127.062 121.831 129.17C110.308 123.502 100.19 113.477 90.4138 105.264C63.8821 77.5024 48.9519 39.7503 44.2448 2Z" fill="#2AADB0"/>
</g>
<defs>
<clipPath id="clip0_810_1118">
<rect width="1671" height="715" fill="white"/>
</clipPath>
</defs>
</svg>
