<svg width="1165" height="499" viewBox="0 0 1165 499" fill="none" xmlns="http://www.w3.org/2000/svg">
<g clip-path="url(#clip0_810_1118)">
<path d="M792.654 109.489C797.848 108.865 803.09 108.833 808.291 109.396C853.19 113.972 873.388 150.051 868.905 192.418C834.011 193.477 795.177 192.482 759.907 192.634C760.569 195.877 761.301 198.496 762.709 201.477C767.478 211.564 776.088 219.321 786.616 223.019C800.246 227.843 817.306 226.159 829.179 217.623C832.17 215.474 838.096 209.187 840.829 208.12C846.867 212.662 855.226 220.339 861.145 225.453C837.009 256.549 787.188 261.797 756.442 238C741.829 226.496 732.389 209.66 730.192 191.195C724.915 149.374 750.104 114.213 792.654 109.489ZM759.488 168.598C774.394 168.745 789.3 168.766 804.199 168.662C816.205 168.747 828.21 168.724 840.209 168.595C836.388 155.789 832.4 148.267 820.144 141.21C814.552 137.992 803.585 135.403 797.325 136.799C776.639 138.733 765.721 149.423 759.488 168.598Z" fill="#FEFEFE"/>
<path d="M1034.07 64.9195C1043.77 64.7503 1053.83 64.8965 1063.56 64.9072C1064.25 76.9004 1063.52 91.3677 1063.77 103.596C1063.89 109.327 1064.1 125.595 1063.25 130.281C1065.15 128.19 1067.16 125.941 1069.21 124.083C1094.21 101.514 1142.15 107.439 1157.39 138.866C1159.69 143.683 1161.99 149.418 1162.91 154.707C1166 172.633 1164.71 191.779 1164.82 210.012C1164.89 222.99 1165.31 237.449 1164.49 250.277L1135.31 250.384C1134.69 230.168 1135.1 208.177 1135.1 187.831C1135.22 173.891 1135.7 160.499 1125.57 149.238C1118.93 142.091 1110.42 138.946 1100.89 138.673C1084.72 137.941 1069.53 148.662 1065.48 164.46C1062.69 175.329 1063.8 189.33 1063.66 200.664C1063.45 217.153 1063.99 233.719 1063.63 250.23C1054.09 250.546 1043.83 250.397 1034.28 250.335C1033.57 228.129 1034.03 203.62 1034.03 181.237L1034.07 64.9195Z" fill="#FEFEFE"/>
<path d="M985.754 306.096C986.89 305.956 988.033 305.876 989.184 305.856C1002.53 305.71 1017.05 310.634 1026.62 320.274C1043.77 337.574 1041.28 361.573 1041.28 384.072L1041.26 430.948L1015.01 430.978C1014.31 415.189 1015.05 399.08 1014.8 383.266C1014.62 372.575 1015.96 359.998 1012 349.927C1009.19 342.542 1003.48 336.624 996.204 333.532C986.771 329.48 977.917 330.525 968.672 334.253C947.025 345.704 950.511 369.113 950.518 390.115V430.953L924.38 430.973C923.46 418.416 924.052 397.494 924.059 384.341C923.983 358.992 924.039 333.647 924.248 308.303C932.976 308.222 941.712 308.227 950.448 308.307C950.553 313.78 950.573 318.333 950.336 323.826L950.978 323.056C960.425 311.759 971.315 307.357 985.754 306.096Z" fill="#FEFEFE"/>
<path d="M1103.25 306.562C1125.79 304.981 1143.69 308.878 1162.1 321.871C1157.99 328.454 1153.79 334.968 1149.48 341.417C1134.53 332.532 1124.86 328.355 1106.76 329.315C1101.74 329.24 1091.18 331.762 1088.42 336.37C1077.66 354.7 1102.86 356.876 1114.76 357.592C1136.42 358.892 1163.17 364.201 1164.78 390.731C1166.76 423.09 1140.56 431.585 1113.76 432.915C1093.74 433.325 1071.61 428.147 1055.95 415.115C1059.64 408.716 1064.92 401.032 1069.16 394.933C1084.81 405.549 1097.72 410.918 1117.19 409.792C1126.79 409.237 1141.09 405.845 1139 393.453C1136.45 378.443 1107.45 381.856 1096.38 379.33C1087.35 377.268 1079.96 376.433 1072.39 370.579C1057.93 360.094 1056.84 336.375 1067.48 322.821C1075.91 312.105 1090.19 308.128 1103.25 306.562Z" fill="#FEFEFE"/>
<path d="M702.813 305.051C727.668 302.039 750.327 311.485 764.989 331.761C758.54 336.774 751.038 342.012 744.38 346.88C743.013 345.269 741.521 343.533 740.092 341.987C732.974 334.273 723.053 329.745 712.56 329.425C702.297 329.14 692.349 332.982 684.944 340.091C659.821 364.325 676.697 409.076 712.4 408.166C724.74 407.851 732.36 403.938 740.908 395.178L744.512 391.376C749.009 393.908 761.049 402.912 765.226 406.315C764.772 407.035 764.305 407.736 763.81 408.426C744.157 436.307 699.878 440.299 673.016 420.848C659.259 410.918 650.045 395.899 647.43 379.133C644.595 361.578 648.985 343.623 659.599 329.355C670.338 314.867 685.3 307.652 702.813 305.051Z" fill="#FEFEFE"/>
<path d="M950.684 109.483C962.571 108.267 974.584 109.786 985.788 113.923C996.873 118.029 1013.08 128.789 1018.03 139.656C1010.6 144.703 1002.58 150.801 995.262 156.124C984.749 144.282 975.239 136.697 958.5 136.765C946.906 136.728 935.792 141.392 927.698 149.691C910.861 167.172 911.586 197.146 929.476 213.655C938.023 221.552 949.402 225.648 961.024 225.009C973.224 224.42 983.557 219.177 991.651 210.137C992.892 208.486 993.199 207.848 994.998 206.777C997.919 206.726 1015.1 220.106 1018.58 222.669C997.145 256.812 944.235 261.842 913.427 237.602C898.43 225.893 888.746 208.679 886.515 189.791C881.76 147.418 908.442 114.304 950.684 109.483Z" fill="#FEFEFE"/>
<path d="M641.159 79.4116L670.354 79.4639C670.883 86.7495 670.835 106.06 670.256 113.132L717.504 113.153C717.574 121.951 717.888 132.352 717.358 141.002C702.445 141.608 685.915 140.966 670.667 141.232C670.291 153.958 671.03 168.038 670.437 180.468C669.119 207.995 670.514 233.105 706.998 222.716C709.863 221.715 713.635 220.027 716.521 218.827C719.484 226.971 723.674 234.999 726.289 243.212C715.245 249.456 702.759 252.684 690.077 252.572C661.848 252.55 643.291 236.836 641.51 207.932C640.602 193.183 641.034 178.187 641.023 163.398L641.159 79.4116Z" fill="#FEFEFE"/>
<path d="M600.973 313.015C609.512 313.135 618.143 312.99 626.72 313.08C627.5 323.531 626.966 340.521 626.966 351.488L627.003 429.833L626.709 430.358C625.113 431.469 604.307 430.973 600.754 430.959C599.871 404.643 601.166 376.277 600.608 349.752C600.505 344.848 600.431 315.511 600.973 313.015Z" fill="#FEFEFE"/>
<path d="M603.813 275.444C607.562 275.253 621.525 274.483 624.655 276.474C627.092 278.025 627.401 286.485 627.122 289.387C626.664 294.164 627.696 297.441 624.045 300.933C620.89 301.714 603.76 302.699 601.893 299.398C599.537 295.235 600.341 285.434 600.778 280.507C601.015 277.83 601.819 277 603.813 275.444Z" fill="#FEFEFE"/>
<path d="M599.582 113.203H717.581V141.56H599.582V113.203Z" fill="#FEFEFE"/>
<mask id="mask0_810_1118" style="mask-type:luminance" maskUnits="userSpaceOnUse" x="599" y="64" width="566" height="371">
<path d="M792.654 109.489C797.848 108.865 803.09 108.833 808.291 109.396C853.19 113.972 873.388 150.051 868.905 192.418C834.011 193.477 795.177 192.482 759.907 192.634C760.569 195.877 761.301 198.496 762.709 201.477C767.478 211.564 776.088 219.321 786.616 223.019C800.246 227.843 817.306 226.159 829.179 217.623C832.17 215.474 838.096 209.187 840.829 208.12C846.867 212.662 855.226 220.339 861.145 225.453C837.009 256.549 787.188 261.797 756.442 238C741.829 226.496 732.389 209.66 730.192 191.195C724.915 149.374 750.104 114.213 792.654 109.489ZM759.488 168.598C774.394 168.745 789.3 168.766 804.199 168.662C816.205 168.747 828.21 168.724 840.209 168.595C836.388 155.789 832.4 148.267 820.144 141.21C814.552 137.992 803.585 135.403 797.325 136.799C776.639 138.733 765.721 149.423 759.488 168.598Z" fill="white"/>
<path d="M1034.07 64.9195C1043.77 64.7503 1053.83 64.8965 1063.56 64.9072C1064.25 76.9004 1063.52 91.3677 1063.77 103.596C1063.89 109.327 1064.1 125.595 1063.25 130.281C1065.15 128.19 1067.16 125.941 1069.21 124.083C1094.21 101.514 1142.15 107.439 1157.39 138.866C1159.69 143.683 1161.99 149.418 1162.91 154.707C1166 172.633 1164.71 191.779 1164.82 210.012C1164.89 222.99 1165.31 237.449 1164.49 250.277L1135.31 250.384C1134.69 230.168 1135.1 208.177 1135.1 187.831C1135.22 173.891 1135.7 160.499 1125.57 149.238C1118.93 142.091 1110.42 138.946 1100.89 138.673C1084.72 137.941 1069.53 148.662 1065.48 164.46C1062.69 175.329 1063.8 189.33 1063.66 200.664C1063.45 217.153 1063.99 233.719 1063.63 250.23C1054.09 250.546 1043.83 250.397 1034.28 250.335C1033.57 228.129 1034.03 203.62 1034.03 181.237L1034.07 64.9195Z" fill="white"/>
<path d="M985.754 306.096C986.89 305.956 988.033 305.876 989.184 305.856C1002.53 305.71 1017.05 310.634 1026.62 320.274C1043.77 337.574 1041.28 361.573 1041.28 384.072L1041.26 430.948L1015.01 430.978C1014.31 415.189 1015.05 399.08 1014.8 383.266C1014.62 372.575 1015.96 359.998 1012 349.927C1009.19 342.542 1003.48 336.624 996.204 333.532C986.771 329.48 977.917 330.525 968.672 334.253C947.025 345.704 950.511 369.113 950.518 390.115V430.953L924.38 430.973C923.46 418.416 924.052 397.494 924.059 384.341C923.983 358.992 924.039 333.647 924.248 308.303C932.976 308.222 941.712 308.227 950.448 308.307C950.553 313.78 950.573 318.333 950.336 323.826L950.978 323.056C960.425 311.759 971.315 307.357 985.754 306.096Z" fill="white"/>
<path d="M1103.25 306.562C1125.79 304.981 1143.69 308.878 1162.1 321.871C1157.99 328.454 1153.79 334.968 1149.48 341.417C1134.53 332.532 1124.86 328.355 1106.76 329.315C1101.74 329.24 1091.18 331.762 1088.42 336.37C1077.66 354.7 1102.86 356.876 1114.76 357.592C1136.42 358.892 1163.17 364.201 1164.78 390.731C1166.76 423.09 1140.56 431.585 1113.76 432.915C1093.74 433.325 1071.61 428.147 1055.95 415.115C1059.64 408.716 1064.92 401.032 1069.16 394.933C1084.81 405.549 1097.72 410.918 1117.19 409.792C1126.79 409.237 1141.09 405.845 1139 393.453C1136.45 378.443 1107.45 381.856 1096.38 379.33C1087.35 377.268 1079.96 376.433 1072.39 370.579C1057.93 360.094 1056.84 336.375 1067.48 322.821C1075.91 312.105 1090.19 308.128 1103.25 306.562Z" fill="white"/>
<path d="M702.813 305.051C727.668 302.039 750.327 311.485 764.989 331.761C758.54 336.774 751.038 342.012 744.38 346.88C743.013 345.269 741.521 343.533 740.092 341.987C732.974 334.273 723.053 329.745 712.56 329.425C702.297 329.14 692.349 332.982 684.944 340.091C659.821 364.325 676.697 409.076 712.4 408.166C724.74 407.851 732.36 403.938 740.908 395.178L744.512 391.376C749.009 393.908 761.049 402.912 765.226 406.315C764.772 407.035 764.305 407.736 763.81 408.426C744.157 436.307 699.878 440.299 673.016 420.848C659.259 410.918 650.045 395.899 647.43 379.133C644.595 361.578 648.985 343.623 659.599 329.355C670.338 314.867 685.3 307.652 702.813 305.051Z" fill="white"/>
<path d="M950.684 109.483C962.571 108.267 974.584 109.786 985.788 113.923C996.873 118.029 1013.08 128.789 1018.03 139.656C1010.6 144.703 1002.58 150.801 995.262 156.124C984.749 144.282 975.239 136.697 958.5 136.765C946.906 136.728 935.792 141.392 927.698 149.691C910.861 167.172 911.586 197.146 929.476 213.655C938.023 221.552 949.402 225.648 961.024 225.009C973.224 224.42 983.557 219.177 991.651 210.137C992.892 208.486 993.199 207.848 994.998 206.777C997.919 206.726 1015.1 220.106 1018.58 222.669C997.145 256.812 944.235 261.842 913.427 237.602C898.43 225.893 888.746 208.679 886.515 189.791C881.76 147.418 908.442 114.304 950.684 109.483Z" fill="white"/>
<path d="M641.159 79.4116L670.354 79.4639C670.883 86.7495 670.835 106.06 670.256 113.132L717.504 113.153C717.574 121.951 717.888 132.352 717.358 141.002C702.445 141.608 685.915 140.966 670.667 141.232C670.291 153.958 671.03 168.038 670.437 180.468C669.119 207.995 670.514 233.105 706.998 222.716C709.863 221.715 713.635 220.027 716.521 218.827C719.484 226.971 723.674 234.999 726.289 243.212C715.245 249.456 702.759 252.684 690.077 252.572C661.848 252.55 643.291 236.836 641.51 207.932C640.602 193.183 641.034 178.187 641.023 163.398L641.159 79.4116Z" fill="white"/>
<path d="M600.973 313.015C609.512 313.135 618.143 312.99 626.72 313.08C627.5 323.531 626.966 340.521 626.966 351.488L627.003 429.833L626.709 430.358C625.113 431.469 604.307 430.973 600.754 430.959C599.871 404.643 601.166 376.277 600.608 349.752C600.505 344.848 600.431 315.511 600.973 313.015Z" fill="white"/>
<path d="M603.813 275.444C607.562 275.253 621.525 274.483 624.655 276.474C627.092 278.025 627.401 286.485 627.122 289.387C626.664 294.164 627.696 297.441 624.045 300.933C620.89 301.714 603.76 302.699 601.893 299.398C599.537 295.235 600.341 285.434 600.778 280.507C601.015 277.83 601.819 277 603.813 275.444Z" fill="white"/>
<path d="M599.582 113.203H717.581V141.56H599.582V113.203Z" fill="white"/>
<path d="M908.762 367.499C908.762 404.378 878.867 434.275 841.986 434.275C805.104 434.275 775.209 404.378 775.209 367.499C775.209 330.62 805.104 300.724 841.986 300.724C878.867 300.724 908.762 330.62 908.762 367.499Z" fill="white"/>
</mask>
<g mask="url(#mask0_810_1118)">
<path d="M792.654 109.489C797.848 108.865 803.09 108.833 808.291 109.396C853.19 113.972 873.388 150.051 868.905 192.418C834.011 193.477 795.177 192.482 759.907 192.634C760.569 195.877 761.301 198.496 762.709 201.477C767.478 211.564 776.088 219.321 786.616 223.019C800.246 227.843 817.306 226.159 829.179 217.623C832.17 215.474 838.096 209.187 840.829 208.12C846.867 212.662 855.226 220.339 861.145 225.453C837.009 256.549 787.188 261.797 756.442 238C741.829 226.496 732.389 209.66 730.192 191.195C724.915 149.374 750.104 114.213 792.654 109.489ZM759.488 168.598C774.394 168.745 789.3 168.766 804.199 168.662C816.205 168.747 828.21 168.724 840.209 168.595C836.388 155.789 832.4 148.267 820.144 141.21C814.552 137.992 803.585 135.403 797.325 136.799C776.639 138.733 765.721 149.423 759.488 168.598Z" stroke="#FEFEFE" stroke-width="54.8841"/>
</g>
<mask id="mask1_810_1118" style="mask-type:luminance" maskUnits="userSpaceOnUse" x="599" y="64" width="566" height="371">
<path d="M792.654 109.489C797.848 108.865 803.09 108.833 808.291 109.396C853.19 113.972 873.388 150.051 868.905 192.418C834.011 193.477 795.177 192.482 759.907 192.634C760.569 195.877 761.301 198.496 762.709 201.477C767.478 211.564 776.088 219.321 786.616 223.019C800.246 227.843 817.306 226.159 829.179 217.623C832.17 215.474 838.096 209.187 840.829 208.12C846.867 212.662 855.226 220.339 861.145 225.453C837.009 256.549 787.188 261.797 756.442 238C741.829 226.496 732.389 209.66 730.192 191.195C724.915 149.374 750.104 114.213 792.654 109.489ZM759.488 168.598C774.394 168.745 789.3 168.766 804.199 168.662C816.205 168.747 828.21 168.724 840.209 168.595C836.388 155.789 832.4 148.267 820.144 141.21C814.552 137.992 803.585 135.403 797.325 136.799C776.639 138.733 765.721 149.423 759.488 168.598Z" fill="white"/>
<path d="M1034.07 64.9195C1043.77 64.7503 1053.83 64.8965 1063.56 64.9072C1064.25 76.9004 1063.52 91.3677 1063.77 103.596C1063.89 109.327 1064.1 125.595 1063.25 130.281C1065.15 128.19 1067.16 125.941 1069.21 124.083C1094.21 101.514 1142.15 107.439 1157.39 138.866C1159.69 143.683 1161.99 149.418 1162.91 154.707C1166 172.633 1164.71 191.779 1164.82 210.012C1164.89 222.99 1165.31 237.449 1164.49 250.277L1135.31 250.384C1134.69 230.168 1135.1 208.177 1135.1 187.831C1135.22 173.891 1135.7 160.499 1125.57 149.238C1118.93 142.091 1110.42 138.946 1100.89 138.673C1084.72 137.941 1069.53 148.662 1065.48 164.46C1062.69 175.329 1063.8 189.33 1063.66 200.664C1063.45 217.153 1063.99 233.719 1063.63 250.23C1054.09 250.546 1043.83 250.397 1034.28 250.335C1033.57 228.129 1034.03 203.62 1034.03 181.237L1034.07 64.9195Z" fill="white"/>
<path d="M985.754 306.096C986.89 305.956 988.033 305.876 989.184 305.856C1002.53 305.71 1017.05 310.634 1026.62 320.274C1043.77 337.574 1041.28 361.573 1041.28 384.072L1041.26 430.948L1015.01 430.978C1014.31 415.189 1015.05 399.08 1014.8 383.266C1014.62 372.575 1015.96 359.998 1012 349.927C1009.19 342.542 1003.48 336.624 996.204 333.532C986.771 329.48 977.917 330.525 968.672 334.253C947.025 345.704 950.511 369.113 950.518 390.115V430.953L924.38 430.973C923.46 418.416 924.052 397.494 924.059 384.341C923.983 358.992 924.039 333.647 924.248 308.303C932.976 308.222 941.712 308.227 950.448 308.307C950.553 313.78 950.573 318.333 950.336 323.826L950.978 323.056C960.425 311.759 971.315 307.357 985.754 306.096Z" fill="white"/>
<path d="M1103.25 306.562C1125.79 304.981 1143.69 308.878 1162.1 321.871C1157.99 328.454 1153.79 334.968 1149.48 341.417C1134.53 332.532 1124.86 328.355 1106.76 329.315C1101.74 329.24 1091.18 331.762 1088.42 336.37C1077.66 354.7 1102.86 356.876 1114.76 357.592C1136.42 358.892 1163.17 364.201 1164.78 390.731C1166.76 423.09 1140.56 431.585 1113.76 432.915C1093.74 433.325 1071.61 428.147 1055.95 415.115C1059.64 408.716 1064.92 401.032 1069.16 394.933C1084.81 405.549 1097.72 410.918 1117.19 409.792C1126.79 409.237 1141.09 405.845 1139 393.453C1136.45 378.443 1107.45 381.856 1096.38 379.33C1087.35 377.268 1079.96 376.433 1072.39 370.579C1057.93 360.094 1056.84 336.375 1067.48 322.821C1075.91 312.105 1090.19 308.128 1103.25 306.562Z" fill="white"/>
<path d="M702.813 305.051C727.668 302.039 750.327 311.485 764.989 331.761C758.54 336.774 751.038 342.012 744.38 346.88C743.013 345.269 741.521 343.533 740.092 341.987C732.974 334.273 723.053 329.745 712.56 329.425C702.297 329.14 692.349 332.982 684.944 340.091C659.821 364.325 676.697 409.076 712.4 408.166C724.74 407.851 732.36 403.938 740.908 395.178L744.512 391.376C749.009 393.908 761.049 402.912 765.226 406.315C764.772 407.035 764.305 407.736 763.81 408.426C744.157 436.307 699.878 440.299 673.016 420.848C659.259 410.918 650.045 395.899 647.43 379.133C644.595 361.578 648.985 343.623 659.599 329.355C670.338 314.867 685.3 307.652 702.813 305.051Z" fill="white"/>
<path d="M950.684 109.483C962.571 108.267 974.584 109.786 985.788 113.923C996.873 118.029 1013.08 128.789 1018.03 139.656C1010.6 144.703 1002.58 150.801 995.262 156.124C984.749 144.282 975.239 136.697 958.5 136.765C946.906 136.728 935.792 141.392 927.698 149.691C910.861 167.172 911.586 197.146 929.476 213.655C938.023 221.552 949.402 225.648 961.024 225.009C973.224 224.42 983.557 219.177 991.651 210.137C992.892 208.486 993.199 207.848 994.998 206.777C997.919 206.726 1015.1 220.106 1018.58 222.669C997.145 256.812 944.235 261.842 913.427 237.602C898.43 225.893 888.746 208.679 886.515 189.791C881.76 147.418 908.442 114.304 950.684 109.483Z" fill="white"/>
<path d="M641.159 79.4116L670.354 79.4639C670.883 86.7495 670.835 106.06 670.256 113.132L717.504 113.153C717.574 121.951 717.888 132.352 717.358 141.002C702.445 141.608 685.915 140.966 670.667 141.232C670.291 153.958 671.03 168.038 670.437 180.468C669.119 207.995 670.514 233.105 706.998 222.716C709.863 221.715 713.635 220.027 716.521 218.827C719.484 226.971 723.674 234.999 726.289 243.212C715.245 249.456 702.759 252.684 690.077 252.572C661.848 252.55 643.291 236.836 641.51 207.932C640.602 193.183 641.034 178.187 641.023 163.398L641.159 79.4116Z" fill="white"/>
<path d="M600.973 313.015C609.512 313.135 618.143 312.99 626.72 313.08C627.5 323.531 626.966 340.521 626.966 351.488L627.003 429.833L626.709 430.358C625.113 431.469 604.307 430.973 600.754 430.959C599.871 404.643 601.166 376.277 600.608 349.752C600.505 344.848 600.431 315.511 600.973 313.015Z" fill="white"/>
<path d="M603.813 275.444C607.562 275.253 621.525 274.483 624.655 276.474C627.092 278.025 627.401 286.485 627.122 289.387C626.664 294.164 627.696 297.441 624.045 300.933C620.89 301.714 603.76 302.699 601.893 299.398C599.537 295.235 600.341 285.434 600.778 280.507C601.015 277.83 601.819 277 603.813 275.444Z" fill="white"/>
<path d="M599.582 113.203H717.581V141.56H599.582V113.203Z" fill="white"/>
<path d="M908.762 367.499C908.762 404.378 878.867 434.275 841.986 434.275C805.104 434.275 775.209 404.378 775.209 367.499C775.209 330.62 805.104 300.724 841.986 300.724C878.867 300.724 908.762 330.62 908.762 367.499Z" fill="white"/>
</mask>
<g mask="url(#mask1_810_1118)">
<path d="M1034.07 64.9195C1043.77 64.7503 1053.83 64.8965 1063.56 64.9072C1064.25 76.9004 1063.52 91.3677 1063.77 103.596C1063.89 109.327 1064.1 125.595 1063.25 130.281C1065.15 128.19 1067.16 125.941 1069.21 124.083C1094.21 101.514 1142.15 107.439 1157.39 138.866C1159.69 143.683 1161.99 149.418 1162.91 154.707C1166 172.633 1164.71 191.779 1164.82 210.012C1164.89 222.99 1165.31 237.449 1164.49 250.277L1135.31 250.384C1134.69 230.168 1135.1 208.177 1135.1 187.831C1135.22 173.891 1135.7 160.499 1125.57 149.238C1118.93 142.091 1110.42 138.946 1100.89 138.673C1084.72 137.941 1069.53 148.662 1065.48 164.46C1062.69 175.329 1063.8 189.33 1063.66 200.664C1063.45 217.153 1063.99 233.719 1063.63 250.23C1054.09 250.546 1043.83 250.397 1034.28 250.335C1033.57 228.129 1034.03 203.62 1034.03 181.237L1034.07 64.9195Z" stroke="#FEFEFE" stroke-width="54.8841"/>
</g>
<mask id="mask2_810_1118" style="mask-type:luminance" maskUnits="userSpaceOnUse" x="599" y="64" width="566" height="371">
<path d="M792.654 109.489C797.848 108.865 803.09 108.833 808.291 109.396C853.19 113.972 873.388 150.051 868.905 192.418C834.011 193.477 795.177 192.482 759.907 192.634C760.569 195.877 761.301 198.496 762.709 201.477C767.478 211.564 776.088 219.321 786.616 223.019C800.246 227.843 817.306 226.159 829.179 217.623C832.17 215.474 838.096 209.187 840.829 208.12C846.867 212.662 855.226 220.339 861.145 225.453C837.009 256.549 787.188 261.797 756.442 238C741.829 226.496 732.389 209.66 730.192 191.195C724.915 149.374 750.104 114.213 792.654 109.489ZM759.488 168.598C774.394 168.745 789.3 168.766 804.199 168.662C816.205 168.747 828.21 168.724 840.209 168.595C836.388 155.789 832.4 148.267 820.144 141.21C814.552 137.992 803.585 135.403 797.325 136.799C776.639 138.733 765.721 149.423 759.488 168.598Z" fill="white"/>
<path d="M1034.07 64.9195C1043.77 64.7503 1053.83 64.8965 1063.56 64.9072C1064.25 76.9004 1063.52 91.3677 1063.77 103.596C1063.89 109.327 1064.1 125.595 1063.25 130.281C1065.15 128.19 1067.16 125.941 1069.21 124.083C1094.21 101.514 1142.15 107.439 1157.39 138.866C1159.69 143.683 1161.99 149.418 1162.91 154.707C1166 172.633 1164.71 191.779 1164.82 210.012C1164.89 222.99 1165.31 237.449 1164.49 250.277L1135.31 250.384C1134.69 230.168 1135.1 208.177 1135.1 187.831C1135.22 173.891 1135.7 160.499 1125.57 149.238C1118.93 142.091 1110.42 138.946 1100.89 138.673C1084.72 137.941 1069.53 148.662 1065.48 164.46C1062.69 175.329 1063.8 189.33 1063.66 200.664C1063.45 217.153 1063.99 233.719 1063.63 250.23C1054.09 250.546 1043.83 250.397 1034.28 250.335C1033.57 228.129 1034.03 203.62 1034.03 181.237L1034.07 64.9195Z" fill="white"/>
<path d="M985.754 306.096C986.89 305.956 988.033 305.876 989.184 305.856C1002.53 305.71 1017.05 310.634 1026.62 320.274C1043.77 337.574 1041.28 361.573 1041.28 384.072L1041.26 430.948L1015.01 430.978C1014.31 415.189 1015.05 399.08 1014.8 383.266C1014.62 372.575 1015.96 359.998 1012 349.927C1009.19 342.542 1003.48 336.624 996.204 333.532C986.771 329.48 977.917 330.525 968.672 334.253C947.025 345.704 950.511 369.113 950.518 390.115V430.953L924.38 430.973C923.46 418.416 924.052 397.494 924.059 384.341C923.983 358.992 924.039 333.647 924.248 308.303C932.976 308.222 941.712 308.227 950.448 308.307C950.553 313.78 950.573 318.333 950.336 323.826L950.978 323.056C960.425 311.759 971.315 307.357 985.754 306.096Z" fill="white"/>
<path d="M1103.25 306.562C1125.79 304.981 1143.69 308.878 1162.1 321.871C1157.99 328.454 1153.79 334.968 1149.48 341.417C1134.53 332.532 1124.86 328.355 1106.76 329.315C1101.74 329.24 1091.18 331.762 1088.42 336.37C1077.66 354.7 1102.86 356.876 1114.76 357.592C1136.42 358.892 1163.17 364.201 1164.78 390.731C1166.76 423.09 1140.56 431.585 1113.76 432.915C1093.74 433.325 1071.61 428.147 1055.95 415.115C1059.64 408.716 1064.92 401.032 1069.16 394.933C1084.81 405.549 1097.72 410.918 1117.19 409.792C1126.79 409.237 1141.09 405.845 1139 393.453C1136.45 378.443 1107.45 381.856 1096.38 379.33C1087.35 377.268 1079.96 376.433 1072.39 370.579C1057.93 360.094 1056.84 336.375 1067.48 322.821C1075.91 312.105 1090.19 308.128 1103.25 306.562Z" fill="white"/>
<path d="M702.813 305.051C727.668 302.039 750.327 311.485 764.989 331.761C758.54 336.774 751.038 342.012 744.38 346.88C743.013 345.269 741.521 343.533 740.092 341.987C732.974 334.273 723.053 329.745 712.56 329.425C702.297 329.14 692.349 332.982 684.944 340.091C659.821 364.325 676.697 409.076 712.4 408.166C724.74 407.851 732.36 403.938 740.908 395.178L744.512 391.376C749.009 393.908 761.049 402.912 765.226 406.315C764.772 407.035 764.305 407.736 763.81 408.426C744.157 436.307 699.878 440.299 673.016 420.848C659.259 410.918 650.045 395.899 647.43 379.133C644.595 361.578 648.985 343.623 659.599 329.355C670.338 314.867 685.3 307.652 702.813 305.051Z" fill="white"/>
<path d="M950.684 109.483C962.571 108.267 974.584 109.786 985.788 113.923C996.873 118.029 1013.08 128.789 1018.03 139.656C1010.6 144.703 1002.58 150.801 995.262 156.124C984.749 144.282 975.239 136.697 958.5 136.765C946.906 136.728 935.792 141.392 927.698 149.691C910.861 167.172 911.586 197.146 929.476 213.655C938.023 221.552 949.402 225.648 961.024 225.009C973.224 224.42 983.557 219.177 991.651 210.137C992.892 208.486 993.199 207.848 994.998 206.777C997.919 206.726 1015.1 220.106 1018.58 222.669C997.145 256.812 944.235 261.842 913.427 237.602C898.43 225.893 888.746 208.679 886.515 189.791C881.76 147.418 908.442 114.304 950.684 109.483Z" fill="white"/>
<path d="M641.159 79.4116L670.354 79.4639C670.883 86.7495 670.835 106.06 670.256 113.132L717.504 113.153C717.574 121.951 717.888 132.352 717.358 141.002C702.445 141.608 685.915 140.966 670.667 141.232C670.291 153.958 671.03 168.038 670.437 180.468C669.119 207.995 670.514 233.105 706.998 222.716C709.863 221.715 713.635 220.027 716.521 218.827C719.484 226.971 723.674 234.999 726.289 243.212C715.245 249.456 702.759 252.684 690.077 252.572C661.848 252.55 643.291 236.836 641.51 207.932C640.602 193.183 641.034 178.187 641.023 163.398L641.159 79.4116Z" fill="white"/>
<path d="M600.973 313.015C609.512 313.135 618.143 312.99 626.72 313.08C627.5 323.531 626.966 340.521 626.966 351.488L627.003 429.833L626.709 430.358C625.113 431.469 604.307 430.973 600.754 430.959C599.871 404.643 601.166 376.277 600.608 349.752C600.505 344.848 600.431 315.511 600.973 313.015Z" fill="white"/>
<path d="M603.813 275.444C607.562 275.253 621.525 274.483 624.655 276.474C627.092 278.025 627.401 286.485 627.122 289.387C626.664 294.164 627.696 297.441 624.045 300.933C620.89 301.714 603.76 302.699 601.893 299.398C599.537 295.235 600.341 285.434 600.778 280.507C601.015 277.83 601.819 277 603.813 275.444Z" fill="white"/>
<path d="M599.582 113.203H717.581V141.56H599.582V113.203Z" fill="white"/>
<path d="M908.762 367.499C908.762 404.378 878.867 434.275 841.986 434.275C805.104 434.275 775.209 404.378 775.209 367.499C775.209 330.62 805.104 300.724 841.986 300.724C878.867 300.724 908.762 330.62 908.762 367.499Z" fill="white"/>
</mask>
<g mask="url(#mask2_810_1118)">
<path d="M985.754 306.096C986.89 305.956 988.033 305.876 989.184 305.856C1002.53 305.71 1017.05 310.634 1026.62 320.274C1043.77 337.574 1041.28 361.573 1041.28 384.072L1041.26 430.948L1015.01 430.978C1014.31 415.189 1015.05 399.08 1014.8 383.266C1014.62 372.575 1015.96 359.998 1012 349.927C1009.19 342.542 1003.48 336.624 996.204 333.532C986.771 329.48 977.917 330.525 968.672 334.253C947.025 345.704 950.511 369.113 950.518 390.115V430.953L924.38 430.973C923.46 418.416 924.052 397.494 924.059 384.341C923.983 358.992 924.039 333.647 924.248 308.303C932.976 308.222 941.712 308.227 950.448 308.307C950.553 313.78 950.573 318.333 950.336 323.826L950.978 323.056C960.425 311.759 971.315 307.357 985.754 306.096Z" stroke="#FEFEFE" stroke-width="54.8841"/>
</g>
<mask id="mask3_810_1118" style="mask-type:luminance" maskUnits="userSpaceOnUse" x="599" y="64" width="566" height="371">
<path d="M792.654 109.489C797.848 108.865 803.09 108.833 808.291 109.396C853.19 113.972 873.388 150.051 868.905 192.418C834.011 193.477 795.177 192.482 759.907 192.634C760.569 195.877 761.301 198.496 762.709 201.477C767.478 211.564 776.088 219.321 786.616 223.019C800.246 227.843 817.306 226.159 829.179 217.623C832.17 215.474 838.096 209.187 840.829 208.12C846.867 212.662 855.226 220.339 861.145 225.453C837.009 256.549 787.188 261.797 756.442 238C741.829 226.496 732.389 209.66 730.192 191.195C724.915 149.374 750.104 114.213 792.654 109.489ZM759.488 168.598C774.394 168.745 789.3 168.766 804.199 168.662C816.205 168.747 828.21 168.724 840.209 168.595C836.388 155.789 832.4 148.267 820.144 141.21C814.552 137.992 803.585 135.403 797.325 136.799C776.639 138.733 765.721 149.423 759.488 168.598Z" fill="white"/>
<path d="M1034.07 64.9195C1043.77 64.7503 1053.83 64.8965 1063.56 64.9072C1064.25 76.9004 1063.52 91.3677 1063.77 103.596C1063.89 109.327 1064.1 125.595 1063.25 130.281C1065.15 128.19 1067.16 125.941 1069.21 124.083C1094.21 101.514 1142.15 107.439 1157.39 138.866C1159.69 143.683 1161.99 149.418 1162.91 154.707C1166 172.633 1164.71 191.779 1164.82 210.012C1164.89 222.99 1165.31 237.449 1164.49 250.277L1135.31 250.384C1134.69 230.168 1135.1 208.177 1135.1 187.831C1135.22 173.891 1135.7 160.499 1125.57 149.238C1118.93 142.091 1110.42 138.946 1100.89 138.673C1084.72 137.941 1069.53 148.662 1065.48 164.46C1062.69 175.329 1063.8 189.33 1063.66 200.664C1063.45 217.153 1063.99 233.719 1063.63 250.23C1054.09 250.546 1043.83 250.397 1034.28 250.335C1033.57 228.129 1034.03 203.62 1034.03 181.237L1034.07 64.9195Z" fill="white"/>
<path d="M985.754 306.096C986.89 305.956 988.033 305.876 989.184 305.856C1002.53 305.71 1017.05 310.634 1026.62 320.274C1043.77 337.574 1041.28 361.573 1041.28 384.072L1041.26 430.948L1015.01 430.978C1014.31 415.189 1015.05 399.08 1014.8 383.266C1014.62 372.575 1015.96 359.998 1012 349.927C1009.19 342.542 1003.48 336.624 996.204 333.532C986.771 329.48 977.917 330.525 968.672 334.253C947.025 345.704 950.511 369.113 950.518 390.115V430.953L924.38 430.973C923.46 418.416 924.052 397.494 924.059 384.341C923.983 358.992 924.039 333.647 924.248 308.303C932.976 308.222 941.712 308.227 950.448 308.307C950.553 313.78 950.573 318.333 950.336 323.826L950.978 323.056C960.425 311.759 971.315 307.357 985.754 306.096Z" fill="white"/>
<path d="M1103.25 306.562C1125.79 304.981 1143.69 308.878 1162.1 321.871C1157.99 328.454 1153.79 334.968 1149.48 341.417C1134.53 332.532 1124.86 328.355 1106.76 329.315C1101.74 329.24 1091.18 331.762 1088.42 336.37C1077.66 354.7 1102.86 356.876 1114.76 357.592C1136.42 358.892 1163.17 364.201 1164.78 390.731C1166.76 423.09 1140.56 431.585 1113.76 432.915C1093.74 433.325 1071.61 428.147 1055.95 415.115C1059.64 408.716 1064.92 401.032 1069.16 394.933C1084.81 405.549 1097.72 410.918 1117.19 409.792C1126.79 409.237 1141.09 405.845 1139 393.453C1136.45 378.443 1107.45 381.856 1096.38 379.33C1087.35 377.268 1079.96 376.433 1072.39 370.579C1057.93 360.094 1056.84 336.375 1067.48 322.821C1075.91 312.105 1090.19 308.128 1103.25 306.562Z" fill="white"/>
<path d="M702.813 305.051C727.668 302.039 750.327 311.485 764.989 331.761C758.54 336.774 751.038 342.012 744.38 346.88C743.013 345.269 741.521 343.533 740.092 341.987C732.974 334.273 723.053 329.745 712.56 329.425C702.297 329.14 692.349 332.982 684.944 340.091C659.821 364.325 676.697 409.076 712.4 408.166C724.74 407.851 732.36 403.938 740.908 395.178L744.512 391.376C749.009 393.908 761.049 402.912 765.226 406.315C764.772 407.035 764.305 407.736 763.81 408.426C744.157 436.307 699.878 440.299 673.016 420.848C659.259 410.918 650.045 395.899 647.43 379.133C644.595 361.578 648.985 343.623 659.599 329.355C670.338 314.867 685.3 307.652 702.813 305.051Z" fill="white"/>
<path d="M950.684 109.483C962.571 108.267 974.584 109.786 985.788 113.923C996.873 118.029 1013.08 128.789 1018.03 139.656C1010.6 144.703 1002.58 150.801 995.262 156.124C984.749 144.282 975.239 136.697 958.5 136.765C946.906 136.728 935.792 141.392 927.698 149.691C910.861 167.172 911.586 197.146 929.476 213.655C938.023 221.552 949.402 225.648 961.024 225.009C973.224 224.42 983.557 219.177 991.651 210.137C992.892 208.486 993.199 207.848 994.998 206.777C997.919 206.726 1015.1 220.106 1018.58 222.669C997.145 256.812 944.235 261.842 913.427 237.602C898.43 225.893 888.746 208.679 886.515 189.791C881.76 147.418 908.442 114.304 950.684 109.483Z" fill="white"/>
<path d="M641.159 79.4116L670.354 79.4639C670.883 86.7495 670.835 106.06 670.256 113.132L717.504 113.153C717.574 121.951 717.888 132.352 717.358 141.002C702.445 141.608 685.915 140.966 670.667 141.232C670.291 153.958 671.03 168.038 670.437 180.468C669.119 207.995 670.514 233.105 706.998 222.716C709.863 221.715 713.635 220.027 716.521 218.827C719.484 226.971 723.674 234.999 726.289 243.212C715.245 249.456 702.759 252.684 690.077 252.572C661.848 252.55 643.291 236.836 641.51 207.932C640.602 193.183 641.034 178.187 641.023 163.398L641.159 79.4116Z" fill="white"/>
<path d="M600.973 313.015C609.512 313.135 618.143 312.99 626.72 313.08C627.5 323.531 626.966 340.521 626.966 351.488L627.003 429.833L626.709 430.358C625.113 431.469 604.307 430.973 600.754 430.959C599.871 404.643 601.166 376.277 600.608 349.752C600.505 344.848 600.431 315.511 600.973 313.015Z" fill="white"/>
<path d="M603.813 275.444C607.562 275.253 621.525 274.483 624.655 276.474C627.092 278.025 627.401 286.485 627.122 289.387C626.664 294.164 627.696 297.441 624.045 300.933C620.89 301.714 603.76 302.699 601.893 299.398C599.537 295.235 600.341 285.434 600.778 280.507C601.015 277.83 601.819 277 603.813 275.444Z" fill="white"/>
<path d="M599.582 113.203H717.581V141.56H599.582V113.203Z" fill="white"/>
<path d="M908.762 367.499C908.762 404.378 878.867 434.275 841.986 434.275C805.104 434.275 775.209 404.378 775.209 367.499C775.209 330.62 805.104 300.724 841.986 300.724C878.867 300.724 908.762 330.62 908.762 367.499Z" fill="white"/>
</mask>
<g mask="url(#mask3_810_1118)">
<path d="M1103.25 306.562C1125.79 304.981 1143.69 308.878 1162.1 321.871C1157.99 328.454 1153.79 334.968 1149.48 341.417C1134.53 332.532 1124.86 328.355 1106.76 329.315C1101.74 329.24 1091.18 331.762 1088.42 336.37C1077.66 354.7 1102.86 356.876 1114.76 357.592C1136.42 358.892 1163.17 364.201 1164.78 390.731C1166.76 423.09 1140.56 431.585 1113.76 432.915C1093.74 433.325 1071.61 428.147 1055.95 415.115C1059.64 408.716 1064.92 401.032 1069.16 394.933C1084.81 405.549 1097.72 410.918 1117.19 409.792C1126.79 409.237 1141.09 405.845 1139 393.453C1136.45 378.443 1107.45 381.856 1096.38 379.33C1087.35 377.268 1079.96 376.433 1072.39 370.579C1057.93 360.094 1056.84 336.375 1067.48 322.821C1075.91 312.105 1090.19 308.128 1103.25 306.562Z" stroke="#FEFEFE" stroke-width="54.8841"/>
</g>
<mask id="mask4_810_1118" style="mask-type:luminance" maskUnits="userSpaceOnUse" x="599" y="64" width="566" height="371">
<path d="M792.654 109.489C797.848 108.865 803.09 108.833 808.291 109.396C853.19 113.972 873.388 150.051 868.905 192.418C834.011 193.477 795.177 192.482 759.907 192.634C760.569 195.877 761.301 198.496 762.709 201.477C767.478 211.564 776.088 219.321 786.616 223.019C800.246 227.843 817.306 226.159 829.179 217.623C832.17 215.474 838.096 209.187 840.829 208.12C846.867 212.662 855.226 220.339 861.145 225.453C837.009 256.549 787.188 261.797 756.442 238C741.829 226.496 732.389 209.66 730.192 191.195C724.915 149.374 750.104 114.213 792.654 109.489ZM759.488 168.598C774.394 168.745 789.3 168.766 804.199 168.662C816.205 168.747 828.21 168.724 840.209 168.595C836.388 155.789 832.4 148.267 820.144 141.21C814.552 137.992 803.585 135.403 797.325 136.799C776.639 138.733 765.721 149.423 759.488 168.598Z" fill="white"/>
<path d="M1034.07 64.9195C1043.77 64.7503 1053.83 64.8965 1063.56 64.9072C1064.25 76.9004 1063.52 91.3677 1063.77 103.596C1063.89 109.327 1064.1 125.595 1063.25 130.281C1065.15 128.19 1067.16 125.941 1069.21 124.083C1094.21 101.514 1142.15 107.439 1157.39 138.866C1159.69 143.683 1161.99 149.418 1162.91 154.707C1166 172.633 1164.71 191.779 1164.82 210.012C1164.89 222.99 1165.31 237.449 1164.49 250.277L1135.31 250.384C1134.69 230.168 1135.1 208.177 1135.1 187.831C1135.22 173.891 1135.7 160.499 1125.57 149.238C1118.93 142.091 1110.42 138.946 1100.89 138.673C1084.72 137.941 1069.53 148.662 1065.48 164.46C1062.69 175.329 1063.8 189.33 1063.66 200.664C1063.45 217.153 1063.99 233.719 1063.63 250.23C1054.09 250.546 1043.83 250.397 1034.28 250.335C1033.57 228.129 1034.03 203.62 1034.03 181.237L1034.07 64.9195Z" fill="white"/>
<path d="M985.754 306.096C986.89 305.956 988.033 305.876 989.184 305.856C1002.53 305.71 1017.05 310.634 1026.62 320.274C1043.77 337.574 1041.28 361.573 1041.28 384.072L1041.26 430.948L1015.01 430.978C1014.31 415.189 1015.05 399.08 1014.8 383.266C1014.62 372.575 1015.96 359.998 1012 349.927C1009.19 342.542 1003.48 336.624 996.204 333.532C986.771 329.48 977.917 330.525 968.672 334.253C947.025 345.704 950.511 369.113 950.518 390.115V430.953L924.38 430.973C923.46 418.416 924.052 397.494 924.059 384.341C923.983 358.992 924.039 333.647 924.248 308.303C932.976 308.222 941.712 308.227 950.448 308.307C950.553 313.78 950.573 318.333 950.336 323.826L950.978 323.056C960.425 311.759 971.315 307.357 985.754 306.096Z" fill="white"/>
<path d="M1103.25 306.562C1125.79 304.981 1143.69 308.878 1162.1 321.871C1157.99 328.454 1153.79 334.968 1149.48 341.417C1134.53 332.532 1124.86 328.355 1106.76 329.315C1101.74 329.24 1091.18 331.762 1088.42 336.37C1077.66 354.7 1102.86 356.876 1114.76 357.592C1136.42 358.892 1163.17 364.201 1164.78 390.731C1166.76 423.09 1140.56 431.585 1113.76 432.915C1093.74 433.325 1071.61 428.147 1055.95 415.115C1059.64 408.716 1064.92 401.032 1069.16 394.933C1084.81 405.549 1097.72 410.918 1117.19 409.792C1126.79 409.237 1141.09 405.845 1139 393.453C1136.45 378.443 1107.45 381.856 1096.38 379.33C1087.35 377.268 1079.96 376.433 1072.39 370.579C1057.93 360.094 1056.84 336.375 1067.48 322.821C1075.91 312.105 1090.19 308.128 1103.25 306.562Z" fill="white"/>
<path d="M702.813 305.051C727.668 302.039 750.327 311.485 764.989 331.761C758.54 336.774 751.038 342.012 744.38 346.88C743.013 345.269 741.521 343.533 740.092 341.987C732.974 334.273 723.053 329.745 712.56 329.425C702.297 329.14 692.349 332.982 684.944 340.091C659.821 364.325 676.697 409.076 712.4 408.166C724.74 407.851 732.36 403.938 740.908 395.178L744.512 391.376C749.009 393.908 761.049 402.912 765.226 406.315C764.772 407.035 764.305 407.736 763.81 408.426C744.157 436.307 699.878 440.299 673.016 420.848C659.259 410.918 650.045 395.899 647.43 379.133C644.595 361.578 648.985 343.623 659.599 329.355C670.338 314.867 685.3 307.652 702.813 305.051Z" fill="white"/>
<path d="M950.684 109.483C962.571 108.267 974.584 109.786 985.788 113.923C996.873 118.029 1013.08 128.789 1018.03 139.656C1010.6 144.703 1002.58 150.801 995.262 156.124C984.749 144.282 975.239 136.697 958.5 136.765C946.906 136.728 935.792 141.392 927.698 149.691C910.861 167.172 911.586 197.146 929.476 213.655C938.023 221.552 949.402 225.648 961.024 225.009C973.224 224.42 983.557 219.177 991.651 210.137C992.892 208.486 993.199 207.848 994.998 206.777C997.919 206.726 1015.1 220.106 1018.58 222.669C997.145 256.812 944.235 261.842 913.427 237.602C898.43 225.893 888.746 208.679 886.515 189.791C881.76 147.418 908.442 114.304 950.684 109.483Z" fill="white"/>
<path d="M641.159 79.4116L670.354 79.4639C670.883 86.7495 670.835 106.06 670.256 113.132L717.504 113.153C717.574 121.951 717.888 132.352 717.358 141.002C702.445 141.608 685.915 140.966 670.667 141.232C670.291 153.958 671.03 168.038 670.437 180.468C669.119 207.995 670.514 233.105 706.998 222.716C709.863 221.715 713.635 220.027 716.521 218.827C719.484 226.971 723.674 234.999 726.289 243.212C715.245 249.456 702.759 252.684 690.077 252.572C661.848 252.55 643.291 236.836 641.51 207.932C640.602 193.183 641.034 178.187 641.023 163.398L641.159 79.4116Z" fill="white"/>
<path d="M600.973 313.015C609.512 313.135 618.143 312.99 626.72 313.08C627.5 323.531 626.966 340.521 626.966 351.488L627.003 429.833L626.709 430.358C625.113 431.469 604.307 430.973 600.754 430.959C599.871 404.643 601.166 376.277 600.608 349.752C600.505 344.848 600.431 315.511 600.973 313.015Z" fill="white"/>
<path d="M603.813 275.444C607.562 275.253 621.525 274.483 624.655 276.474C627.092 278.025 627.401 286.485 627.122 289.387C626.664 294.164 627.696 297.441 624.045 300.933C620.89 301.714 603.76 302.699 601.893 299.398C599.537 295.235 600.341 285.434 600.778 280.507C601.015 277.83 601.819 277 603.813 275.444Z" fill="white"/>
<path d="M599.582 113.203H717.581V141.56H599.582V113.203Z" fill="white"/>
<path d="M908.762 367.499C908.762 404.378 878.867 434.275 841.986 434.275C805.104 434.275 775.209 404.378 775.209 367.499C775.209 330.62 805.104 300.724 841.986 300.724C878.867 300.724 908.762 330.62 908.762 367.499Z" fill="white"/>
</mask>
<g mask="url(#mask4_810_1118)">
<path d="M702.813 305.051C727.668 302.039 750.327 311.485 764.989 331.761C758.54 336.774 751.038 342.012 744.38 346.88C743.013 345.269 741.521 343.533 740.092 341.987C732.974 334.273 723.053 329.745 712.56 329.425C702.297 329.14 692.349 332.982 684.944 340.091C659.821 364.325 676.697 409.076 712.4 408.166C724.74 407.851 732.36 403.938 740.908 395.178L744.512 391.376C749.009 393.908 761.049 402.912 765.226 406.315C764.772 407.035 764.305 407.736 763.81 408.426C744.157 436.307 699.878 440.299 673.016 420.848C659.259 410.918 650.045 395.899 647.43 379.133C644.595 361.578 648.985 343.623 659.599 329.355C670.338 314.867 685.3 307.652 702.813 305.051Z" stroke="#FEFEFE" stroke-width="54.8841"/>
</g>
<mask id="mask5_810_1118" style="mask-type:luminance" maskUnits="userSpaceOnUse" x="599" y="64" width="566" height="371">
<path d="M792.654 109.489C797.848 108.865 803.09 108.833 808.291 109.396C853.19 113.972 873.388 150.051 868.905 192.418C834.011 193.477 795.177 192.482 759.907 192.634C760.569 195.877 761.301 198.496 762.709 201.477C767.478 211.564 776.088 219.321 786.616 223.019C800.246 227.843 817.306 226.159 829.179 217.623C832.17 215.474 838.096 209.187 840.829 208.12C846.867 212.662 855.226 220.339 861.145 225.453C837.009 256.549 787.188 261.797 756.442 238C741.829 226.496 732.389 209.66 730.192 191.195C724.915 149.374 750.104 114.213 792.654 109.489ZM759.488 168.598C774.394 168.745 789.3 168.766 804.199 168.662C816.205 168.747 828.21 168.724 840.209 168.595C836.388 155.789 832.4 148.267 820.144 141.21C814.552 137.992 803.585 135.403 797.325 136.799C776.639 138.733 765.721 149.423 759.488 168.598Z" fill="white"/>
<path d="M1034.07 64.9195C1043.77 64.7503 1053.83 64.8965 1063.56 64.9072C1064.25 76.9004 1063.52 91.3677 1063.77 103.596C1063.89 109.327 1064.1 125.595 1063.25 130.281C1065.15 128.19 1067.16 125.941 1069.21 124.083C1094.21 101.514 1142.15 107.439 1157.39 138.866C1159.69 143.683 1161.99 149.418 1162.91 154.707C1166 172.633 1164.71 191.779 1164.82 210.012C1164.89 222.99 1165.31 237.449 1164.49 250.277L1135.31 250.384C1134.69 230.168 1135.1 208.177 1135.1 187.831C1135.22 173.891 1135.7 160.499 1125.57 149.238C1118.93 142.091 1110.42 138.946 1100.89 138.673C1084.72 137.941 1069.53 148.662 1065.48 164.46C1062.69 175.329 1063.8 189.33 1063.66 200.664C1063.45 217.153 1063.99 233.719 1063.63 250.23C1054.09 250.546 1043.83 250.397 1034.28 250.335C1033.57 228.129 1034.03 203.62 1034.03 181.237L1034.07 64.9195Z" fill="white"/>
<path d="M985.754 306.096C986.89 305.956 988.033 305.876 989.184 305.856C1002.53 305.71 1017.05 310.634 1026.62 320.274C1043.77 337.574 1041.28 361.573 1041.28 384.072L1041.26 430.948L1015.01 430.978C1014.31 415.189 1015.05 399.08 1014.8 383.266C1014.62 372.575 1015.96 359.998 1012 349.927C1009.19 342.542 1003.48 336.624 996.204 333.532C986.771 329.48 977.917 330.525 968.672 334.253C947.025 345.704 950.511 369.113 950.518 390.115V430.953L924.38 430.973C923.46 418.416 924.052 397.494 924.059 384.341C923.983 358.992 924.039 333.647 924.248 308.303C932.976 308.222 941.712 308.227 950.448 308.307C950.553 313.78 950.573 318.333 950.336 323.826L950.978 323.056C960.425 311.759 971.315 307.357 985.754 306.096Z" fill="white"/>
<path d="M1103.25 306.562C1125.79 304.981 1143.69 308.878 1162.1 321.871C1157.99 328.454 1153.79 334.968 1149.48 341.417C1134.53 332.532 1124.86 328.355 1106.76 329.315C1101.74 329.24 1091.18 331.762 1088.42 336.37C1077.66 354.7 1102.86 356.876 1114.76 357.592C1136.42 358.892 1163.17 364.201 1164.78 390.731C1166.76 423.09 1140.56 431.585 1113.76 432.915C1093.74 433.325 1071.61 428.147 1055.95 415.115C1059.64 408.716 1064.92 401.032 1069.16 394.933C1084.81 405.549 1097.72 410.918 1117.19 409.792C1126.79 409.237 1141.09 405.845 1139 393.453C1136.45 378.443 1107.45 381.856 1096.38 379.33C1087.35 377.268 1079.96 376.433 1072.39 370.579C1057.93 360.094 1056.84 336.375 1067.48 322.821C1075.91 312.105 1090.19 308.128 1103.25 306.562Z" fill="white"/>
<path d="M702.813 305.051C727.668 302.039 750.327 311.485 764.989 331.761C758.54 336.774 751.038 342.012 744.38 346.88C743.013 345.269 741.521 343.533 740.092 341.987C732.974 334.273 723.053 329.745 712.56 329.425C702.297 329.14 692.349 332.982 684.944 340.091C659.821 364.325 676.697 409.076 712.4 408.166C724.74 407.851 732.36 403.938 740.908 395.178L744.512 391.376C749.009 393.908 761.049 402.912 765.226 406.315C764.772 407.035 764.305 407.736 763.81 408.426C744.157 436.307 699.878 440.299 673.016 420.848C659.259 410.918 650.045 395.899 647.43 379.133C644.595 361.578 648.985 343.623 659.599 329.355C670.338 314.867 685.3 307.652 702.813 305.051Z" fill="white"/>
<path d="M950.684 109.483C962.571 108.267 974.584 109.786 985.788 113.923C996.873 118.029 1013.08 128.789 1018.03 139.656C1010.6 144.703 1002.58 150.801 995.262 156.124C984.749 144.282 975.239 136.697 958.5 136.765C946.906 136.728 935.792 141.392 927.698 149.691C910.861 167.172 911.586 197.146 929.476 213.655C938.023 221.552 949.402 225.648 961.024 225.009C973.224 224.42 983.557 219.177 991.651 210.137C992.892 208.486 993.199 207.848 994.998 206.777C997.919 206.726 1015.1 220.106 1018.58 222.669C997.145 256.812 944.235 261.842 913.427 237.602C898.43 225.893 888.746 208.679 886.515 189.791C881.76 147.418 908.442 114.304 950.684 109.483Z" fill="white"/>
<path d="M641.159 79.4116L670.354 79.4639C670.883 86.7495 670.835 106.06 670.256 113.132L717.504 113.153C717.574 121.951 717.888 132.352 717.358 141.002C702.445 141.608 685.915 140.966 670.667 141.232C670.291 153.958 671.03 168.038 670.437 180.468C669.119 207.995 670.514 233.105 706.998 222.716C709.863 221.715 713.635 220.027 716.521 218.827C719.484 226.971 723.674 234.999 726.289 243.212C715.245 249.456 702.759 252.684 690.077 252.572C661.848 252.55 643.291 236.836 641.51 207.932C640.602 193.183 641.034 178.187 641.023 163.398L641.159 79.4116Z" fill="white"/>
<path d="M600.973 313.015C609.512 313.135 618.143 312.99 626.72 313.08C627.5 323.531 626.966 340.521 626.966 351.488L627.003 429.833L626.709 430.358C625.113 431.469 604.307 430.973 600.754 430.959C599.871 404.643 601.166 376.277 600.608 349.752C600.505 344.848 600.431 315.511 600.973 313.015Z" fill="white"/>
<path d="M603.813 275.444C607.562 275.253 621.525 274.483 624.655 276.474C627.092 278.025 627.401 286.485 627.122 289.387C626.664 294.164 627.696 297.441 624.045 300.933C620.89 301.714 603.76 302.699 601.893 299.398C599.537 295.235 600.341 285.434 600.778 280.507C601.015 277.83 601.819 277 603.813 275.444Z" fill="white"/>
<path d="M599.582 113.203H717.581V141.56H599.582V113.203Z" fill="white"/>
<path d="M908.762 367.499C908.762 404.378 878.867 434.275 841.986 434.275C805.104 434.275 775.209 404.378 775.209 367.499C775.209 330.62 805.104 300.724 841.986 300.724C878.867 300.724 908.762 330.62 908.762 367.499Z" fill="white"/>
</mask>
<g mask="url(#mask5_810_1118)">
<path d="M950.684 109.483C962.571 108.267 974.584 109.786 985.788 113.923C996.873 118.029 1013.08 128.789 1018.03 139.656C1010.6 144.703 1002.58 150.801 995.262 156.124C984.749 144.282 975.239 136.697 958.5 136.765C946.906 136.728 935.792 141.392 927.698 149.691C910.861 167.172 911.586 197.146 929.476 213.655C938.023 221.552 949.402 225.648 961.024 225.009C973.224 224.42 983.557 219.177 991.651 210.137C992.892 208.486 993.199 207.848 994.998 206.777C997.919 206.726 1015.1 220.106 1018.58 222.669C997.145 256.812 944.235 261.842 913.427 237.602C898.43 225.893 888.746 208.679 886.515 189.791C881.76 147.418 908.442 114.304 950.684 109.483Z" stroke="#FEFEFE" stroke-width="54.8841"/>
</g>
<mask id="mask6_810_1118" style="mask-type:luminance" maskUnits="userSpaceOnUse" x="599" y="64" width="566" height="371">
<path d="M792.654 109.489C797.848 108.865 803.09 108.833 808.291 109.396C853.19 113.972 873.388 150.051 868.905 192.418C834.011 193.477 795.177 192.482 759.907 192.634C760.569 195.877 761.301 198.496 762.709 201.477C767.478 211.564 776.088 219.321 786.616 223.019C800.246 227.843 817.306 226.159 829.179 217.623C832.17 215.474 838.096 209.187 840.829 208.12C846.867 212.662 855.226 220.339 861.145 225.453C837.009 256.549 787.188 261.797 756.442 238C741.829 226.496 732.389 209.66 730.192 191.195C724.915 149.374 750.104 114.213 792.654 109.489ZM759.488 168.598C774.394 168.745 789.3 168.766 804.199 168.662C816.205 168.747 828.21 168.724 840.209 168.595C836.388 155.789 832.4 148.267 820.144 141.21C814.552 137.992 803.585 135.403 797.325 136.799C776.639 138.733 765.721 149.423 759.488 168.598Z" fill="white"/>
<path d="M1034.07 64.9195C1043.77 64.7503 1053.83 64.8965 1063.56 64.9072C1064.25 76.9004 1063.52 91.3677 1063.77 103.596C1063.89 109.327 1064.1 125.595 1063.25 130.281C1065.15 128.19 1067.16 125.941 1069.21 124.083C1094.21 101.514 1142.15 107.439 1157.39 138.866C1159.69 143.683 1161.99 149.418 1162.91 154.707C1166 172.633 1164.71 191.779 1164.82 210.012C1164.89 222.99 1165.31 237.449 1164.49 250.277L1135.31 250.384C1134.69 230.168 1135.1 208.177 1135.1 187.831C1135.22 173.891 1135.7 160.499 1125.57 149.238C1118.93 142.091 1110.42 138.946 1100.89 138.673C1084.72 137.941 1069.53 148.662 1065.48 164.46C1062.69 175.329 1063.8 189.33 1063.66 200.664C1063.45 217.153 1063.99 233.719 1063.63 250.23C1054.09 250.546 1043.83 250.397 1034.28 250.335C1033.57 228.129 1034.03 203.62 1034.03 181.237L1034.07 64.9195Z" fill="white"/>
<path d="M985.754 306.096C986.89 305.956 988.033 305.876 989.184 305.856C1002.53 305.71 1017.05 310.634 1026.62 320.274C1043.77 337.574 1041.28 361.573 1041.28 384.072L1041.26 430.948L1015.01 430.978C1014.31 415.189 1015.05 399.08 1014.8 383.266C1014.62 372.575 1015.96 359.998 1012 349.927C1009.19 342.542 1003.48 336.624 996.204 333.532C986.771 329.48 977.917 330.525 968.672 334.253C947.025 345.704 950.511 369.113 950.518 390.115V430.953L924.38 430.973C923.46 418.416 924.052 397.494 924.059 384.341C923.983 358.992 924.039 333.647 924.248 308.303C932.976 308.222 941.712 308.227 950.448 308.307C950.553 313.78 950.573 318.333 950.336 323.826L950.978 323.056C960.425 311.759 971.315 307.357 985.754 306.096Z" fill="white"/>
<path d="M1103.25 306.562C1125.79 304.981 1143.69 308.878 1162.1 321.871C1157.99 328.454 1153.79 334.968 1149.48 341.417C1134.53 332.532 1124.86 328.355 1106.76 329.315C1101.74 329.24 1091.18 331.762 1088.42 336.37C1077.66 354.7 1102.86 356.876 1114.76 357.592C1136.42 358.892 1163.17 364.201 1164.78 390.731C1166.76 423.09 1140.56 431.585 1113.76 432.915C1093.74 433.325 1071.61 428.147 1055.95 415.115C1059.64 408.716 1064.92 401.032 1069.16 394.933C1084.81 405.549 1097.72 410.918 1117.19 409.792C1126.79 409.237 1141.09 405.845 1139 393.453C1136.45 378.443 1107.45 381.856 1096.38 379.33C1087.35 377.268 1079.96 376.433 1072.39 370.579C1057.93 360.094 1056.84 336.375 1067.48 322.821C1075.91 312.105 1090.19 308.128 1103.25 306.562Z" fill="white"/>
<path d="M702.813 305.051C727.668 302.039 750.327 311.485 764.989 331.761C758.54 336.774 751.038 342.012 744.38 346.88C743.013 345.269 741.521 343.533 740.092 341.987C732.974 334.273 723.053 329.745 712.56 329.425C702.297 329.14 692.349 332.982 684.944 340.091C659.821 364.325 676.697 409.076 712.4 408.166C724.74 407.851 732.36 403.938 740.908 395.178L744.512 391.376C749.009 393.908 761.049 402.912 765.226 406.315C764.772 407.035 764.305 407.736 763.81 408.426C744.157 436.307 699.878 440.299 673.016 420.848C659.259 410.918 650.045 395.899 647.43 379.133C644.595 361.578 648.985 343.623 659.599 329.355C670.338 314.867 685.3 307.652 702.813 305.051Z" fill="white"/>
<path d="M950.684 109.483C962.571 108.267 974.584 109.786 985.788 113.923C996.873 118.029 1013.08 128.789 1018.03 139.656C1010.6 144.703 1002.58 150.801 995.262 156.124C984.749 144.282 975.239 136.697 958.5 136.765C946.906 136.728 935.792 141.392 927.698 149.691C910.861 167.172 911.586 197.146 929.476 213.655C938.023 221.552 949.402 225.648 961.024 225.009C973.224 224.42 983.557 219.177 991.651 210.137C992.892 208.486 993.199 207.848 994.998 206.777C997.919 206.726 1015.1 220.106 1018.58 222.669C997.145 256.812 944.235 261.842 913.427 237.602C898.43 225.893 888.746 208.679 886.515 189.791C881.76 147.418 908.442 114.304 950.684 109.483Z" fill="white"/>
<path d="M641.159 79.4116L670.354 79.4639C670.883 86.7495 670.835 106.06 670.256 113.132L717.504 113.153C717.574 121.951 717.888 132.352 717.358 141.002C702.445 141.608 685.915 140.966 670.667 141.232C670.291 153.958 671.03 168.038 670.437 180.468C669.119 207.995 670.514 233.105 706.998 222.716C709.863 221.715 713.635 220.027 716.521 218.827C719.484 226.971 723.674 234.999 726.289 243.212C715.245 249.456 702.759 252.684 690.077 252.572C661.848 252.55 643.291 236.836 641.51 207.932C640.602 193.183 641.034 178.187 641.023 163.398L641.159 79.4116Z" fill="white"/>
<path d="M600.973 313.015C609.512 313.135 618.143 312.99 626.72 313.08C627.5 323.531 626.966 340.521 626.966 351.488L627.003 429.833L626.709 430.358C625.113 431.469 604.307 430.973 600.754 430.959C599.871 404.643 601.166 376.277 600.608 349.752C600.505 344.848 600.431 315.511 600.973 313.015Z" fill="white"/>
<path d="M603.813 275.444C607.562 275.253 621.525 274.483 624.655 276.474C627.092 278.025 627.401 286.485 627.122 289.387C626.664 294.164 627.696 297.441 624.045 300.933C620.89 301.714 603.76 302.699 601.893 299.398C599.537 295.235 600.341 285.434 600.778 280.507C601.015 277.83 601.819 277 603.813 275.444Z" fill="white"/>
<path d="M599.582 113.203H717.581V141.56H599.582V113.203Z" fill="white"/>
<path d="M908.762 367.499C908.762 404.378 878.867 434.275 841.986 434.275C805.104 434.275 775.209 404.378 775.209 367.499C775.209 330.62 805.104 300.724 841.986 300.724C878.867 300.724 908.762 330.62 908.762 367.499Z" fill="white"/>
</mask>
<g mask="url(#mask6_810_1118)">
<path d="M641.159 79.4116L670.354 79.4639C670.883 86.7495 670.835 106.06 670.256 113.132L717.504 113.153C717.574 121.951 717.888 132.352 717.358 141.002C702.445 141.608 685.915 140.966 670.667 141.232C670.291 153.958 671.03 168.038 670.437 180.468C669.119 207.995 670.514 233.105 706.998 222.716C709.863 221.715 713.635 220.027 716.521 218.827C719.484 226.971 723.674 234.999 726.289 243.212C715.245 249.456 702.759 252.684 690.077 252.572C661.848 252.55 643.291 236.836 641.51 207.932C640.602 193.183 641.034 178.187 641.023 163.398L641.159 79.4116Z" stroke="#FEFEFE" stroke-width="54.8841"/>
</g>
<mask id="mask7_810_1118" style="mask-type:luminance" maskUnits="userSpaceOnUse" x="599" y="64" width="566" height="371">
<path d="M792.654 109.489C797.848 108.865 803.09 108.833 808.291 109.396C853.19 113.972 873.388 150.051 868.905 192.418C834.011 193.477 795.177 192.482 759.907 192.634C760.569 195.877 761.301 198.496 762.709 201.477C767.478 211.564 776.088 219.321 786.616 223.019C800.246 227.843 817.306 226.159 829.179 217.623C832.17 215.474 838.096 209.187 840.829 208.12C846.867 212.662 855.226 220.339 861.145 225.453C837.009 256.549 787.188 261.797 756.442 238C741.829 226.496 732.389 209.66 730.192 191.195C724.915 149.374 750.104 114.213 792.654 109.489ZM759.488 168.598C774.394 168.745 789.3 168.766 804.199 168.662C816.205 168.747 828.21 168.724 840.209 168.595C836.388 155.789 832.4 148.267 820.144 141.21C814.552 137.992 803.585 135.403 797.325 136.799C776.639 138.733 765.721 149.423 759.488 168.598Z" fill="white"/>
<path d="M1034.07 64.9195C1043.77 64.7503 1053.83 64.8965 1063.56 64.9072C1064.25 76.9004 1063.52 91.3677 1063.77 103.596C1063.89 109.327 1064.1 125.595 1063.25 130.281C1065.15 128.19 1067.16 125.941 1069.21 124.083C1094.21 101.514 1142.15 107.439 1157.39 138.866C1159.69 143.683 1161.99 149.418 1162.91 154.707C1166 172.633 1164.71 191.779 1164.82 210.012C1164.89 222.99 1165.31 237.449 1164.49 250.277L1135.31 250.384C1134.69 230.168 1135.1 208.177 1135.1 187.831C1135.22 173.891 1135.7 160.499 1125.57 149.238C1118.93 142.091 1110.42 138.946 1100.89 138.673C1084.72 137.941 1069.53 148.662 1065.48 164.46C1062.69 175.329 1063.8 189.33 1063.66 200.664C1063.45 217.153 1063.99 233.719 1063.63 250.23C1054.09 250.546 1043.83 250.397 1034.28 250.335C1033.57 228.129 1034.03 203.62 1034.03 181.237L1034.07 64.9195Z" fill="white"/>
<path d="M985.754 306.096C986.89 305.956 988.033 305.876 989.184 305.856C1002.53 305.71 1017.05 310.634 1026.62 320.274C1043.77 337.574 1041.28 361.573 1041.28 384.072L1041.26 430.948L1015.01 430.978C1014.31 415.189 1015.05 399.08 1014.8 383.266C1014.62 372.575 1015.96 359.998 1012 349.927C1009.19 342.542 1003.48 336.624 996.204 333.532C986.771 329.48 977.917 330.525 968.672 334.253C947.025 345.704 950.511 369.113 950.518 390.115V430.953L924.38 430.973C923.46 418.416 924.052 397.494 924.059 384.341C923.983 358.992 924.039 333.647 924.248 308.303C932.976 308.222 941.712 308.227 950.448 308.307C950.553 313.78 950.573 318.333 950.336 323.826L950.978 323.056C960.425 311.759 971.315 307.357 985.754 306.096Z" fill="white"/>
<path d="M1103.25 306.562C1125.79 304.981 1143.69 308.878 1162.1 321.871C1157.99 328.454 1153.79 334.968 1149.48 341.417C1134.53 332.532 1124.86 328.355 1106.76 329.315C1101.74 329.24 1091.18 331.762 1088.42 336.37C1077.66 354.7 1102.86 356.876 1114.76 357.592C1136.42 358.892 1163.17 364.201 1164.78 390.731C1166.76 423.09 1140.56 431.585 1113.76 432.915C1093.74 433.325 1071.61 428.147 1055.95 415.115C1059.64 408.716 1064.92 401.032 1069.16 394.933C1084.81 405.549 1097.72 410.918 1117.19 409.792C1126.79 409.237 1141.09 405.845 1139 393.453C1136.45 378.443 1107.45 381.856 1096.38 379.33C1087.35 377.268 1079.96 376.433 1072.39 370.579C1057.93 360.094 1056.84 336.375 1067.48 322.821C1075.91 312.105 1090.19 308.128 1103.25 306.562Z" fill="white"/>
<path d="M702.813 305.051C727.668 302.039 750.327 311.485 764.989 331.761C758.54 336.774 751.038 342.012 744.38 346.88C743.013 345.269 741.521 343.533 740.092 341.987C732.974 334.273 723.053 329.745 712.56 329.425C702.297 329.14 692.349 332.982 684.944 340.091C659.821 364.325 676.697 409.076 712.4 408.166C724.74 407.851 732.36 403.938 740.908 395.178L744.512 391.376C749.009 393.908 761.049 402.912 765.226 406.315C764.772 407.035 764.305 407.736 763.81 408.426C744.157 436.307 699.878 440.299 673.016 420.848C659.259 410.918 650.045 395.899 647.43 379.133C644.595 361.578 648.985 343.623 659.599 329.355C670.338 314.867 685.3 307.652 702.813 305.051Z" fill="white"/>
<path d="M950.684 109.483C962.571 108.267 974.584 109.786 985.788 113.923C996.873 118.029 1013.08 128.789 1018.03 139.656C1010.6 144.703 1002.58 150.801 995.262 156.124C984.749 144.282 975.239 136.697 958.5 136.765C946.906 136.728 935.792 141.392 927.698 149.691C910.861 167.172 911.586 197.146 929.476 213.655C938.023 221.552 949.402 225.648 961.024 225.009C973.224 224.42 983.557 219.177 991.651 210.137C992.892 208.486 993.199 207.848 994.998 206.777C997.919 206.726 1015.1 220.106 1018.58 222.669C997.145 256.812 944.235 261.842 913.427 237.602C898.43 225.893 888.746 208.679 886.515 189.791C881.76 147.418 908.442 114.304 950.684 109.483Z" fill="white"/>
<path d="M641.159 79.4116L670.354 79.4639C670.883 86.7495 670.835 106.06 670.256 113.132L717.504 113.153C717.574 121.951 717.888 132.352 717.358 141.002C702.445 141.608 685.915 140.966 670.667 141.232C670.291 153.958 671.03 168.038 670.437 180.468C669.119 207.995 670.514 233.105 706.998 222.716C709.863 221.715 713.635 220.027 716.521 218.827C719.484 226.971 723.674 234.999 726.289 243.212C715.245 249.456 702.759 252.684 690.077 252.572C661.848 252.55 643.291 236.836 641.51 207.932C640.602 193.183 641.034 178.187 641.023 163.398L641.159 79.4116Z" fill="white"/>
<path d="M600.973 313.015C609.512 313.135 618.143 312.99 626.72 313.08C627.5 323.531 626.966 340.521 626.966 351.488L627.003 429.833L626.709 430.358C625.113 431.469 604.307 430.973 600.754 430.959C599.871 404.643 601.166 376.277 600.608 349.752C600.505 344.848 600.431 315.511 600.973 313.015Z" fill="white"/>
<path d="M603.813 275.444C607.562 275.253 621.525 274.483 624.655 276.474C627.092 278.025 627.401 286.485 627.122 289.387C626.664 294.164 627.696 297.441 624.045 300.933C620.89 301.714 603.76 302.699 601.893 299.398C599.537 295.235 600.341 285.434 600.778 280.507C601.015 277.83 601.819 277 603.813 275.444Z" fill="white"/>
<path d="M599.582 113.203H717.581V141.56H599.582V113.203Z" fill="white"/>
<path d="M908.762 367.499C908.762 404.378 878.867 434.275 841.986 434.275C805.104 434.275 775.209 404.378 775.209 367.499C775.209 330.62 805.104 300.724 841.986 300.724C878.867 300.724 908.762 330.62 908.762 367.499Z" fill="white"/>
</mask>
<g mask="url(#mask7_810_1118)">
<path d="M600.973 313.015C609.512 313.135 618.143 312.99 626.72 313.08C627.5 323.531 626.966 340.521 626.966 351.488L627.003 429.833L626.709 430.358C625.113 431.469 604.307 430.973 600.754 430.959C599.871 404.643 601.166 376.277 600.608 349.752C600.505 344.848 600.431 315.511 600.973 313.015Z" stroke="#FEFEFE" stroke-width="54.8841"/>
</g>
<mask id="mask8_810_1118" style="mask-type:luminance" maskUnits="userSpaceOnUse" x="599" y="64" width="566" height="371">
<path d="M792.654 109.489C797.848 108.865 803.09 108.833 808.291 109.396C853.19 113.972 873.388 150.051 868.905 192.418C834.011 193.477 795.177 192.482 759.907 192.634C760.569 195.877 761.301 198.496 762.709 201.477C767.478 211.564 776.088 219.321 786.616 223.019C800.246 227.843 817.306 226.159 829.179 217.623C832.17 215.474 838.096 209.187 840.829 208.12C846.867 212.662 855.226 220.339 861.145 225.453C837.009 256.549 787.188 261.797 756.442 238C741.829 226.496 732.389 209.66 730.192 191.195C724.915 149.374 750.104 114.213 792.654 109.489ZM759.488 168.598C774.394 168.745 789.3 168.766 804.199 168.662C816.205 168.747 828.21 168.724 840.209 168.595C836.388 155.789 832.4 148.267 820.144 141.21C814.552 137.992 803.585 135.403 797.325 136.799C776.639 138.733 765.721 149.423 759.488 168.598Z" fill="white"/>
<path d="M1034.07 64.9195C1043.77 64.7503 1053.83 64.8965 1063.56 64.9072C1064.25 76.9004 1063.52 91.3677 1063.77 103.596C1063.89 109.327 1064.1 125.595 1063.25 130.281C1065.15 128.19 1067.16 125.941 1069.21 124.083C1094.21 101.514 1142.15 107.439 1157.39 138.866C1159.69 143.683 1161.99 149.418 1162.91 154.707C1166 172.633 1164.71 191.779 1164.82 210.012C1164.89 222.99 1165.31 237.449 1164.49 250.277L1135.31 250.384C1134.69 230.168 1135.1 208.177 1135.1 187.831C1135.22 173.891 1135.7 160.499 1125.57 149.238C1118.93 142.091 1110.42 138.946 1100.89 138.673C1084.72 137.941 1069.53 148.662 1065.48 164.46C1062.69 175.329 1063.8 189.33 1063.66 200.664C1063.45 217.153 1063.99 233.719 1063.63 250.23C1054.09 250.546 1043.83 250.397 1034.28 250.335C1033.57 228.129 1034.03 203.62 1034.03 181.237L1034.07 64.9195Z" fill="white"/>
<path d="M985.754 306.096C986.89 305.956 988.033 305.876 989.184 305.856C1002.53 305.71 1017.05 310.634 1026.62 320.274C1043.77 337.574 1041.28 361.573 1041.28 384.072L1041.26 430.948L1015.01 430.978C1014.31 415.189 1015.05 399.08 1014.8 383.266C1014.62 372.575 1015.96 359.998 1012 349.927C1009.19 342.542 1003.48 336.624 996.204 333.532C986.771 329.48 977.917 330.525 968.672 334.253C947.025 345.704 950.511 369.113 950.518 390.115V430.953L924.38 430.973C923.46 418.416 924.052 397.494 924.059 384.341C923.983 358.992 924.039 333.647 924.248 308.303C932.976 308.222 941.712 308.227 950.448 308.307C950.553 313.78 950.573 318.333 950.336 323.826L950.978 323.056C960.425 311.759 971.315 307.357 985.754 306.096Z" fill="white"/>
<path d="M1103.25 306.562C1125.79 304.981 1143.69 308.878 1162.1 321.871C1157.99 328.454 1153.79 334.968 1149.48 341.417C1134.53 332.532 1124.86 328.355 1106.76 329.315C1101.74 329.24 1091.18 331.762 1088.42 336.37C1077.66 354.7 1102.86 356.876 1114.76 357.592C1136.42 358.892 1163.17 364.201 1164.78 390.731C1166.76 423.09 1140.56 431.585 1113.76 432.915C1093.74 433.325 1071.61 428.147 1055.95 415.115C1059.64 408.716 1064.92 401.032 1069.16 394.933C1084.81 405.549 1097.72 410.918 1117.19 409.792C1126.79 409.237 1141.09 405.845 1139 393.453C1136.45 378.443 1107.45 381.856 1096.38 379.33C1087.35 377.268 1079.96 376.433 1072.39 370.579C1057.93 360.094 1056.84 336.375 1067.48 322.821C1075.91 312.105 1090.19 308.128 1103.25 306.562Z" fill="white"/>
<path d="M702.813 305.051C727.668 302.039 750.327 311.485 764.989 331.761C758.54 336.774 751.038 342.012 744.38 346.88C743.013 345.269 741.521 343.533 740.092 341.987C732.974 334.273 723.053 329.745 712.56 329.425C702.297 329.14 692.349 332.982 684.944 340.091C659.821 364.325 676.697 409.076 712.4 408.166C724.74 407.851 732.36 403.938 740.908 395.178L744.512 391.376C749.009 393.908 761.049 402.912 765.226 406.315C764.772 407.035 764.305 407.736 763.81 408.426C744.157 436.307 699.878 440.299 673.016 420.848C659.259 410.918 650.045 395.899 647.43 379.133C644.595 361.578 648.985 343.623 659.599 329.355C670.338 314.867 685.3 307.652 702.813 305.051Z" fill="white"/>
<path d="M950.684 109.483C962.571 108.267 974.584 109.786 985.788 113.923C996.873 118.029 1013.08 128.789 1018.03 139.656C1010.6 144.703 1002.58 150.801 995.262 156.124C984.749 144.282 975.239 136.697 958.5 136.765C946.906 136.728 935.792 141.392 927.698 149.691C910.861 167.172 911.586 197.146 929.476 213.655C938.023 221.552 949.402 225.648 961.024 225.009C973.224 224.42 983.557 219.177 991.651 210.137C992.892 208.486 993.199 207.848 994.998 206.777C997.919 206.726 1015.1 220.106 1018.58 222.669C997.145 256.812 944.235 261.842 913.427 237.602C898.43 225.893 888.746 208.679 886.515 189.791C881.76 147.418 908.442 114.304 950.684 109.483Z" fill="white"/>
<path d="M641.159 79.4116L670.354 79.4639C670.883 86.7495 670.835 106.06 670.256 113.132L717.504 113.153C717.574 121.951 717.888 132.352 717.358 141.002C702.445 141.608 685.915 140.966 670.667 141.232C670.291 153.958 671.03 168.038 670.437 180.468C669.119 207.995 670.514 233.105 706.998 222.716C709.863 221.715 713.635 220.027 716.521 218.827C719.484 226.971 723.674 234.999 726.289 243.212C715.245 249.456 702.759 252.684 690.077 252.572C661.848 252.55 643.291 236.836 641.51 207.932C640.602 193.183 641.034 178.187 641.023 163.398L641.159 79.4116Z" fill="white"/>
<path d="M600.973 313.015C609.512 313.135 618.143 312.99 626.72 313.08C627.5 323.531 626.966 340.521 626.966 351.488L627.003 429.833L626.709 430.358C625.113 431.469 604.307 430.973 600.754 430.959C599.871 404.643 601.166 376.277 600.608 349.752C600.505 344.848 600.431 315.511 600.973 313.015Z" fill="white"/>
<path d="M603.813 275.444C607.562 275.253 621.525 274.483 624.655 276.474C627.092 278.025 627.401 286.485 627.122 289.387C626.664 294.164 627.696 297.441 624.045 300.933C620.89 301.714 603.76 302.699 601.893 299.398C599.537 295.235 600.341 285.434 600.778 280.507C601.015 277.83 601.819 277 603.813 275.444Z" fill="white"/>
<path d="M599.582 113.203H717.581V141.56H599.582V113.203Z" fill="white"/>
<path d="M908.762 367.499C908.762 404.378 878.867 434.275 841.986 434.275C805.104 434.275 775.209 404.378 775.209 367.499C775.209 330.62 805.104 300.724 841.986 300.724C878.867 300.724 908.762 330.62 908.762 367.499Z" fill="white"/>
</mask>
<g mask="url(#mask8_810_1118)">
<path d="M603.813 275.444C607.562 275.253 621.525 274.483 624.655 276.474C627.092 278.025 627.401 286.485 627.122 289.387C626.664 294.164 627.696 297.441 624.045 300.933C620.89 301.714 603.76 302.699 601.893 299.398C599.537 295.235 600.341 285.434 600.778 280.507C601.015 277.83 601.819 277 603.813 275.444Z" stroke="#FEFEFE" stroke-width="54.8841"/>
</g>
<mask id="mask9_810_1118" style="mask-type:luminance" maskUnits="userSpaceOnUse" x="599" y="64" width="566" height="371">
<path d="M792.654 109.489C797.848 108.865 803.09 108.833 808.291 109.396C853.19 113.972 873.388 150.051 868.905 192.418C834.011 193.477 795.177 192.482 759.907 192.634C760.569 195.877 761.301 198.496 762.709 201.477C767.478 211.564 776.088 219.321 786.616 223.019C800.246 227.843 817.306 226.159 829.179 217.623C832.17 215.474 838.096 209.187 840.829 208.12C846.867 212.662 855.226 220.339 861.145 225.453C837.009 256.549 787.188 261.797 756.442 238C741.829 226.496 732.389 209.66 730.192 191.195C724.915 149.374 750.104 114.213 792.654 109.489ZM759.488 168.598C774.394 168.745 789.3 168.766 804.199 168.662C816.205 168.747 828.21 168.724 840.209 168.595C836.388 155.789 832.4 148.267 820.144 141.21C814.552 137.992 803.585 135.403 797.325 136.799C776.639 138.733 765.721 149.423 759.488 168.598Z" fill="white"/>
<path d="M1034.07 64.9195C1043.77 64.7503 1053.83 64.8965 1063.56 64.9072C1064.25 76.9004 1063.52 91.3677 1063.77 103.596C1063.89 109.327 1064.1 125.595 1063.25 130.281C1065.15 128.19 1067.16 125.941 1069.21 124.083C1094.21 101.514 1142.15 107.439 1157.39 138.866C1159.69 143.683 1161.99 149.418 1162.91 154.707C1166 172.633 1164.71 191.779 1164.82 210.012C1164.89 222.99 1165.31 237.449 1164.49 250.277L1135.31 250.384C1134.69 230.168 1135.1 208.177 1135.1 187.831C1135.22 173.891 1135.7 160.499 1125.57 149.238C1118.93 142.091 1110.42 138.946 1100.89 138.673C1084.72 137.941 1069.53 148.662 1065.48 164.46C1062.69 175.329 1063.8 189.33 1063.66 200.664C1063.45 217.153 1063.99 233.719 1063.63 250.23C1054.09 250.546 1043.83 250.397 1034.28 250.335C1033.57 228.129 1034.03 203.62 1034.03 181.237L1034.07 64.9195Z" fill="white"/>
<path d="M985.754 306.096C986.89 305.956 988.033 305.876 989.184 305.856C1002.53 305.71 1017.05 310.634 1026.62 320.274C1043.77 337.574 1041.28 361.573 1041.28 384.072L1041.26 430.948L1015.01 430.978C1014.31 415.189 1015.05 399.08 1014.8 383.266C1014.62 372.575 1015.96 359.998 1012 349.927C1009.19 342.542 1003.48 336.624 996.204 333.532C986.771 329.48 977.917 330.525 968.672 334.253C947.025 345.704 950.511 369.113 950.518 390.115V430.953L924.38 430.973C923.46 418.416 924.052 397.494 924.059 384.341C923.983 358.992 924.039 333.647 924.248 308.303C932.976 308.222 941.712 308.227 950.448 308.307C950.553 313.78 950.573 318.333 950.336 323.826L950.978 323.056C960.425 311.759 971.315 307.357 985.754 306.096Z" fill="white"/>
<path d="M1103.25 306.562C1125.79 304.981 1143.69 308.878 1162.1 321.871C1157.99 328.454 1153.79 334.968 1149.48 341.417C1134.53 332.532 1124.86 328.355 1106.76 329.315C1101.74 329.24 1091.18 331.762 1088.42 336.37C1077.66 354.7 1102.86 356.876 1114.76 357.592C1136.42 358.892 1163.17 364.201 1164.78 390.731C1166.76 423.09 1140.56 431.585 1113.76 432.915C1093.74 433.325 1071.61 428.147 1055.95 415.115C1059.64 408.716 1064.92 401.032 1069.16 394.933C1084.81 405.549 1097.72 410.918 1117.19 409.792C1126.79 409.237 1141.09 405.845 1139 393.453C1136.45 378.443 1107.45 381.856 1096.38 379.33C1087.35 377.268 1079.96 376.433 1072.39 370.579C1057.93 360.094 1056.84 336.375 1067.48 322.821C1075.91 312.105 1090.19 308.128 1103.25 306.562Z" fill="white"/>
<path d="M702.813 305.051C727.668 302.039 750.327 311.485 764.989 331.761C758.54 336.774 751.038 342.012 744.38 346.88C743.013 345.269 741.521 343.533 740.092 341.987C732.974 334.273 723.053 329.745 712.56 329.425C702.297 329.14 692.349 332.982 684.944 340.091C659.821 364.325 676.697 409.076 712.4 408.166C724.74 407.851 732.36 403.938 740.908 395.178L744.512 391.376C749.009 393.908 761.049 402.912 765.226 406.315C764.772 407.035 764.305 407.736 763.81 408.426C744.157 436.307 699.878 440.299 673.016 420.848C659.259 410.918 650.045 395.899 647.43 379.133C644.595 361.578 648.985 343.623 659.599 329.355C670.338 314.867 685.3 307.652 702.813 305.051Z" fill="white"/>
<path d="M950.684 109.483C962.571 108.267 974.584 109.786 985.788 113.923C996.873 118.029 1013.08 128.789 1018.03 139.656C1010.6 144.703 1002.58 150.801 995.262 156.124C984.749 144.282 975.239 136.697 958.5 136.765C946.906 136.728 935.792 141.392 927.698 149.691C910.861 167.172 911.586 197.146 929.476 213.655C938.023 221.552 949.402 225.648 961.024 225.009C973.224 224.42 983.557 219.177 991.651 210.137C992.892 208.486 993.199 207.848 994.998 206.777C997.919 206.726 1015.1 220.106 1018.58 222.669C997.145 256.812 944.235 261.842 913.427 237.602C898.43 225.893 888.746 208.679 886.515 189.791C881.76 147.418 908.442 114.304 950.684 109.483Z" fill="white"/>
<path d="M641.159 79.4116L670.354 79.4639C670.883 86.7495 670.835 106.06 670.256 113.132L717.504 113.153C717.574 121.951 717.888 132.352 717.358 141.002C702.445 141.608 685.915 140.966 670.667 141.232C670.291 153.958 671.03 168.038 670.437 180.468C669.119 207.995 670.514 233.105 706.998 222.716C709.863 221.715 713.635 220.027 716.521 218.827C719.484 226.971 723.674 234.999 726.289 243.212C715.245 249.456 702.759 252.684 690.077 252.572C661.848 252.55 643.291 236.836 641.51 207.932C640.602 193.183 641.034 178.187 641.023 163.398L641.159 79.4116Z" fill="white"/>
<path d="M600.973 313.015C609.512 313.135 618.143 312.99 626.72 313.08C627.5 323.531 626.966 340.521 626.966 351.488L627.003 429.833L626.709 430.358C625.113 431.469 604.307 430.973 600.754 430.959C599.871 404.643 601.166 376.277 600.608 349.752C600.505 344.848 600.431 315.511 600.973 313.015Z" fill="white"/>
<path d="M603.813 275.444C607.562 275.253 621.525 274.483 624.655 276.474C627.092 278.025 627.401 286.485 627.122 289.387C626.664 294.164 627.696 297.441 624.045 300.933C620.89 301.714 603.76 302.699 601.893 299.398C599.537 295.235 600.341 285.434 600.778 280.507C601.015 277.83 601.819 277 603.813 275.444Z" fill="white"/>
<path d="M599.582 113.203H717.581V141.56H599.582V113.203Z" fill="white"/>
<path d="M908.762 367.499C908.762 404.378 878.867 434.275 841.986 434.275C805.104 434.275 775.209 404.378 775.209 367.499C775.209 330.62 805.104 300.724 841.986 300.724C878.867 300.724 908.762 330.62 908.762 367.499Z" fill="white"/>
</mask>
<g mask="url(#mask9_810_1118)">
<path d="M599.582 113.203H717.581V141.56H599.582V113.203Z" stroke="#FEFEFE" stroke-width="54.8841"/>
</g>
<mask id="mask10_810_1118" style="mask-type:luminance" maskUnits="userSpaceOnUse" x="599" y="64" width="566" height="370">
<path d="M792.654 108.792C797.848 108.167 803.09 108.136 808.291 108.699C853.19 113.275 873.388 149.354 868.905 191.72C834.011 192.779 795.177 191.785 759.907 191.936C760.569 195.18 761.301 197.798 762.709 200.78C767.478 210.866 776.088 218.624 786.616 222.321C800.246 227.146 817.306 225.461 829.179 216.926C832.17 214.777 838.096 208.49 840.829 207.423C846.867 211.965 855.226 219.642 861.145 224.756C837.009 255.852 787.188 261.1 756.442 237.303C741.829 225.799 732.389 208.962 730.192 190.498C724.915 148.677 750.104 113.516 792.654 108.792ZM759.488 167.901C774.394 168.047 789.3 168.069 804.199 167.965C816.205 168.049 828.21 168.027 840.209 167.897C836.388 155.092 832.4 147.57 820.144 140.513C814.552 137.294 803.585 134.706 797.325 136.102C776.639 138.036 765.721 148.726 759.488 167.901Z" fill="white"/>
<path d="M1034.07 64.2228C1043.77 64.0535 1053.83 64.1997 1063.56 64.2104C1064.25 76.2036 1063.52 90.671 1063.77 102.9C1063.89 108.631 1064.1 124.898 1063.25 129.584C1065.15 127.494 1067.16 125.244 1069.21 123.386C1094.21 100.817 1142.15 106.742 1157.39 138.17C1159.69 142.987 1161.99 148.721 1162.91 154.01C1166 171.936 1164.71 191.083 1164.82 209.315C1164.89 222.294 1165.31 236.753 1164.49 249.58L1135.31 249.688C1134.69 229.471 1135.1 207.481 1135.1 187.134C1135.22 173.194 1135.7 159.803 1125.57 148.541C1118.93 141.394 1110.42 138.249 1100.89 137.977C1084.72 137.244 1069.53 147.965 1065.48 163.763C1062.69 174.632 1063.8 188.633 1063.66 199.968C1063.45 216.456 1063.99 233.023 1063.63 249.533C1054.09 249.849 1043.83 249.7 1034.28 249.638C1033.57 227.433 1034.03 202.923 1034.03 180.54L1034.07 64.2228Z" fill="white"/>
<path d="M985.754 305.399C986.89 305.259 988.033 305.178 989.184 305.159C1002.53 305.013 1017.05 309.937 1026.62 319.577C1043.77 336.877 1041.28 360.876 1041.28 383.374L1041.26 430.251L1015.01 430.281C1014.31 414.492 1015.05 398.383 1014.8 382.568C1014.62 371.878 1015.96 359.3 1012 349.229C1009.19 341.845 1003.48 335.926 996.204 332.834C986.771 328.782 977.917 329.828 968.672 333.555C947.025 345.007 950.511 368.415 950.518 389.417V430.256L924.38 430.276C923.46 417.719 924.052 396.796 924.059 383.644C923.983 358.294 924.039 332.949 924.248 307.605C932.976 307.525 941.712 307.53 950.448 307.61C950.553 313.083 950.573 317.636 950.336 323.129L950.978 322.359C960.425 311.062 971.315 306.659 985.754 305.399Z" fill="white"/>
<path d="M1103.25 305.865C1125.79 304.284 1143.69 308.181 1162.1 321.174C1157.99 327.757 1153.79 334.271 1149.48 340.72C1134.53 331.835 1124.86 327.658 1106.76 328.618C1101.74 328.543 1091.18 331.065 1088.42 335.672C1077.66 354.003 1102.86 356.179 1114.76 356.895C1136.42 358.195 1163.17 363.503 1164.78 390.033C1166.76 422.393 1140.56 430.887 1113.76 432.218C1093.74 432.628 1071.61 427.45 1055.95 414.418C1059.64 408.019 1064.92 400.334 1069.16 394.236C1084.81 404.852 1097.72 410.221 1117.19 409.095C1126.79 408.54 1141.09 405.148 1139 392.755C1136.45 377.746 1107.45 381.158 1096.38 378.632C1087.35 376.571 1079.96 375.736 1072.39 369.882C1057.93 359.396 1056.84 335.677 1067.48 322.124C1075.91 311.408 1090.19 307.431 1103.25 305.865Z" fill="white"/>
<path d="M702.813 304.354C727.668 301.342 750.327 310.787 764.989 331.064C758.54 336.077 751.038 341.315 744.38 346.183C743.013 344.572 741.521 342.836 740.092 341.29C732.974 333.576 723.053 329.048 712.56 328.727C702.297 328.442 692.349 332.284 684.944 339.394C659.821 363.628 676.697 408.379 712.4 407.468C724.74 407.153 732.36 403.241 740.908 394.481L744.512 390.679C749.009 393.21 761.049 402.215 765.226 405.617C764.772 406.338 764.305 407.038 763.81 407.728C744.157 435.61 699.878 439.602 673.016 420.151C659.259 410.22 650.045 395.201 647.43 378.436C644.595 360.881 648.985 342.926 659.599 328.658C670.338 314.169 685.3 306.955 702.813 304.354Z" fill="white"/>
<path d="M950.684 108.786C962.571 107.57 974.584 109.089 985.788 113.226C996.873 117.332 1013.08 128.092 1018.03 138.958C1010.6 144.005 1002.58 150.104 995.262 155.427C984.749 143.584 975.239 136 958.5 136.067C946.906 136.03 935.792 140.695 927.698 148.994C910.861 166.475 911.586 196.449 929.476 212.958C938.023 220.855 949.402 224.951 961.024 224.312C973.224 223.723 983.557 218.48 991.651 209.439C992.892 207.788 993.199 207.15 994.998 206.079C997.919 206.029 1015.1 219.409 1018.58 221.972C997.145 256.115 944.235 261.145 913.427 236.905C898.43 225.196 888.746 207.982 886.515 189.094C881.76 146.72 908.442 113.607 950.684 108.786Z" fill="white"/>
<path d="M641.159 78.7144L670.354 78.7666C670.883 86.0522 670.835 105.363 670.256 112.435L717.504 112.455C717.574 121.253 717.888 131.655 717.358 140.305C702.445 140.911 685.915 140.269 670.667 140.535C670.291 153.261 671.03 167.341 670.437 179.77C669.119 207.298 670.514 232.408 706.998 222.018C709.863 221.018 713.635 219.329 716.521 218.13C719.484 226.273 723.674 234.301 726.289 242.515C715.245 248.759 702.759 251.987 690.077 251.875C661.848 251.852 643.291 236.139 641.51 207.235C640.602 192.486 641.034 177.49 641.023 162.7L641.159 78.7144Z" fill="white"/>
<path d="M600.973 312.317C609.512 312.438 618.143 312.293 626.72 312.383C627.5 322.834 626.966 339.824 626.966 350.79L627.003 429.135L626.709 429.661C625.113 430.772 604.307 430.276 600.754 430.261C599.871 403.946 601.166 375.579 600.608 349.054C600.505 344.151 600.431 314.814 600.973 312.317Z" fill="white"/>
<path d="M603.813 274.746C607.562 274.556 621.525 273.786 624.655 275.777C627.092 277.328 627.401 285.788 627.122 288.689C626.664 293.467 627.696 296.744 624.045 300.236C620.89 301.016 603.76 302.002 601.893 298.7C599.537 294.538 600.341 284.737 600.778 279.809C601.015 277.133 601.819 276.302 603.813 274.746Z" fill="white"/>
<path d="M599.582 112.506H717.581V140.863H599.582V112.506Z" fill="white"/>
<path d="M908.762 366.802C908.762 403.681 878.867 433.578 841.986 433.578C805.104 433.578 775.209 403.681 775.209 366.802C775.209 329.923 805.104 300.027 841.986 300.027C878.867 300.027 908.762 329.923 908.762 366.802Z" fill="white"/>
</mask>
<g mask="url(#mask10_810_1118)">
<path d="M908.762 366.802C908.762 403.681 878.867 433.578 841.986 433.578C805.104 433.578 775.209 403.681 775.209 366.802C775.209 329.923 805.104 300.027 841.986 300.027C878.867 300.027 908.762 329.923 908.762 366.802Z" stroke="#FEFEFE" stroke-width="54.8841"/>
</g>
<path d="M30.8479 1.39453H31.3306C34.0555 3.95979 44.0083 9.22612 47.6272 11.0623C77.7106 26.3259 111.322 36.642 144.97 39.6105C146.47 39.743 148.049 39.7648 149.522 39.9508C150.708 39.6275 159.529 35.4405 161.536 34.5757C173.805 29.2896 186.532 25.1393 199.559 22.177C236.083 14.0374 280.786 14.7101 316.807 24.9341C325.962 27.5468 334.936 30.7489 343.677 34.5203C347.723 36.2368 351.947 38.393 355.905 39.9712C388.039 37.8639 420.034 28.6848 449.239 15.2737C456.153 12.0982 468.114 5.92055 474.218 1.39453H474.748C473.846 8.03728 472.92 13.5259 471.232 20.0311C466.524 38.1628 455.985 60.2864 442.374 73.4966C444.712 74.3174 446.318 75.179 447.436 77.6753C449.951 83.2949 447.961 92.4068 445.973 97.8937C444.537 101.864 442.192 105.803 440.95 109.767C445.572 113.729 452.425 121.721 456.332 126.504C478.668 153.836 494.456 189.805 496.896 225.183C497.807 238.402 496.74 258.807 493.202 271.663C493.691 279.536 491.224 293.833 489.837 301.501C481.885 345.461 463.027 386.366 433.346 419.972C425.997 428.336 418.007 436.114 409.451 443.236C405.439 446.583 401.174 449.626 397.157 452.941C399.917 458.276 421.89 482.361 410.481 486.661C400.124 490.565 367.964 482.383 359.405 475.249C336.559 484.603 318.185 491.603 293.597 495.745C287.391 496.792 281.145 497.589 274.873 498.139C272.441 498.35 265.06 498.69 263.201 499.186H243.38C240.436 498.683 236.214 498.583 233.117 498.333C227.233 497.876 221.368 497.2 215.535 496.304C189.543 492.264 170.404 485.208 146.209 475.249C140.391 479.185 128.217 483.715 121.299 485.159C73.4863 495.142 94.5151 474.372 108.39 452.975C104.643 449.828 100.542 446.891 96.7272 443.758C90.1652 438.326 83.9215 432.522 78.027 426.37C46.0136 393.012 24.9584 349.89 16.3421 304.697C14.3669 294.338 12.0827 281.75 12.2923 271.174C11.017 265.82 10.0692 260.392 9.45417 254.921C9.17203 252.364 8.902 247.318 8.36719 245.135V226.604C8.76997 225.362 9.17155 218.878 9.4371 216.812C10.1838 211.072 11.2381 205.376 12.5955 199.748C20.5233 167.178 39.7918 132.568 64.5486 109.707C63.7486 106.788 61.3564 102.396 60.1207 99.2923C57.7768 93.4046 55.6077 84.5236 57.8337 78.314C58.8242 75.5509 60.6142 74.4693 63.0363 73.3889C44.5387 54.0338 34.1296 27.7136 30.8479 1.39453Z" fill="#55B7B6"/>
<path d="M64.5486 109.707C67.0705 113.285 79.8019 120.384 83.9044 122.634C115.967 140.22 155.065 146.745 183.762 170.346C216.352 197.148 233.074 239.61 237.249 280.71C237.951 287.569 238.241 294.088 238.366 300.998C238.466 300.974 238.567 300.949 238.668 300.928C248.625 295.359 255.79 294.793 266.322 300.692C266.616 300.857 266.907 301.025 267.201 301.193C278.178 310.779 288.219 321.167 291.374 335.873C288.667 347.771 285.724 353.85 279.933 364.688C303.179 384.291 336.047 396.138 366.549 395.199C372.846 408.609 379.295 422.053 386.214 435.161C389.322 441.048 393.441 447.217 396.853 453.004C385.708 460.892 371.662 469.377 359.405 475.249C336.559 484.603 318.185 491.603 293.597 495.745C287.391 496.792 281.145 497.589 274.873 498.139C272.441 498.35 265.06 498.69 263.201 499.186H243.38C240.436 498.683 236.214 498.583 233.117 498.333C227.233 497.876 221.368 497.2 215.535 496.304C189.543 492.264 170.404 485.208 146.209 475.249C140.391 479.185 128.217 483.715 121.299 485.159C73.4863 495.142 94.5151 474.372 108.39 452.975C104.643 449.828 100.542 446.891 96.7272 443.758C90.1652 438.326 83.9215 432.522 78.027 426.37C46.0136 393.012 24.9584 349.89 16.3421 304.697C14.3669 294.338 12.0827 281.75 12.2923 271.174C11.017 265.82 10.0692 260.392 9.45417 254.921C9.17203 252.364 8.902 247.318 8.36719 245.135V226.604C8.76997 225.362 9.17155 218.878 9.4371 216.812C10.1838 211.072 11.2381 205.376 12.5955 199.748C20.5233 167.178 39.7918 132.568 64.5486 109.707Z" fill="#F7F7F7"/>
<path d="M238.366 300.998C238.466 300.974 238.567 300.949 238.668 300.928C248.625 295.359 255.79 294.793 266.322 300.692C266.616 300.857 266.907 301.025 267.201 301.193C278.178 310.779 288.219 321.167 291.374 335.873C288.667 347.771 285.724 353.85 279.933 364.688C303.179 384.291 336.047 396.138 366.549 395.199C372.846 408.609 379.295 422.053 386.214 435.161C389.322 441.048 393.441 447.217 396.853 453.004C385.708 460.892 371.662 469.377 359.405 475.249C336.559 484.603 318.185 491.603 293.597 495.745C287.391 496.792 281.145 497.589 274.873 498.139C272.441 498.35 265.06 498.69 263.201 499.186H243.38C240.436 498.683 236.214 498.583 233.117 498.333C227.233 497.876 221.368 497.2 215.535 496.304C189.543 492.264 170.404 485.208 146.209 475.249C145.262 475.002 141.32 472.928 140.333 472.408C129.41 466.55 118.833 460.068 108.656 452.992C111.641 447.693 115.463 442.244 118.302 436.945C125.622 423.292 132.407 409.19 138.966 395.163C139.601 395.216 140.237 395.255 140.874 395.277C164.745 396.096 190.551 387.613 210.697 375.232C215.642 372.194 221.288 368.436 225.501 364.476C219.766 353.978 216.812 347.518 214.172 335.909C216.327 323.253 226.24 312.043 235.517 303.662C236.461 302.809 237.674 302.058 238.366 300.998Z" fill="#11585C"/>
<path d="M238.366 300.998C238.466 300.974 238.567 300.949 238.668 300.928C248.625 295.359 255.79 294.793 266.322 300.692C266.616 300.857 266.907 301.025 267.201 301.193C278.178 310.779 288.219 321.167 291.374 335.873C288.667 347.771 285.724 353.85 279.933 364.688C277.49 368.28 274.062 374.746 271.527 378.768C265.544 388.202 259.277 397.455 252.735 406.511C249.172 401.21 245.314 395.97 241.705 390.605C235.965 382.11 230.559 373.394 225.501 364.476C219.766 353.978 216.812 347.518 214.172 335.909C216.327 323.253 226.24 312.043 235.517 303.662C236.461 302.809 237.674 302.058 238.366 300.998Z" fill="#FEB524"/>
<path d="M12.2923 271.174C12.8741 273.556 14.4828 276.925 15.3616 279.39C25.1288 306.591 43.9606 329.599 68.6914 344.545C96.8759 361.693 131.705 368.788 163.917 360.646C183.051 355.811 198.489 347.693 214.172 335.909C216.812 347.518 219.766 353.978 225.501 364.476C221.288 368.436 215.642 372.194 210.697 375.232C190.551 387.613 164.745 396.096 140.874 395.277C140.237 395.255 139.601 395.216 138.966 395.163C132.407 409.19 125.622 423.292 118.302 436.945C115.463 442.244 111.641 447.693 108.656 452.992C118.833 460.068 129.41 466.55 140.333 472.408C141.32 472.928 145.262 475.002 146.209 475.249C140.391 479.185 128.217 483.715 121.299 485.159C73.4863 495.142 94.5151 474.372 108.39 452.975C104.643 449.828 100.542 446.891 96.7272 443.758C90.1652 438.326 83.9215 432.522 78.027 426.37C46.0136 393.012 24.9584 349.89 16.3421 304.697C14.3669 294.338 12.0827 281.75 12.2923 271.174Z" fill="#01414A"/>
<path d="M131.16 182.072C161.117 179.263 187.668 201.297 190.437 231.263C193.206 261.228 171.142 287.756 141.179 290.488C111.271 293.213 84.808 271.194 82.0442 241.283C79.2802 211.373 101.26 184.875 131.16 182.072Z" fill="#010A11"/>
<path d="M122.123 204.941C128.562 204.342 134.275 209.062 134.902 215.5C135.53 221.939 130.837 227.673 124.403 228.33C117.928 228.992 112.149 224.261 111.518 217.781C110.886 211.302 115.642 205.544 122.123 204.941Z" fill="#F7F7F7"/>
<path d="M440.95 109.767C445.572 113.729 452.425 121.721 456.332 126.504C478.668 153.836 494.456 189.805 496.896 225.183C497.807 238.402 496.74 258.807 493.202 271.663C493.691 279.536 491.224 293.833 489.837 301.501C481.885 345.461 463.027 386.366 433.346 419.972C425.997 428.336 418.007 436.114 409.451 443.236C405.439 446.583 401.174 449.626 397.157 452.941C399.917 458.276 421.89 482.361 410.481 486.661C400.124 490.565 367.964 482.383 359.405 475.249C371.662 469.377 385.708 460.892 396.853 453.004C393.441 447.217 389.322 441.048 386.214 435.161C379.295 422.053 372.846 408.609 366.549 395.199C336.047 396.138 303.179 384.291 279.933 364.688C285.724 353.85 288.667 347.771 291.374 335.873C288.219 321.167 278.178 310.779 267.201 301.193C266.808 275.834 272.99 246.239 283.053 223.049C287.422 212.926 292.895 203.316 299.371 194.393C319.089 167.023 341.49 155.332 372.506 143.414C388.535 137.255 406.034 131.062 421.106 122.889C425.954 120.26 437.497 113.785 440.95 109.767Z" fill="#F7F7F7"/>
<path d="M493.202 271.663C493.691 279.536 491.224 293.833 489.837 301.501C481.885 345.461 463.027 386.366 433.346 419.972C425.997 428.336 418.007 436.114 409.451 443.236C405.439 446.583 401.174 449.626 397.157 452.941C399.917 458.276 421.89 482.361 410.481 486.661C400.124 490.565 367.964 482.383 359.405 475.249C371.662 469.377 385.708 460.892 396.853 453.004C393.441 447.217 389.322 441.048 386.214 435.161C379.295 422.053 372.846 408.609 366.549 395.199C336.047 396.138 303.179 384.291 279.933 364.688C285.724 353.85 288.667 347.771 291.374 335.873C300.615 343.344 313.617 350.685 324.535 355.123C355.854 367.852 388.34 366.596 419.324 353.463C447.65 341.648 470.811 320.088 484.624 292.68C488.126 285.719 490.286 278.85 493.202 271.663Z" fill="#01414A"/>
<path d="M364.105 182.082C394.07 179.224 420.666 201.236 423.463 231.212C426.262 261.189 404.204 287.746 374.229 290.488C344.333 293.22 317.872 271.23 315.079 241.337C312.29 211.443 334.222 184.932 364.105 182.082Z" fill="#010A11"/>
<path d="M354.627 204.954C361.099 204.277 366.89 208.993 367.538 215.471C368.187 221.948 363.449 227.719 356.967 228.34C350.53 228.957 344.802 224.251 344.158 217.813C343.512 211.375 348.192 205.627 354.627 204.954Z" fill="#F7F7F7"/>
<path d="M63.0363 73.3889C69.8521 79.1152 76.906 86.1042 84.9399 90.0557C116.415 107.024 151.565 113.695 181.742 132.595C215.301 153.614 239.758 188.102 252.752 225.216C268.868 180.006 298.671 142.784 342.567 122.39C368.102 110.527 395.995 103.799 420.483 90.1174C429.249 85.7279 435.001 79.5323 442.374 73.4966C444.712 74.3174 446.318 75.179 447.436 77.6753C449.951 83.2949 447.961 92.4068 445.973 97.8937C444.537 101.864 442.192 105.803 440.95 109.767C437.497 113.785 425.954 120.26 421.106 122.889C406.034 131.062 388.535 137.255 372.506 143.414C341.49 155.332 319.089 167.023 299.371 194.393C292.895 203.316 287.422 212.926 283.053 223.049C272.99 246.239 266.808 275.834 267.201 301.193C266.907 301.025 266.616 300.857 266.322 300.692C255.79 294.793 248.625 295.359 238.668 300.928C238.567 300.949 238.466 300.974 238.366 300.998C238.241 294.088 237.951 287.569 237.249 280.71C233.074 239.61 216.352 197.148 183.762 170.346C155.065 146.745 115.967 140.22 83.9044 122.634C79.8019 120.384 67.0705 113.285 64.5486 109.707C63.7486 106.788 61.3564 102.396 60.1207 99.2923C57.7768 93.4046 55.6077 84.5236 57.8337 78.314C58.8242 75.5509 60.6142 74.4693 63.0363 73.3889Z" fill="#010A11"/>
<path d="M474.218 1.39453H474.748C473.846 8.03728 472.92 13.5259 471.232 20.0311C466.524 38.1628 455.985 60.2864 442.374 73.4966C435.001 79.5323 429.249 85.7279 420.483 90.1174C419.178 87.4537 413.618 82.819 411.225 80.5969C400.887 71.0057 390.313 62.3354 378.6 54.4254C374.238 51.4552 369.808 48.5863 365.315 45.821C362.462 44.06 358.591 41.8404 355.905 39.9712C388.039 37.8639 420.034 28.6848 449.239 15.2737C456.153 12.0982 468.114 5.92055 474.218 1.39453Z" fill="#2AADB0"/>
<path d="M30.8479 1.39453H31.3306C34.0555 3.95979 44.0083 9.22612 47.6272 11.0623C77.7106 26.3259 111.322 36.642 144.97 39.6105C146.47 39.743 148.049 39.7648 149.522 39.9508C146.304 42.2054 142.655 44.3653 139.276 46.4C120.799 57.523 104.185 70.9967 88.5839 85.8346C87.3295 87.0278 85.8532 88.5859 84.9399 90.0557C76.906 86.1042 69.8521 79.1152 63.0363 73.3889C44.5387 54.0338 34.1296 27.7136 30.8479 1.39453Z" fill="#2AADB0"/>
</g>
<defs>
<clipPath id="clip0_810_1118">
<rect width="1165" height="498.489" fill="white"/>
</clipPath>
</defs>
</svg>
