<svg width="256" height="256" viewBox="0 0 256 256" fill="none" xmlns="http://www.w3.org/2000/svg">
<g clip-path="url(#clip0_810_37)">
<path d="M0 25C0 11.1929 11.1929 0 25 0H231C244.807 0 256 11.1929 256 25V231C256 244.807 244.807 256 231 256H25C11.1929 256 0 244.807 0 231V25Z" fill="#E8E8E8"/>
<path d="M134.39 86.0214C135.12 85.9742 135.636 86.0172 136.35 86.036C146.051 86.2925 155.497 89.8403 163.009 95.9712C163.992 96.7733 167.198 99.9785 168.148 101.052C172.075 105.485 175.292 111.643 176.946 117.322C177.17 118.09 177.742 119.93 177.644 120.671C177.399 122.485 176.304 124.769 175.635 126.568C174.768 128.768 174.063 130.943 173.002 133.071C169.745 139.601 162.462 145.073 155.135 145.884C152.213 146.208 148.611 146.127 145.689 146.141C141.855 146.155 138.021 146.194 134.188 146.258L95.9982 146.786C93.123 146.801 90.1445 146.674 87.2872 146.942C86.6969 146.997 85.4941 147.589 85.5697 148.346C85.7125 149.774 86.5838 149.667 87.73 149.702C89.5489 149.724 91.3567 149.753 93.1688 149.787L133.306 150.379L146.244 150.483C148.988 150.507 152.154 150.433 154.809 150.808C161.924 151.812 164.491 158.639 162.561 164.974C161.2 169.441 161.717 169.239 156.973 169.191L152.594 169.173L47.8606 169.175L41.7266 169.185C40.1622 169.188 38.4515 169.263 36.9271 169.006C36.128 168.486 36.1172 166.847 36.0607 165.976C35.8285 162.391 36.2667 159.099 37.2989 155.66C39.4201 148.596 44.5874 142.338 51.1982 139.047C54.1913 137.583 58.0771 136.512 61.3826 136.193C61.7475 136.158 62.8682 136.14 63.065 136.036C63.0983 135.821 62.7375 134.376 62.6779 133.892C62.3248 130.997 62.5768 128.061 63.4181 125.268C67.369 112.517 82.1105 108.17 92.5392 114.663C92.943 114.915 93.5303 115.347 93.9453 115.478C97.2494 105.39 104.872 96.029 114.473 91.0527C121.045 87.6464 126.986 86.3474 134.39 86.0214Z" fill="#F48020"/>
<path d="M181.868 122.1C190.688 121.551 200.07 124.789 206.875 130.423C207.681 131.113 208.429 131.947 209.192 132.671C217.887 140.925 221.831 154.193 219.19 165.871C218.991 166.755 218.811 167.983 218.207 168.707C217.154 169.28 213.166 169.082 211.84 169.077L178.788 169.072C177.043 169.069 167.394 169.286 166.527 168.954C166.296 168.866 166.027 168.562 165.968 168.321C165.837 167.787 167.622 163.755 167.924 163.165C169.38 160.326 171.228 158.084 173.626 155.994C174.263 155.437 174.874 154.865 175.583 154.399C176.869 153.554 178.256 152.912 179.669 152.315C180.966 151.768 182.279 151.26 183.666 150.988C186.037 150.524 188.427 150.476 190.831 150.359C192.515 150.261 194.198 150.15 195.88 150.024C197.837 149.896 200.005 149.959 201.9 149.537C202.988 149.296 203.504 146.931 201.749 146.81C198.125 146.561 194.489 146.369 190.863 146.13C188.575 145.98 186.156 145.92 183.975 145.192C180.458 144.024 178.2 141.235 177.77 137.552C177.224 132.873 179.476 128.242 180.528 123.748C180.718 122.936 181.134 122.448 181.868 122.1Z" fill="#FBAE41"/>
</g>
<defs>
<clipPath id="clip0_810_37">
<rect width="256" height="256" fill="white"/>
</clipPath>
</defs>
</svg>
