<svg width="256" height="256" viewBox="0 0 256 256" fill="none" xmlns="http://www.w3.org/2000/svg">
<g clip-path="url(#clip0_796_26)">
<path d="M0 25C0 11.1929 11.1929 0 25 0H231C244.807 0 256 11.1929 256 25V231C256 244.807 244.807 256 231 256H25C11.1929 256 0 244.807 0 231V25Z" fill="#E8E8E8"/>
<path d="M175.059 109.046C183.001 108.9 191.463 109.087 199.448 109.088L207.464 109.067C209.144 109.058 211.281 108.967 212.9 109.185C213.049 110.816 212.98 113.346 212.98 115.022L212.981 139.014C212.981 141.594 213.046 144.613 212.925 147.165C212.737 147.435 212.842 147.351 212.489 147.452C209.171 147.57 205.379 147.428 202.011 147.445L174.567 147.471C174.397 145.393 174.485 141.871 174.484 139.723L174.486 115.627C174.488 113.705 174.455 111.639 174.637 109.722C174.678 109.292 174.78 109.244 175.059 109.046Z" fill="#FAAD00"/>
<path d="M174.943 67.0939C175.51 67.0298 176.939 67.0829 177.591 67.088L182.493 67.1021L200.411 67.1286L208.818 67.0986C209.986 67.0934 211.343 67.065 212.521 67.1482C212.732 67.1632 212.77 67.3134 212.904 67.5123C213.053 68.6789 212.978 71.5444 212.978 72.8443L212.986 97.9029C212.989 99.0502 213.058 104.421 212.861 105.13L212.396 105.388C207.794 105.58 202.049 105.39 197.372 105.376C189.809 105.352 182.107 105.501 174.568 105.423C174.664 104.416 174.557 102.893 174.531 101.817C174.501 100.113 174.489 98.4092 174.493 96.7052L174.502 75.9275C174.503 73.2945 174.47 70.4801 174.558 67.8423C174.568 67.5511 174.756 67.3109 174.943 67.0939Z" fill="#FAAD00"/>
<path d="M90.8196 67.1054C93.7832 67.2648 98.62 67.1297 101.646 67.1194L119.297 67.1107C120.756 67.105 127.167 66.8286 128.788 67.4099C129.328 67.6035 129.08 70.8096 129.07 71.7491L129.056 79.0908L129.055 96.2431C129.058 97.6289 129.372 104.593 128.824 105.373C126.437 105.552 122.994 105.434 120.493 105.431L105.65 105.431L96.5038 105.444C95.0865 105.45 92.1673 105.534 90.9002 105.321C90.6371 104.99 90.668 104.374 90.6658 103.959C90.6013 91.9388 90.6326 79.9171 90.6487 67.8964C90.6491 67.6267 90.7269 67.3556 90.8196 67.1054Z" fill="#FAAD00"/>
<path d="M169.318 67.0249C171.303 66.7945 170.939 68.2029 170.99 69.6889C171.155 74.4408 170.997 79.2039 171.054 83.9557C171.132 90.5689 171.1 97.1793 171.078 103.793C171.077 104.19 171.052 104.846 170.905 105.201C169.662 105.591 160.527 105.419 158.369 105.42C150.443 105.459 142.516 105.456 134.589 105.41C134 105.439 133.33 105.552 132.883 105.163C132.536 104.293 132.737 97.0457 132.739 95.4468L132.713 71.8517C132.702 70.6823 132.582 68.5336 132.777 67.5056C133.102 67.1991 134.107 67.1166 134.576 67.1101C146.124 66.9493 157.779 67.3379 169.318 67.0249Z" fill="#FAAD00"/>
<path d="M137.864 109.173L162.67 109.198C165.458 109.213 168.315 109.085 171.076 109.19C171.143 111.605 170.987 115.12 170.983 117.664C171.029 123.979 171.04 130.295 171.019 136.611L171.015 143.043C171.016 144.405 170.966 146.025 171.14 147.357C169.99 147.264 167.684 147.341 166.451 147.346L144.295 147.342C141.399 147.345 135.286 147.517 132.698 147.223C132.949 136.361 132.652 125.405 132.756 114.535C132.773 112.842 132.701 111.146 132.81 109.455C133.179 109.134 137.07 109.183 137.864 109.173Z" fill="#4F4E4E"/>
<path d="M126.64 150.955C127.408 150.953 128.177 150.935 128.944 150.901L128.915 175.643C128.914 179.982 129.037 184.805 128.922 189.093C125.351 188.825 119.221 188.986 115.541 188.99L92.7252 189.018C92.2358 189.002 91.2941 189.072 90.7718 189.095C90.6085 187.532 90.6569 185.497 90.6586 183.898L90.6763 176.05L90.6822 151.027C102.668 150.925 114.654 150.901 126.64 150.955Z" fill="#4F4E4E"/>
<path d="M166.716 150.951L171.139 150.905C170.805 155.068 171.269 188.531 170.734 189.214C170.344 189.353 169.907 189.006 169.372 189.01C167.299 189.023 165.217 188.996 163.143 188.996L137.559 188.988C135.967 188.991 134.356 188.978 132.767 189.057C132.92 180.994 132.797 172.594 132.792 164.503L132.778 156.378C132.786 154.907 132.871 152.556 132.75 151.146C133.972 150.966 135.772 151.004 137.044 151.002L143.392 150.997C151.101 150.989 159.022 151.067 166.716 150.951Z" fill="#4F4E4E"/>
<path d="M212.089 150.856C212.304 150.934 212.615 150.979 212.697 151.21C212.7 151.22 212.904 188.091 212.599 189.263C210.611 188.837 176.848 188.763 175.033 189.243C174.542 188.339 174.766 154.863 174.854 151.049C177.87 150.908 181.452 150.992 184.513 150.992L201.677 151.01C204.863 151.013 208.277 151.071 211.452 150.979C211.745 151.02 211.802 150.971 212.089 150.856Z" fill="#4F4E4E"/>
<path d="M105.707 120.769C107.596 120.447 109.726 121.019 111.333 122.042C112.727 121.285 114.276 120.858 115.861 120.793C121.377 120.585 122.984 122.859 123.002 128.127C123.011 130.508 123.1 132.99 122.981 135.358C122.922 136.555 122.553 136.81 121.51 136.752C114.545 137.838 119.277 128.912 117.111 125.523C116.736 124.937 114.709 125.141 114.053 125.182C113.854 127.523 113.902 130.024 113.912 132.385C113.929 133.434 114.269 136.163 113.342 136.673C112.921 136.737 112.555 136.749 112.141 136.752C109.233 136.772 108.661 136.502 108.612 133.579C108.571 131.047 108.692 128.307 108.411 125.823C106.965 124.964 106.578 125.104 104.868 125.223C104.542 128.784 104.833 132.959 104.706 136.602C104.588 136.622 104.469 136.638 104.35 136.651C102.027 136.899 99.2839 137.268 99.2577 134.235C99.116 131.124 99.2319 128.004 99.2815 124.893C99.3314 121.772 103.139 121.012 105.707 120.769Z" fill="#4F4E4E"/>
<path d="M86.37 120.771C86.466 120.757 86.5623 120.746 86.6588 120.737C88.9969 120.525 92.1719 121.005 93.8062 122.535C99.2146 127.597 96.5202 138.066 88.0366 136.983C87.5574 136.922 86.3911 136.855 85.953 136.898C86.1761 138.225 86.0129 140.614 85.9555 142.022C84.8621 142.142 81.7643 142.401 80.976 141.469C80.5095 140.644 80.3676 138.879 80.4213 137.989C80.6945 133.466 79.96 127.758 80.5997 123.356C82.5857 121.239 83.557 121.061 86.37 120.771ZM89.8346 132.197C90.4302 131.566 90.6748 131.165 90.8309 130.31C91.3743 127.335 90.6672 124.91 87.2601 125.104C87.02 125.118 86.7806 125.143 86.5425 125.176L86.1951 125.282C85.7885 126.152 86.0228 131.435 86.1293 132.643C87.4634 132.704 88.625 132.838 89.8346 132.197Z" fill="#4F4E4E"/>
<path d="M49.5588 120.768C53.2281 120.865 56.3099 121.264 58.1214 124.756C61.0943 130.487 57.4382 138.07 50.3604 136.989C50.033 136.939 48.6178 136.825 48.3752 136.955L48.3963 137.144C48.4613 138.771 48.4226 140.402 48.2805 142.024C43.5545 142.317 42.928 142.521 43.0186 137.287C43.0933 132.964 42.8942 128.499 43.0869 124.165C43.2166 121.25 47.3898 120.904 49.5588 120.768ZM48.4869 132.609C49.9301 132.706 50.9482 132.893 52.21 132.13C54.4861 129.765 53.9498 124.988 49.9387 125.098C49.6584 125.105 49.3784 125.121 49.0991 125.146C48.6886 125.233 48.6581 125.162 48.4624 125.439C48.285 126.89 48.3687 131.121 48.4869 132.609Z" fill="#4F4E4E"/>
<path d="M62.1118 123.122C65.0428 120.648 69.9279 120.138 73.4814 121.299C78.5504 122.955 76.7664 130.509 77.1654 134.46C77.2154 134.956 77.1668 136.033 76.9224 136.485C76.2606 137.091 73.1679 136.645 72.411 136.385C71.4036 136.04 71.5511 133.064 71.5277 132.413C71.4426 130.031 71.8787 127.532 71.1191 125.28C69.4599 125.003 68.9831 125.107 67.2807 125.296C67.0389 127.315 67.0845 129.474 67.1177 131.508C67.0878 132.918 67.1973 135.423 67.0059 136.668C65.1081 136.803 64.073 136.987 62.2971 136.261C62.1265 135.945 61.8952 135.422 61.8879 135.078C61.8286 132.321 61.4993 125.53 62.1118 123.122Z" fill="#4F4E4E"/>
</g>
<defs>
<clipPath id="clip0_796_26">
<rect width="256" height="256" fill="white"/>
</clipPath>
</defs>
</svg>
