<svg width="256" height="256" viewBox="0 0 256 256" fill="none" xmlns="http://www.w3.org/2000/svg">
<g clip-path="url(#clip0_759_21)">
<path d="M0 25C0 11.1929 11.1929 0 25 0H231C244.807 0 256 11.1929 256 25V231C256 244.807 244.807 256 231 256H25C11.1929 256 0 244.807 0 231V25Z" fill="#E8E8E8"/>
<path d="M51.8165 92.404C51.934 92.3034 51.8778 92.3602 51.9696 92.2513C52.8864 91.1642 54.2165 90.3805 55.4869 89.8193C57.3126 89.0129 59.1485 88.3388 60.9927 87.6131C65.3869 85.8579 69.7909 84.127 74.2043 82.4207L105.98 70.0439C109.684 68.6058 113.399 67.1956 117.124 65.8131C123.119 63.5981 129.966 60.7741 136.401 62.5705C141.156 63.8977 145.921 65.8878 150.533 67.6752L191.426 83.6929C195.007 85.0663 198.718 86.4211 202.251 87.9083C203.39 88.3881 205.063 89.3512 205.69 90.4092C206.105 91.1349 205.941 95.6173 205.941 96.7674V102.76C205.941 103.869 206.063 107.446 205.488 108.277C204.062 110.339 200.735 111.423 198.942 112.821L198.867 113.155C200.757 113.486 204.854 115.204 205.727 116.999C206.233 117.683 205.832 131.423 205.861 133.263C205.899 135.699 202.002 137.34 200.281 138.468C200.136 138.572 200.027 138.916 199.976 139.082C201.687 139.252 204.784 140.934 205.707 142.396C206.347 143.479 205.704 155.868 205.938 157.948C206.001 158.514 205.847 159.442 205.569 159.945C204.384 161.715 202.215 162.857 200.396 163.876C194.332 166.899 187.938 169.588 181.73 172.268L154.206 184.147C150.401 185.775 146.381 187.594 142.662 189.354C136.9 192.082 131.413 195.517 124.689 194.155C121.105 193.429 117.678 191.553 114.297 190.088C110.205 188.324 106.1 186.588 101.983 184.881L74.1512 173.314C68.5516 170.978 62.8672 168.713 57.3864 166.11C55.7302 165.323 52.3276 163.704 51.7031 161.844C51.4119 160.977 51.4026 147.078 51.515 145.436C51.5415 145.049 51.627 144.662 51.8044 144.314C51.819 144.285 51.8349 144.257 51.8501 144.229C52.0361 144.073 52.2082 143.826 52.3876 143.682C53.4504 142.826 55.619 141.273 56.9446 141.312C57.0222 141.195 57.0944 141.086 57.1502 140.957C57.2303 140.772 57.2885 140.664 57.1584 140.472C56.8972 140.086 52.4717 138.479 51.7739 136.604C51.3771 135.538 51.3904 121.713 51.5238 119.848C51.5521 119.453 51.6804 119.105 51.8378 118.744C52.1124 118.561 52.3221 118.243 52.5861 118.03C53.8654 116.997 55.3217 116.231 56.8406 115.613C57.4076 115.383 57.8007 115.207 58.4292 115.262C58.4027 115.063 58.3504 114.691 58.1923 114.551C57.8164 114.22 57.0175 113.981 56.5508 113.759C55.2811 113.154 52.2962 111.541 51.7751 110.245C51.3965 109.303 51.3929 95.3149 51.5232 93.4178C51.5483 93.052 51.6576 92.7316 51.8165 92.404Z" fill="#D82A1E"/>
<path d="M58.4292 115.262C58.819 115.205 59.0752 115.17 59.4463 115.317C61.0313 115.944 62.6045 116.69 64.1701 117.373L72.9555 121.117L106.284 135.034C111.46 137.213 116.64 139.585 121.821 141.691C124.731 142.874 129.148 142.942 132.149 142.11C135.412 141.206 138.986 139.306 142.107 137.823C145.445 136.261 148.799 134.733 152.169 133.239L197.995 113.128C198.485 112.912 198.357 112.954 198.867 113.155C200.757 113.486 204.854 115.204 205.727 116.999C206.233 117.683 205.832 131.423 205.861 133.263C205.899 135.699 202.002 137.34 200.281 138.468C200.136 138.572 200.027 138.916 199.976 139.082C201.687 139.252 204.784 140.934 205.707 142.396C206.347 143.479 205.704 155.868 205.938 157.948C206.001 158.514 205.847 159.442 205.569 159.945C204.384 161.715 202.215 162.857 200.396 163.876C194.332 166.899 187.938 169.588 181.73 172.268L154.206 184.147C150.401 185.775 146.381 187.594 142.662 189.354C136.9 192.082 131.413 195.517 124.689 194.155C121.105 193.429 117.678 191.553 114.297 190.088C110.205 188.324 106.1 186.588 101.983 184.881L74.1512 173.314C68.5516 170.978 62.8672 168.713 57.3864 166.11C55.7302 165.323 52.3276 163.704 51.7031 161.844C51.4119 160.977 51.4026 147.078 51.515 145.436C51.5415 145.049 51.627 144.662 51.8044 144.314C51.819 144.285 51.8349 144.257 51.8501 144.229C52.0361 144.073 52.2082 143.826 52.3876 143.682C53.4504 142.826 55.619 141.273 56.9446 141.312C57.0222 141.195 57.0944 141.086 57.1502 140.957C57.2303 140.772 57.2885 140.664 57.1584 140.472C56.8972 140.086 52.4717 138.479 51.7739 136.604C51.3771 135.538 51.3904 121.713 51.5238 119.848C51.5521 119.453 51.6804 119.105 51.8378 118.744C52.1124 118.561 52.3221 118.243 52.5861 118.03C53.8654 116.997 55.3217 116.231 56.8406 115.613C57.4076 115.383 57.8007 115.207 58.4292 115.262Z" fill="#A31D10"/>
<path d="M56.9446 141.312C57.5098 141.407 57.4144 140.91 58.278 141.284C62.4111 143.074 66.5289 144.936 70.6889 146.663L105.516 161.22L116.652 166.005C120.485 167.664 123.072 169.14 127.379 169.184C129.264 169.22 131.143 168.954 132.944 168.396C135.349 167.663 139.319 165.655 141.715 164.526C145.606 162.69 149.524 160.908 153.466 159.183L187.755 144.261C190.882 142.893 196.195 140.512 199.487 138.961C199.679 139.009 199.842 139.049 199.976 139.082C201.687 139.252 204.784 140.934 205.707 142.396C206.347 143.479 205.704 155.868 205.938 157.948C206.001 158.514 205.847 159.442 205.569 159.945C204.384 161.715 202.215 162.857 200.396 163.876C194.332 166.899 187.938 169.588 181.73 172.268L154.206 184.147C150.401 185.775 146.381 187.594 142.662 189.354C136.9 192.082 131.413 195.517 124.689 194.155C121.105 193.429 117.678 191.553 114.297 190.088C110.205 188.324 106.1 186.588 101.983 184.881L74.1512 173.314C68.5516 170.978 62.8672 168.713 57.3864 166.11C55.7302 165.323 52.3276 163.704 51.7031 161.844C51.4119 160.977 51.4026 147.078 51.515 145.436C51.5415 145.049 51.627 144.662 51.8044 144.314C51.819 144.285 51.8349 144.257 51.8501 144.229C52.0361 144.073 52.2082 143.826 52.3876 143.682C53.4504 142.826 55.619 141.273 56.9446 141.312Z" fill="#A31D10"/>
<path d="M56.9446 141.312C57.5098 141.407 57.4144 140.91 58.278 141.284C62.4111 143.074 66.5289 144.936 70.6889 146.663L105.516 161.22L116.652 166.005C120.485 167.664 123.072 169.14 127.379 169.184C129.264 169.22 131.143 168.954 132.944 168.396C135.349 167.663 139.319 165.655 141.715 164.526C145.606 162.69 149.524 160.908 153.466 159.183L187.755 144.261C190.882 142.893 196.195 140.512 199.487 138.961C199.679 139.009 199.842 139.049 199.976 139.082C201.687 139.252 204.784 140.934 205.707 142.396C205.703 143.042 205.721 144.014 205.665 144.64C204.321 146.104 203.105 146.986 201.327 147.889C194.955 151.126 188.167 154.011 181.602 156.836L158.336 166.938C153.311 169.09 148.322 171.327 143.372 173.645C136.961 176.622 130.214 180.825 122.856 178.391C119.657 177.332 116.338 175.674 113.228 174.306C108.993 172.475 104.743 170.678 100.481 168.911L76.2639 158.803C69.5891 156.02 62.8648 153.266 56.3312 150.153C54.4345 149.249 53.2719 148.467 51.8617 146.884C51.8096 145.905 51.8132 145.21 51.8501 144.229C52.0361 144.073 52.2082 143.826 52.3876 143.682C53.4504 142.826 55.619 141.273 56.9446 141.312Z" fill="#D82A1E"/>
<path d="M58.4292 115.262C58.819 115.205 59.0752 115.17 59.4463 115.317C61.0313 115.944 62.6045 116.69 64.1701 117.373L72.9555 121.117L106.284 135.034C111.46 137.213 116.64 139.585 121.821 141.691C124.731 142.874 129.148 142.942 132.149 142.11C135.412 141.206 138.986 139.306 142.107 137.823C145.445 136.261 148.799 134.733 152.169 133.239L197.995 113.128C198.485 112.912 198.357 112.954 198.867 113.155C200.757 113.486 204.854 115.204 205.727 116.999C205.677 117.744 205.742 118.483 205.645 119.206C202.133 122.565 196.317 124.789 191.812 126.769L183.834 130.31L157.616 141.686C152.528 143.918 147.468 146.214 142.438 148.573C136.137 151.49 129.944 155.251 122.78 152.778C119.361 151.597 116.084 149.988 112.759 148.56L96.1234 141.552C87.2681 137.895 78.4352 134.185 69.6253 130.42C65.4558 128.633 61.2053 126.918 57.0978 124.975C55.2863 124.118 53.6673 123.248 52.285 121.772C52.1352 121.61 51.9939 121.441 51.8619 121.265C51.8342 120.503 51.8816 119.405 51.8378 118.744C52.1124 118.561 52.3221 118.243 52.5861 118.03C53.8654 116.997 55.3217 116.231 56.8406 115.613C57.4076 115.383 57.8007 115.207 58.4292 115.262Z" fill="#D82A1E"/>
<path d="M205.69 90.4092C206.105 91.1349 205.941 95.6173 205.941 96.7674V102.76C205.941 103.869 206.063 107.446 205.488 108.277C204.062 110.339 200.735 111.423 198.942 112.821L198.867 113.155C198.357 112.954 198.485 112.912 197.995 113.128L152.169 133.239C148.799 134.733 145.445 136.261 142.107 137.823C138.986 139.306 135.412 141.206 132.149 142.11C129.148 142.942 124.731 142.874 121.821 141.691C116.64 139.585 111.46 137.213 106.284 135.034L72.9555 121.117L64.1701 117.373C62.6045 116.69 61.0313 115.944 59.4463 115.317C59.0752 115.17 58.819 115.205 58.4292 115.262C58.4027 115.063 58.3504 114.691 58.1923 114.551C57.8164 114.22 57.0175 113.981 56.5508 113.759C55.2811 113.154 52.2962 111.541 51.7751 110.245C51.3965 109.303 51.3929 95.3149 51.5232 93.4178C51.5483 93.052 51.6576 92.7316 51.8165 92.404C51.855 93.1876 51.8396 93.9853 51.8356 94.7707C52.5825 95.614 53.5137 96.6069 54.502 97.1479C57.2239 98.6379 60.2053 99.9052 63.0483 101.12L72.6047 105.192L102.144 117.561C106.453 119.358 110.75 121.186 115.033 123.044C119.753 125.111 123.53 127.333 128.881 126.956C133.876 126.604 137.884 124.172 142.306 122.082C146.186 120.252 150.091 118.479 154.022 116.763L181.655 104.764C185.4 103.152 189.132 101.511 192.853 99.8432C196.17 98.3614 203.885 95.3154 205.701 92.3148C205.711 91.6796 205.708 91.0442 205.69 90.4092Z" fill="#A31D10"/>
<path d="M95.6899 85.6019C101.448 85.4634 109.653 86.2033 114.32 89.8488C118.581 93.1777 114.61 96.6408 111.05 98.0672C106.962 99.7051 103.074 100.185 98.7129 100.438C92.6429 100.612 84.7784 99.8538 79.7207 96.1106C77.9078 94.7688 77.2607 92.0951 79.0032 90.4363C83.0833 86.5522 90.3843 85.8465 95.6899 85.6019Z" fill="#FDFCFC"/>
<path d="M141.139 92.7227C142.819 92.3412 146.996 90.5544 148.754 89.8493L164.298 83.5627C164.703 83.4011 164.679 83.3783 164.993 83.5113C169.22 85.2965 173.706 87.0849 177.986 88.7346C179.905 89.474 183.916 91.2613 185.747 91.7715C184.128 92.6085 181.708 93.4066 179.955 94.1383C175.059 96.1819 169.984 97.9933 165.117 100.086C164.348 100.504 163.131 100.975 162.311 101.301C160.466 100.357 157.359 99.2405 155.358 98.4359L141.139 92.7227Z" fill="#A31D10"/>
<path d="M164.993 83.5113C169.22 85.2965 173.706 87.0849 177.986 88.7346C179.905 89.474 183.916 91.2613 185.747 91.7715C184.128 92.6085 181.708 93.4066 179.955 94.1383C175.059 96.1819 169.984 97.9933 165.117 100.086L164.843 99.9532L164.835 99.8467C164.738 98.4432 164.743 83.8011 164.993 83.5113Z" fill="#780B01"/>
<path d="M141.883 100.814L142.234 100.809L142.272 100.978C139.771 104.306 137.372 108.435 134.903 111.853C134.118 112.941 132.344 115.872 131.435 116.56C129.27 115.511 126.609 114.49 124.355 113.568L114.596 109.493C112.621 108.675 108.378 107.043 106.663 106.094C110.799 105.646 114.914 104.944 119.031 104.31L141.883 100.814Z" fill="#FDFCFC"/>
<path d="M120.373 70.106C121.278 70.5482 130.794 74.434 131.317 74.2681C132.582 73.8667 133.818 73.3714 135.081 72.9584C137.123 72.2901 139.204 71.6875 141.209 70.9138C140.651 72.2508 139.034 76.4733 138.417 77.4607C141.499 78.9451 145.542 80.2145 148.764 81.5306C147.781 81.721 146.378 81.7821 145.349 81.9132C142.212 82.313 139.07 82.4804 135.932 82.858L135.587 82.9555C134.995 83.5479 132.917 89.0855 132.531 90.1818C131.067 88.2058 129.069 83.7856 127.587 82.0447C126.097 81.9757 124.443 81.746 122.938 81.6209C119.373 81.3532 115.813 81.0363 112.257 80.6706C113.466 80.1107 115.131 79.5557 116.414 79.0909L123.729 76.4443C123.287 75.6747 120.413 70.5357 120.373 70.106Z" fill="#FDFCFC"/>
<path d="M50.2805 144.539L50.4319 144.641C50.5851 144.888 50.4944 147.845 50.4938 148.351L50.4949 158.071C50.497 159.106 50.5954 161.298 50.5317 162.206C50.1696 162.052 50.2698 162.149 50.0506 161.853C49.9355 157.291 50.0785 149.607 50.0763 144.81C50.1561 144.704 50.2242 144.613 50.2805 144.539Z" fill="#A31D10" fill-opacity="0.01"/>
<path d="M50.2402 92.4298L50.5479 92.6537C50.5078 98.634 50.4959 104.381 50.5599 110.368L50.0955 110.111C50.0005 109.251 49.9576 93.081 50.0559 92.7271C50.0792 92.6431 50.1911 92.5089 50.2402 92.4298Z" fill="#D82A1E" fill-opacity="0.0117647"/>
<path d="M50.0455 119.016L50.4274 119.149C50.6453 119.46 50.4457 122.139 50.4652 122.747C50.6121 127.317 50.2947 132.029 50.5698 136.585C50.5103 136.592 50.2712 136.567 50.1961 136.561C50.0618 136.402 49.9718 120.769 50.0455 119.016Z" fill="#FC1200" fill-opacity="0.01"/>
</g>
<defs>
<clipPath id="clip0_759_21">
<rect width="256" height="256" fill="white"/>
</clipPath>
</defs>
</svg>
