<svg width="256" height="256" viewBox="0 0 256 256" fill="none" xmlns="http://www.w3.org/2000/svg">
<g clip-path="url(#clip0_796_92)">
<path d="M0 25C0 11.1929 11.1929 0 25 0H231C244.807 0 256 11.1929 256 25V231C256 244.807 244.807 256 231 256H25C11.1929 256 0 244.807 0 231V25Z" fill="#E8E8E8"/>
<path d="M48.0799 48.0353L137.612 48.0204C145.681 48.0201 152.33 47.7184 160.309 49.4461C181.068 53.9409 195.235 69.6516 195.059 91.3579C194.858 115.909 175.235 131.851 151.835 133.402C144.682 133.876 137.203 133.6 130.026 133.574C133.111 136.362 136.388 139.695 139.425 142.582L190.496 191.289C195.69 196.146 200.822 201.067 205.892 206.054C206.285 206.412 206.845 206.826 207 207.299C206.066 207.921 175.958 207.706 172.334 207.708L160.944 207.723C158.42 207.742 155.378 207.873 152.909 207.637C151.043 206.29 147.008 202.212 145.29 200.572L107.967 165.085C103.084 160.479 97.9712 155.602 93.2019 151.073C84.8442 143.138 85.3904 131.324 96.9314 127.17C99.3212 126.31 101.691 125.86 104.117 125.198L122.572 120.193C130.546 118.016 135.882 117.269 142.184 111.03C150.806 102.491 151.289 87.6097 142.452 79.0893C134.685 71.6008 124.365 72.0206 114.38 72.0265L98.5519 72.037C81.8094 72.0375 64.7129 71.8456 48 72.0573C48.1583 69.8716 48.0483 66.4281 48.046 64.1682C48.0149 58.7906 48.0262 53.4128 48.0799 48.0353Z" fill="black"/>
</g>
<defs>
<clipPath id="clip0_796_92">
<rect width="256" height="256" fill="white"/>
</clipPath>
</defs>
</svg>
