<svg width="256" height="256" viewBox="0 0 256 256" fill="none" xmlns="http://www.w3.org/2000/svg">
<g clip-path="url(#clip0_796_5)">
<path d="M0 25C0 11.1929 11.1929 0 25 0H231C244.807 0 256 11.1929 256 25V231C256 244.807 244.807 256 231 256H25C11.1929 256 0 244.807 0 231V25Z" fill="#1F222C"/>
<path d="M76.2707 44H81.5472C82.5565 44.4559 84.065 44.333 85.156 44.5297C86.3668 44.7481 87.5617 44.9899 88.7437 45.3344C96.6005 47.615 103.414 52.569 108.005 59.3401C119.869 76.6429 113.589 101.013 94.6883 110.314C90.9988 112.13 87.0976 113.32 83.0082 113.765C81.7965 113.896 80.5245 113.905 79.301 113.98C79.6372 114.991 79.8245 115.756 80.2322 116.787C81.9372 121.1 84.8161 124.176 88.9428 126.268C93.1428 128.397 96.0522 127.819 100.291 127.984C100.278 126.874 100.562 125.911 100.845 124.851C103.636 114.39 113.514 107.103 124.265 106.978C135.219 106.85 145.009 114.084 148.019 124.617C148.32 125.668 148.639 126.912 148.718 128.008C153.33 127.937 158.654 127.906 163.269 128.007C163.248 127.223 163.491 126.275 163.679 125.503C167.995 107.803 190.154 100.968 203.763 113.122C207.992 116.899 210.84 121.88 211.636 127.512C211.728 128.187 211.769 129.23 212 129.83V133.511C211.735 134.371 211.733 135.341 211.549 136.22C206.257 161.515 171.317 162.813 163.94 138.201C163.793 137.713 163.359 135.47 163.192 135.184C162.339 135.049 161.361 135.096 160.494 135.081C156.571 135.014 152.62 135.144 148.699 135.068C148.517 138.373 146.627 142.535 144.794 145.254C139.84 152.603 131.642 156.454 122.867 155.928C116.502 155.534 110.548 152.648 106.295 147.897C103.258 144.467 100.657 139.614 100.346 134.978C93.1235 135.473 86.3663 134.058 80.7027 129.287C80.085 128.767 79.454 128.137 78.9798 127.481C79.1826 131.114 79.0947 135.009 79.0903 138.668L79.09 155.588C79.0924 159.062 78.8232 164.18 79.5061 167.464C81.1652 175.444 88.1556 182.312 96.2275 183.63C97.5772 183.851 98.9384 183.844 100.253 184.054C100.802 178.128 104.32 172.307 108.873 168.586C119.404 159.979 135.021 161.447 143.584 172.121C151.989 182.595 150.458 197.689 140.263 206.346C137.438 208.743 133.788 210.494 130.203 211.393C129.299 211.612 127.119 211.752 126.468 212H122.398C122.024 211.852 121.508 211.804 121.107 211.756C111.907 210.657 103.832 203.713 101.137 194.885C100.763 193.659 100.558 192.385 100.201 191.14C99.8812 191.041 97.8361 190.925 97.358 190.881C89.9792 190.23 83.1743 186.632 78.4819 180.9C71.3138 172.262 71.9324 164.995 71.9385 154.454L71.9381 121.33C71.9415 119.163 71.8394 115.36 72.0284 113.328C58.1522 110.553 46.9224 99.2035 44.5405 85.2052C44.372 84.2148 44.3918 82.4383 44 81.5587V75.6841C44.3455 75.1856 44.4949 72.7223 44.6515 71.9082C47.3592 57.8297 59.3669 46.4429 73.5594 44.4883C74.3123 44.3846 75.5645 44.2531 76.2707 44ZM80.9701 106.867C96.3147 105.787 107.9 92.5075 106.89 77.1582C105.879 61.8088 92.652 50.1634 77.2983 51.1048C61.8463 52.0524 50.11 65.3825 51.1272 80.8301C52.1444 96.2775 65.5273 107.954 80.9701 106.867ZM125.791 204.899C135.383 204.193 142.595 195.86 141.916 186.266C141.239 176.673 132.926 169.436 123.33 170.087C113.697 170.741 106.425 179.094 107.106 188.727C107.787 198.359 116.161 205.606 125.791 204.899ZM187.899 148.944C197.514 148.728 205.143 140.774 204.954 131.158C204.765 121.542 196.83 113.892 187.214 114.055C177.561 114.218 169.875 122.19 170.065 131.843C170.255 141.495 178.247 149.16 187.899 148.944ZM124.852 148.941C134.469 148.753 142.118 140.816 141.953 131.199C141.788 121.582 133.869 113.913 124.252 114.055C114.602 114.198 106.901 122.149 107.067 131.799C107.233 141.449 115.202 149.131 124.852 148.941Z" fill="#1F89FE"/>
<path d="M77.2983 51.1048C92.652 50.1634 105.879 61.8088 106.89 77.1582C107.9 92.5075 96.3147 105.787 80.9701 106.867C65.5273 107.954 52.1444 96.2775 51.1272 80.8301C50.11 65.3825 61.8463 52.0524 77.2983 51.1048ZM71.9428 90.361C72.9015 89.5118 75.778 87.7852 77.0182 87.0367C78.7467 85.9934 80.8399 84.5684 82.5618 83.6142C84.2885 82.5418 88.1869 79.9767 89.8705 79.1689L71.9854 67.8412C72.1904 72.0771 72.0033 77.0185 72.0451 81.3022C72.0664 83.4822 72.186 88.4486 71.9428 90.361Z" fill="#5BA7FF" fill-opacity="0.01"/>
<path d="M71.3088 60.9408C74.3845 60.5301 76.6083 62.3426 79.0652 63.8963L84.5557 67.373C87.5879 69.2813 90.5959 71.1412 93.6406 73.107C96.2404 74.7318 97.203 77.6983 96.6729 80.6258C96.0328 84.1605 93.4063 85.2186 90.6662 86.9529C88.6023 88.2594 86.4838 89.5029 84.4429 90.8397C81.1998 92.6702 77.0124 95.9197 73.5525 97.0568C71.7745 97.439 69.4901 96.8625 68.0671 95.8892C64.6049 93.521 64.9512 90.2752 64.9596 86.512L64.9678 80.0483L64.9559 72.0672C64.9541 70.344 64.9224 68.624 65.0808 66.9063C65.3868 63.5885 68.1843 61.4555 71.3088 60.9408ZM71.9428 90.361C72.9015 89.5118 75.778 87.7852 77.0182 87.0367C78.7467 85.9934 80.8399 84.5684 82.5618 83.6142C84.2885 82.5418 88.1869 79.9767 89.8705 79.1689L71.9854 67.8412C72.1904 72.0771 72.0033 77.0185 72.0451 81.3022C72.0664 83.4822 72.186 88.4486 71.9428 90.361Z" fill="#1F89FE"/>
<path d="M117.027 182.234C119.914 181.974 122.469 184.096 122.745 186.981C123.021 189.867 120.914 192.434 118.03 192.725C115.123 193.02 112.532 190.893 112.253 187.985C111.975 185.076 114.117 182.497 117.027 182.234ZM117.708 189.225C118.598 189.108 119.248 188.325 119.199 187.428C119.173 186.952 118.951 186.508 118.586 186.202C118.22 185.897 117.744 185.757 117.271 185.815C116.327 185.934 115.658 186.795 115.779 187.74C115.9 188.683 116.764 189.349 117.708 189.225Z" fill="#1F89FE"/>
<path d="M130.985 182.244C133.844 181.964 136.4 184.028 136.727 186.883C137.053 189.737 135.031 192.326 132.182 192.699C130.298 192.946 128.427 192.158 127.287 190.636C126.148 189.115 125.917 187.099 126.683 185.36C127.449 183.62 129.094 182.43 130.985 182.244ZM131.918 189.196C132.847 188.971 133.419 188.037 133.196 187.106C132.972 186.176 132.039 185.603 131.108 185.824C130.175 186.046 129.599 186.983 129.823 187.915C130.047 188.848 130.986 189.422 131.918 189.196Z" fill="#1F89FE"/>
<path d="M193.891 123.143C194.031 123.129 194.172 123.119 194.313 123.114C196.364 123.021 198.058 124.355 198.134 126.491C198.187 127.978 197.402 128.936 196.406 129.948L189.925 136.424C189.082 137.265 188.149 138.165 187.331 139.007C183.764 142.679 181.923 140.447 179.145 137.585C177.684 136.081 175.137 134.275 175.163 132.247C175.143 131.355 175.435 130.385 176.117 129.748C179.452 126.631 181.831 130.355 183.871 132.401L189.458 126.718C190.817 125.36 192.067 123.832 193.891 123.143Z" fill="#1F89FE"/>
<path d="M131.051 123.125C134.698 122.8 136.531 126.65 133.932 129.292C130.748 132.565 127.471 135.751 124.244 138.984C123.342 139.888 122.484 140.844 121.094 140.885C118.832 140.95 117.429 138.775 115.918 137.371C114.576 136.042 112.227 134.229 112.127 132.304C112.084 131.385 112.41 130.486 113.034 129.809C114.146 128.6 116.116 128.131 117.509 129.157C118.752 130.072 119.803 131.327 120.915 132.417C121.576 131.549 123.855 129.372 124.741 128.494C126.32 126.928 128.079 125.05 129.794 123.663C130.067 123.442 130.697 123.242 131.051 123.125Z" fill="#1F89FE"/>
<path d="M123.368 156.141C124.083 156.047 124.873 156.093 125.588 156.144C124.735 156.201 124.214 156.215 123.368 156.141Z" fill="#1F89FE" fill-opacity="0.0117647"/>
<path d="M163.229 183.994C163.374 182.201 163.988 180.18 164.622 178.506C169.37 165.968 184.365 159.549 196.844 164.817C203.526 167.578 208.662 173.128 210.896 180.003C211.137 180.767 211.337 181.534 211.499 182.319C211.676 183.176 211.65 184.504 212 185.265V189.622C211.772 190.35 211.715 191.174 211.593 191.93C210.076 201.349 202.492 209.236 193.221 211.379C192.761 211.486 190.288 211.868 190.093 212H185.281C184.816 211.838 183.02 211.628 182.357 211.489C180.327 211.064 178.422 210.387 176.571 209.46C171.487 206.877 167.432 202.645 165.067 197.457C164.305 195.811 163.792 193.931 163.428 192.159C163.39 191.972 163.22 191.154 163.118 191.144C161.134 190.936 158.775 191.721 157.057 190.212C156.412 189.644 155.982 188.764 155.913 187.846C155.849 187.005 156.345 185.754 156.918 185.136C158.153 183.799 161.412 184.034 163.229 183.994ZM188.557 204.905C198.195 204.323 205.523 196.021 204.906 186.387C204.288 176.752 195.959 169.453 186.326 170.106C176.744 170.756 169.493 179.032 170.106 188.617C170.721 198.201 178.97 205.484 188.557 204.905Z" fill="#5BA7FF"/>
</g>
<defs>
<clipPath id="clip0_796_5">
<rect width="256" height="256" fill="white"/>
</clipPath>
</defs>
</svg>
