<svg width="256" height="256" viewBox="0 0 256 256" fill="none" xmlns="http://www.w3.org/2000/svg">
<g clip-path="url(#clip0_796_107)">
<path d="M0 25C0 11.1929 11.1929 0 25 0H231C244.807 0 256 11.1929 256 25V231C256 244.807 244.807 256 231 256H25C11.1929 256 0 244.807 0 231V25Z" fill="#1F222C"/>
<path d="M129.482 193.935C123.147 194.46 116.77 194.095 110.536 192.853C91.9224 189.287 75.4872 178.474 64.8454 162.792C59.3339 154.62 55.5569 145.405 53.7477 135.716C53.3452 133.602 53.1269 131.803 52.8792 129.695C52.7435 128.538 52.174 127.656 52.0459 126.099C51.8408 123.603 52.3788 122.018 52.5537 119.808C52.8589 115.952 53.0974 112.936 53.8434 109.108C57.4443 90.4836 68.2916 74.0511 84.0014 63.4216C94.7224 56.2221 106.965 52.1093 119.827 51.3389C121.547 51.2359 123.217 50.9596 124.949 51.005C126.336 51.0413 127.691 51.24 129.07 51.3566C132.185 51.6196 135.109 52.0106 138.175 52.6155C156.736 56.3788 173.056 67.3294 183.575 83.0789C191.447 94.9431 195.603 108.885 195.514 123.123C195.503 126.408 195.242 130.581 194.608 133.796C195.115 134.587 195.794 135.439 196.343 136.226C197.154 137.391 197.896 138.602 198.567 139.853C203.717 149.289 205.273 160.271 202.946 170.767C200.365 182.325 193.285 192.38 183.271 198.703C173.309 205.027 161.231 207.097 149.733 204.453C144.984 203.377 140.447 201.522 136.305 198.963C134.322 197.737 132.513 196.459 130.784 194.903C130.509 194.654 129.794 194.012 129.482 193.935ZM93.7682 122.028C96.6039 121.89 100.361 122.016 103.289 122.016L132.412 122.014C133.775 122.013 137.019 121.931 138.208 122.157C139.456 121.581 140.642 120.942 141.921 120.382C144.807 119.148 147.811 118.208 150.887 117.576C152.345 117.274 153.783 117.215 155.155 116.945L155.243 116.927C154.903 111.054 154.437 105.641 153.389 99.8171C152.869 96.9273 152.258 94.3859 151.663 91.5545C146.76 91.6895 141.447 91.6111 136.525 91.5798L106.511 91.5596C103.638 91.5614 100.268 91.6501 97.4293 91.5334L97.41 91.6839C97.2583 92.8294 96.8867 94.3664 96.632 95.5182C96.1883 97.5245 95.8224 99.3884 95.4911 101.417C94.4142 108.236 93.8384 115.125 93.7682 122.028ZM161.13 116.743C166.76 117.132 171.228 117.883 176.518 120.086C178.113 120.75 179.595 121.583 181.096 122.221C182.552 121.922 187.822 122.002 189.584 122C189.356 110.597 186.969 101.714 181.799 91.6073C180.452 91.6444 179.105 91.6376 177.758 91.6382C173.477 91.6399 169.196 91.6417 164.916 91.6351C162.513 91.6314 160.115 91.5217 157.714 91.6643C159.616 97.9603 161.066 109.954 161.13 116.743ZM115.315 157.476C115.811 154.506 115.82 153.03 116.616 149.934C118.351 143.271 121.614 137.102 126.147 131.917C127.319 130.558 128.75 129.019 130.163 127.907C125.889 128.043 120.888 127.906 116.53 127.906L94.2648 127.907L94.0255 127.9C93.7948 128.263 94.0341 130.301 94.0624 130.791C94.5164 138.657 95.6879 146.483 97.6658 154.112C97.9558 155.231 98.3395 156.46 98.5544 157.58C102.426 157.426 106.588 157.65 110.487 157.565C111.737 157.537 114.199 157.651 115.315 157.476ZM60.5176 127.89L58.6509 127.932C59.9375 139.698 62.4543 147.362 68.4755 157.58C75.6686 157.39 83.5589 157.57 90.8169 157.552L92.439 157.559C90.4277 150.189 89.0852 142.654 88.4277 135.044C88.2285 132.818 87.988 130.077 88.025 127.866L69.2556 127.88C66.3907 127.88 63.3725 127.831 60.5176 127.89ZM70.3643 85.6069C76.0617 85.5874 81.7593 85.597 87.4567 85.6359C88.8646 85.6596 91.8102 85.5721 93.0393 85.6944C95.2615 78.6573 97.7378 72.336 101.808 66.0941C103.063 64.1365 104.471 62.2815 106.019 60.5467C106.265 60.2727 107.006 59.6033 107.015 59.3502L106.919 59.3424C93.8974 63.3886 85.221 68.3503 75.7729 78.3541C74.0421 80.1841 72.4395 82.1311 70.9763 84.1814C70.756 84.4861 70.0094 85.2726 70.0995 85.6038L70.3643 85.6069ZM149.946 85.773C147.08 76.4041 140.758 63.5921 131.755 58.7536C128.72 57.1225 126.56 56.9335 123.184 57.0923C118.16 57.3322 113.838 60.7148 110.597 64.3222C105.022 70.5273 101.925 77.9733 99.227 85.7154C100.066 85.6066 101.425 85.6526 102.311 85.654L141.334 85.7315C143.741 85.7309 147.642 85.6034 149.946 85.773ZM156.079 85.7791C158.617 85.5515 163.137 85.7871 165.854 85.7861L173.935 85.7768C175.213 85.7751 177.006 85.7151 178.216 85.8033C177.452 84.4195 174.816 81.1756 173.755 79.9436C165.536 70.3566 154.718 63.3536 142.608 59.7799C142.534 59.7603 142.461 59.7407 142.387 59.7209C142.693 60.108 143.025 60.4561 143.348 60.8243C149.14 67.4364 152.821 75.6597 155.569 83.9302C155.775 84.5488 155.948 85.1345 156.079 85.7791ZM72.6488 163.489C78.093 169.883 84.7102 176.193 92.2635 180.051C95.4811 181.907 99.2296 183.457 102.725 184.705C104.185 185.226 106.102 185.688 107.461 186.235C102.315 180.918 98.6998 174.513 95.9257 167.679C95.4597 166.532 94.7839 164.652 94.2956 163.454C94.2326 163.434 94.1696 163.414 94.1066 163.394C89.3779 163.427 84.6492 163.434 79.9205 163.416C77.6575 163.416 74.8705 163.344 72.6488 163.489ZM58.441 122.048C60.5512 121.883 64.6865 122.018 66.9261 122.019L83.4256 122.016C84.8995 122.011 86.4875 122.035 87.9518 121.991C87.8154 112.508 89.122 100.679 91.4492 91.5158C89.5775 91.6188 87.1719 91.5556 85.2639 91.5437L76.6224 91.533L70.2264 91.5385C69.0782 91.5396 67.4005 91.5983 66.3303 91.456C61.0817 101.117 58.8117 111.144 58.441 122.048ZM100.559 163.467C101.009 164.549 101.459 165.649 101.925 166.725C105.791 175.646 113.406 188.248 124.415 188.296C118.463 179.945 116.086 173.707 115.241 163.454C111.156 163.337 107.028 163.458 102.94 163.419C102.165 163.412 101.333 163.426 100.559 163.467Z" fill="#5EC3E6"/>
<path d="M155.243 116.927C157.002 116.731 159.326 116.755 161.13 116.743C166.76 117.132 171.228 117.883 176.518 120.086C178.113 120.75 179.595 121.583 181.096 122.221C182.433 123.09 183.817 123.876 185.123 124.788C188.863 127.4 191.721 130.303 194.608 133.796C195.115 134.587 195.794 135.439 196.343 136.226C197.154 137.391 197.896 138.602 198.567 139.853C203.717 149.289 205.273 160.271 202.946 170.767C200.365 182.325 193.285 192.38 183.271 198.703C173.309 205.027 161.231 207.097 149.733 204.453C144.984 203.377 140.447 201.522 136.305 198.963C134.322 197.737 132.513 196.459 130.784 194.903C130.509 194.654 129.794 194.012 129.482 193.935L129.498 193.772C127.435 191.855 126.219 190.424 124.415 188.296C118.463 179.945 116.086 173.707 115.241 163.454C115.168 161.46 115.237 159.468 115.315 157.476C115.811 154.506 115.82 153.03 116.616 149.934C118.351 143.271 121.614 137.102 126.147 131.917C127.319 130.558 128.75 129.019 130.163 127.907C125.889 128.043 120.888 127.906 116.53 127.906L94.2648 127.907C95.3342 127.828 96.8708 127.865 97.9728 127.865L120.988 127.867C123.983 127.869 127.162 127.928 130.144 127.857C133.46 125.164 134.693 124.406 138.208 122.157C139.456 121.581 140.642 120.942 141.921 120.382C144.807 119.148 147.811 118.208 150.887 117.576C152.345 117.274 153.783 117.215 155.155 116.945L155.243 116.927Z" fill="black"/>
<path d="M161.054 151.17C163.529 150.839 166.202 151.532 167.982 153.337C169.003 154.384 169.724 155.686 170.07 157.106C170.59 159.192 170.428 162.991 170.426 165.266L170.429 175.146L163.841 175.152C163.804 171.93 163.875 168.679 163.845 165.453C163.782 163.462 164.015 161.582 163.622 159.612C163.06 156.794 159.999 155.981 157.606 156.974C156.686 157.355 156.168 157.979 155.684 158.818C154.852 160.686 155.09 163.897 155.093 165.982L155.095 175.144L148.532 175.151C148.408 167.385 148.5 159.204 148.533 151.414C150.613 151.399 152.694 151.399 154.774 151.414L154.781 155.979C156.473 152.997 157.491 151.747 161.054 151.17Z" fill="#FEFEFE"/>
<path d="M175.151 143.537C177.35 143.518 179.549 143.518 181.748 143.535L181.744 175.146L175.158 175.151L175.151 143.537Z" fill="#FEFEFE"/>
<path d="M137.141 151.416C139.238 151.358 141.553 151.406 143.661 151.42C143.783 159.196 143.672 167.354 143.665 175.143L137.141 175.153C137.003 167.464 137.082 159.13 137.141 151.416Z" fill="#FEFEFE"/>
<path d="M139.604 141.681C141.446 141.237 143.301 142.366 143.752 144.207C144.204 146.047 143.083 147.906 141.246 148.366C139.397 148.829 137.523 147.7 137.068 145.848C136.613 143.996 137.75 142.128 139.604 141.681Z" fill="#FEFEFE"/>
</g>
<defs>
<clipPath id="clip0_796_107">
<rect width="256" height="256" fill="white"/>
</clipPath>
</defs>
</svg>
