<svg width="256" height="256" viewBox="0 0 256 256" fill="none" xmlns="http://www.w3.org/2000/svg">
<g clip-path="url(#clip0_796_101)">
<path d="M0 25C0 11.1929 11.1929 0 25 0H231C244.807 0 256 11.1929 256 25V231C256 244.807 244.807 256 231 256H25C11.1929 256 0 244.807 0 231V25Z" fill="#1F222C"/>
<path d="M122.997 51H131.904C131.934 51.0084 131.964 51.0169 131.994 51.0253C136.942 51.4683 141.55 52.1048 146.378 53.3605C165.764 58.3331 182.443 70.6783 192.862 87.7667C197.92 96.0718 201.344 105.267 202.947 114.858C203.247 116.707 203.489 118.565 203.672 120.429C203.759 121.257 203.741 122.964 204 123.624V131.454C203.691 132.256 203.824 133.416 203.709 134.29C203.528 135.659 203.387 137.037 203.207 138.407C202.766 141.585 202.111 144.73 201.248 147.82C196.34 165.502 185.264 180.845 170.026 191.069C159.055 198.432 146.025 203.041 132.799 203.863C132.386 203.888 131.996 203.887 131.594 204H123.437C122.858 203.842 121.325 203.788 120.603 203.704C118.442 203.457 116.303 203.256 114.155 202.878C103.92 201.04 94.1646 197.146 85.478 191.431C69.4338 180.873 57.9399 164.674 53.2725 146.043C52.5565 143.175 52.0081 140.268 51.6299 137.336C51.4434 135.821 51.3215 133.199 51 131.812V123.065C51.1402 122.644 51.2843 120.799 51.3374 120.229C52.7141 105.428 58.522 91.2912 67.7925 79.6697C78.1607 66.6905 92.4824 57.4509 108.581 53.3545C113.345 52.1091 118.027 51.504 122.905 51.0288C122.935 51.0192 122.966 51.0096 122.997 51Z" fill="black"/>
<path d="M94.861 134.458C95.3804 134.368 96.1929 134.375 96.7339 134.357C101.663 134.196 106.048 136.454 108.332 140.947C108.286 138.969 108.353 137.169 108.449 135.2L118.879 135.203C118.962 140.675 118.888 146.343 118.888 151.828L118.884 183.916L107.961 183.92C107.941 182.772 107.953 181.593 107.95 180.442C107.947 176.396 107.88 172.128 107.98 168.1C105.904 171.452 103.173 173.346 99.2858 173.866C88.1683 175.353 81.6087 167.476 80.843 157.063C80.4085 151.153 81.1216 144.685 84.9727 139.894C87.4176 136.842 90.9745 134.887 94.861 134.458Z" fill="#FEFEFE"/>
<path d="M98.8281 142.687C100.87 142.579 102.044 142.463 103.849 143.52C106.134 144.818 107.381 146.956 108.077 149.44C109.651 155.051 108.695 163.869 102.045 165.586C100.465 166.005 97.8827 165.719 96.475 164.855C91.0188 161.504 90.8118 151.612 93.6783 146.483C94.8748 144.342 96.5685 143.279 98.8281 142.687Z" fill="black"/>
<path d="M102.77 80.6993C109.948 79.8474 116.041 83.0033 117.652 90.3501C118.483 94.1382 118.132 98.7234 118.13 102.633L118.131 119.466L107.434 119.462C107.381 114.304 107.52 109.174 107.433 103.945C107.371 100.216 108.356 91.7006 104.173 89.7555C101.583 88.5511 98.1205 89.3152 96.2847 91.6511C94.1522 94.9039 94.687 100.251 94.6879 104.093L94.6875 119.467L83.7842 119.461L83.783 81.4516L93.4606 81.4621C93.5106 83.3453 93.6812 85.4796 93.7912 87.3753C95.4008 83.4067 98.6544 81.3169 102.77 80.6993Z" fill="#FEFEFE"/>
<path d="M138.211 81.4545L149.033 81.4597L149.026 96.3124C149.026 99.9405 148.896 103.358 149.454 106.982C149.959 110.962 153.157 112.369 156.849 111.357C162.634 109.771 161.629 100.452 161.629 95.8048L161.62 81.4578L172.452 81.466L172.46 95.8852L172.444 119.464L162.527 119.458C162.525 117.428 162.406 115.415 162.417 113.406C161.832 114.69 161.118 115.958 160.108 116.93C154.058 122.704 142.445 121 139.418 112.724C137.719 108.078 138.206 103.206 138.206 98.3165L138.211 81.4545Z" fill="#FEFEFE"/>
<path d="M154.222 134.349C158.262 133.841 163.599 134.716 167.055 136.898C171.336 139.6 172.819 142.418 173.998 147.107C170.199 147.111 166.797 147.512 163.107 147.587C162.689 146.14 162.258 145.009 161.144 143.927C159.746 142.581 157.873 141.841 155.932 141.866C153.487 141.92 150.419 143.372 150.563 146.248C150.738 149.118 153.837 150.116 156.182 150.647C163.322 152.265 173.811 152.927 174.242 162.474C174.362 165.016 173.464 167.501 171.746 169.378C168.368 173.043 163.267 173.765 158.574 173.989C152.58 174.062 146.83 173.596 142.16 169.225C140.029 167.23 138.663 164.139 138.623 161.197C139.16 161.172 139.73 161.127 140.266 161.08C143.269 160.822 146.303 160.824 149.303 160.603C150.095 163.158 151.109 165.023 153.819 166.001C156.636 167.017 163.214 166.7 163.041 162.487C162.907 159.235 158.85 158.693 156.356 158.158C148.942 156.568 138.178 155.094 139.523 144.834C140.447 137.38 147.799 134.853 154.222 134.349Z" fill="#FEFEFE"/>
</g>
<defs>
<clipPath id="clip0_796_101">
<rect width="256" height="256" fill="white"/>
</clipPath>
</defs>
</svg>
