<svg width="256" height="256" viewBox="0 0 256 256" fill="none" xmlns="http://www.w3.org/2000/svg">
<g clip-path="url(#clip0_796_32)">
<path d="M0 25C0 11.1929 11.1929 0 25 0H231C244.807 0 256 11.1929 256 25V231C256 244.807 244.807 256 231 256H25C11.1929 256 0 244.807 0 231V25Z" fill="#1F222C"/>
<path d="M109.361 59.4741C110.62 57.9821 111.273 54.1846 113.839 54.0108C117.326 53.7745 120.516 57.4855 122.971 59.5838C132.246 67.5125 142.919 73.6101 154.265 78.0443C156.465 78.9043 158.867 79.6358 161.108 80.4057C162.836 80.988 164.872 81.3709 166.577 82.0363C178.263 85.0562 189.435 86.3411 201.509 85.8777C204.37 85.7678 207.276 85.5323 210.114 85.1453C213.38 84.6998 222.422 82.3444 225.124 83.4772C225.381 83.5849 225.618 83.7268 225.823 83.9163C226.048 84.1235 226.23 84.3709 226.378 84.6372C229.146 89.6235 221.893 118.328 219.961 124.486C213.373 145.48 203.378 166.345 187.293 181.739C185.914 183.059 184.601 184.644 183.12 185.829C176.296 193.117 164.54 200.092 154.823 201.958C136.471 205.482 115.188 198.811 103.42 183.947C102.184 182.387 100.655 180.539 99.8566 178.737C98.2348 179.32 96.2037 179.804 94.5012 180.116C56.2714 187.105 35.4399 140.354 29.8486 110.177C29.2747 107.013 28.788 103.834 28.3892 100.643C28.0646 97.956 27.0227 93.7547 30.6579 93.1359C30.6789 93.0278 30.7015 92.9199 30.7253 92.8125C31.5514 89.144 35.6874 90.3975 38.5573 90.9023C55.2949 93.973 72.5631 92.1548 88.2942 85.6653C91.0335 84.5527 95.2959 82.7358 97.7883 81.1692L98.0495 80.823C99.0736 76.8631 104.069 63.3044 106.533 60.6091C107.385 59.6761 108.169 59.5381 109.361 59.4741ZM144.939 165.695C146.176 165.939 147.459 166.361 148.726 166.553C156.109 167.674 163.853 167.078 170.661 163.848C171.377 163.508 172.611 162.914 173.226 162.482C172.103 161.461 126.358 149.94 119.827 147.365C123.328 154.78 132.969 161.578 140.537 164.251C141.671 164.652 143.978 165.273 144.939 165.695ZM72.1721 158.843C76.9535 157.275 82.0759 156.122 86.8795 154.6C88.102 154.213 89.2247 154.205 90.3682 153.586L90.5814 153.495C89.6843 149.401 89.4472 145.44 89.1621 141.267C85.4511 142.762 84.3965 143.194 81.0132 145.323C76.3915 148.502 73.7064 153.553 72.1721 158.843ZM111.818 109.247C111.432 109.599 111.135 109.805 110.714 110.106C113.609 110.449 117.797 111.973 120.699 112.761C124.838 113.884 129.005 115.091 133.135 116.245C134.382 116.594 138.155 117.827 139.325 117.913C135.753 111.913 132.942 108.527 125.752 106.669C120.661 105.354 116.22 106.612 111.818 109.247ZM167.544 125.509C167.059 125.774 166.825 125.893 166.392 126.227L166.327 126.469C166.708 126.765 193.511 134.439 194.493 134.484C193.878 133.497 193.349 132.426 192.719 131.444C189.237 126.005 183.414 122.893 176.958 122.852C173.257 122.829 170.828 123.908 167.544 125.509ZM51.7033 120.69C53.4085 122.741 56.6972 124.475 59.2251 125.18C62.7863 126.174 68.5966 125.186 71.4018 122.759C71.8265 122.395 72.208 121.983 72.5384 121.532C73.2716 120.194 73.7918 119.27 74.3302 117.839C74.5916 116.708 74.8392 115.574 75.073 114.436C69.9065 115.777 64.7476 117.147 59.5966 118.547C58.2427 118.901 52.5312 120.214 51.7033 120.69Z" fill="#1C8E21"/>
<path d="M94.7967 137.922C94.8248 141.357 95.6908 148.407 96.6384 151.65C95.1724 152.344 92.2059 153.066 90.5814 153.495C89.6843 149.401 89.4472 145.44 89.1621 141.267C85.4511 142.762 84.3965 143.194 81.0132 145.323C81.2367 143.812 87.6468 140.568 89.1117 139.834C91.0624 139.075 92.7535 138.402 94.7967 137.922Z" fill="#2E4553"/>
<path d="M166.577 82.0363C178.263 85.0562 189.435 86.3411 201.509 85.8777C204.37 85.7678 207.276 85.5323 210.114 85.1453C213.38 84.6998 222.422 82.3444 225.124 83.4772C225.381 83.5849 225.618 83.7268 225.823 83.9163C226.048 84.1235 226.23 84.3709 226.378 84.6372C229.146 89.6235 221.893 118.328 219.961 124.486C213.373 145.48 203.378 166.345 187.293 181.739C185.914 183.059 184.601 184.644 183.12 185.829C182.296 185.988 177.317 189.677 175.856 190.516C164.081 197.406 150.049 199.338 136.85 195.887C138.99 188.79 140.637 181.213 142.63 174.058C143.16 172.154 144.176 167.27 144.939 165.695C146.176 165.939 147.459 166.361 148.726 166.553C156.109 167.674 163.853 167.078 170.661 163.848C171.377 163.508 172.611 162.914 173.226 162.482C173.28 162.342 175.699 160.736 176.06 160.485C177.502 159.487 178.655 158.517 179.872 157.253C177.768 156.8 174.376 155.795 172.269 155.194C168.949 154.281 165.637 153.342 162.331 152.378C158.153 151.176 153.388 150.078 149.283 148.758C149.644 147.793 149.978 145.786 150.282 144.712C151.134 141.685 151.787 138.56 152.621 135.538C154.543 128.425 156.402 121.296 158.195 114.15L162.634 97.3275C163.891 92.485 165.168 86.7429 166.577 82.0363ZM194.493 134.484C193.878 133.497 193.349 132.426 192.719 131.444C189.237 126.005 183.414 122.893 176.958 122.852C173.257 122.829 170.828 123.908 167.544 125.509C167.059 125.774 166.825 125.893 166.392 126.227L166.327 126.469C166.708 126.765 193.511 134.439 194.493 134.484Z" fill="#2DAE32"/>
<path d="M167.544 125.509C167.649 124.544 169.052 123.388 169.749 122.72C173.696 118.937 179.191 116.907 184.632 117.54C189.55 118.127 194.038 120.636 197.111 124.519C200.246 128.481 200.988 131.99 202.04 136.691C200.852 136.376 195.209 134.511 194.493 134.484C193.878 133.497 193.349 132.426 192.719 131.444C189.237 126.005 183.414 122.893 176.958 122.852C173.257 122.829 170.828 123.908 167.544 125.509Z" fill="#2E4553"/>
<path d="M30.6579 93.1359C30.6789 93.0278 30.7015 92.9199 30.7253 92.8125C31.5514 89.144 35.6874 90.3975 38.5573 90.9023C55.2949 93.973 72.5631 92.1548 88.2942 85.6653C91.0335 84.5527 95.2959 82.7358 97.7883 81.1692C97.7499 82.0418 96.6421 85.0928 96.3526 86.1423C95.5844 88.9272 94.7305 91.7175 94.0187 94.5248C90.6232 107.572 88.9453 121.007 89.0273 134.488C89.0306 135.192 88.9952 139.445 89.1117 139.834C87.6468 140.568 81.2367 143.812 81.0132 145.323C76.3915 148.502 73.7064 153.553 72.1721 158.843C76.9535 157.275 82.0759 156.122 86.8795 154.6C88.102 154.213 89.2247 154.205 90.3682 153.586L90.5814 153.495C92.2059 153.066 95.1724 152.344 96.6384 151.65C97.2902 153.246 97.7809 155.586 98.2472 157.298C100.009 163.759 102.865 169.139 106.231 174.882C107.623 177.298 109.396 179.349 111.303 181.362C118.511 188.972 126.65 193.149 136.653 195.835L136.85 195.887C150.049 199.338 164.081 197.406 175.856 190.516C177.317 189.677 182.296 185.988 183.12 185.829C176.296 193.117 164.54 200.092 154.823 201.958C136.471 205.482 115.188 198.811 103.42 183.947C102.184 182.387 100.655 180.539 99.8566 178.737C98.2348 179.32 96.2037 179.804 94.5012 180.116C56.2714 187.105 35.4399 140.354 29.8486 110.177C29.2747 107.013 28.788 103.834 28.3892 100.643C28.0646 97.956 27.0227 93.7547 30.6579 93.1359ZM72.5384 121.532C73.2716 120.194 73.7918 119.27 74.3302 117.839C74.5916 116.708 74.8392 115.574 75.073 114.436C69.9065 115.777 64.7476 117.147 59.5966 118.547C58.2427 118.901 52.5312 120.214 51.7033 120.69C53.4085 122.741 56.6972 124.475 59.2251 125.18C62.7863 126.174 68.5966 125.186 71.4018 122.759C71.8265 122.395 72.208 121.983 72.5384 121.532Z" fill="#D8534A"/>
<path d="M30.6579 93.1359C30.8437 98.4136 31.6046 102.927 32.6523 108.095C36.8777 128.941 45.3702 150.655 60.7882 165.795C71.4705 176.284 84.2127 180.102 98.8751 177.322C101.41 176.623 103.764 175.789 106.231 174.882C107.623 177.298 109.396 179.349 111.303 181.362C118.511 188.972 126.65 193.149 136.653 195.835L136.85 195.887C150.049 199.338 164.081 197.406 175.856 190.516C177.317 189.677 182.296 185.988 183.12 185.829C176.296 193.117 164.54 200.092 154.823 201.958C136.471 205.482 115.188 198.811 103.42 183.947C102.184 182.387 100.655 180.539 99.8566 178.737C98.2348 179.32 96.2037 179.804 94.5012 180.116C56.2714 187.105 35.4399 140.354 29.8486 110.177C29.2747 107.013 28.788 103.834 28.3892 100.643C28.0646 97.956 27.0227 93.7547 30.6579 93.1359Z" fill="#2E4553"/>
<path d="M96.6384 151.65C97.2902 153.246 97.7809 155.586 98.2472 157.298C100.009 163.759 102.865 169.139 106.231 174.882C103.764 175.789 101.41 176.623 98.8751 177.322C95.5446 171.66 93.8311 166.821 92.0505 160.458C91.6326 158.965 90.8416 154.689 90.3682 153.586L90.5814 153.495C92.2059 153.066 95.1724 152.344 96.6384 151.65Z" fill="#C14B43"/>
<path d="M50.2407 119.191C51.0982 119.034 51.8744 118.736 52.707 118.53C61.0145 116.472 69.3245 113.895 77.6559 111.989C77.2504 114.504 76.088 117.391 74.6083 119.463C73.9452 118.162 74.7266 118.68 74.3302 117.839C74.5916 116.708 74.8392 115.574 75.073 114.436C69.9065 115.777 64.7476 117.147 59.5966 118.547C58.2427 118.901 52.5312 120.214 51.7033 120.69C51.3143 120.229 50.6811 119.63 50.2407 119.191Z" fill="#2E4553"/>
<path d="M74.3302 117.839C74.7266 118.68 73.9452 118.162 74.6083 119.463C74.0096 120.216 73.3947 121.081 72.5384 121.532C73.2716 120.194 73.7918 119.27 74.3302 117.839Z" fill="#133245"/>
<path d="M116.543 139.693C127.441 142.7 138.364 145.858 149.283 148.758C153.388 150.078 158.153 151.176 162.331 152.378C165.637 153.342 168.949 154.281 172.269 155.194C174.376 155.795 177.768 156.8 179.872 157.253C178.655 158.517 177.502 159.487 176.06 160.485C175.699 160.736 173.28 162.342 173.226 162.482C172.103 161.461 126.358 149.94 119.827 147.365C118.086 144.158 117.744 143.014 116.543 139.693Z" fill="#2E4553"/>
<path d="M98.0495 80.823C99.1038 80.4759 101.352 79.0591 102.403 78.4279C102.292 79.8721 101.391 82.3023 100.974 83.7504C95.8746 101.483 93.5779 119.445 94.7967 137.922C92.7535 138.402 91.0624 139.075 89.1117 139.834C88.9952 139.445 89.0306 135.192 89.0273 134.488C88.9453 121.007 90.6232 107.572 94.0187 94.5248C94.7305 91.7175 95.5844 88.9272 96.3526 86.1423C96.6421 85.0928 97.7499 82.0418 97.7883 81.1692L98.0495 80.823Z" fill="#C14B43"/>
<path d="M98.0495 80.823C99.0736 76.8631 104.069 63.3044 106.533 60.6091C107.385 59.6761 108.169 59.5381 109.361 59.4741C107.06 64.4599 105.139 69.9008 103.383 75.1002C103.196 75.6515 102.426 77.9349 102.403 78.4279C101.352 79.0591 99.1038 80.4759 98.0495 80.823Z" fill="#2E4553"/>
<path d="M111.818 109.247C114.799 104.999 119.328 102.09 124.431 101.146C129.01 100.341 134.366 101.645 138.104 104.363C143.64 108.389 145.398 113.768 146.769 120.042C146.062 119.786 140.011 118.009 139.325 117.913C135.753 111.913 132.942 108.527 125.752 106.669C120.661 105.354 116.22 106.612 111.818 109.247Z" fill="#2E4553"/>
</g>
<defs>
<clipPath id="clip0_796_32">
<rect width="256" height="256" fill="white"/>
</clipPath>
</defs>
</svg>
