<svg width="256" height="256" viewBox="0 0 256 256" fill="none" xmlns="http://www.w3.org/2000/svg">
<g clip-path="url(#clip0_810_17)">
<path d="M0 25C0 11.1929 11.1929 0 25 0H231C244.807 0 256 11.1929 256 25V231C256 244.807 244.807 256 231 256H25C11.1929 256 0 244.807 0 231V25Z" fill="#1F222C"/>
<path d="M163.865 54.9049C174.808 54.4053 182.835 57.3303 190.913 64.5665C198.114 70.9027 202.416 79.9038 202.825 89.4869C203.202 96.7117 201.278 104.704 197.409 110.878C196.289 112.665 195.128 113.788 193.869 115.255C180.19 131.204 165.549 127.66 147.152 128.207C142.252 128.269 137.58 130.692 134.295 134.337C129.619 139.525 130.051 146.22 130.064 152.6L130.077 166.136L130.068 188.719C130.067 192.512 129.931 197.364 130.133 201.094C125.635 201.234 120.708 201.139 116.184 201.14L90.8447 201.142C87.3502 201.143 57.8261 201.357 57.1685 200.827C57.1048 200.572 57.2298 198.388 57.227 197.91L57.1995 183.305C57.207 164.194 57.1835 145.068 57.2156 125.956C57.2174 124.936 57.2495 123.363 57.5876 122.416C58.5345 121.68 61.2574 123.144 62.4156 123.67C70.3854 127.292 78.5821 128.509 87.291 127.707C99.6928 126.621 108.993 121.245 117.576 112.605C125.598 104.529 129.077 95.5069 130.739 84.3133C131.63 78.3092 134.92 72.2737 138.859 67.6599C145.51 59.8679 153.706 55.8224 163.865 54.9049Z" fill="white"/>
</g>
<defs>
<clipPath id="clip0_810_17">
<rect width="256" height="256" fill="white"/>
</clipPath>
</defs>
</svg>
