<svg width="256" height="256" viewBox="0 0 256 256" fill="none" xmlns="http://www.w3.org/2000/svg">
<g clip-path="url(#clip0_759_310)">
<path d="M0 25C0 11.1929 11.1929 0 25 0H231C244.807 0 256 11.1929 256 25V231C256 244.807 244.807 256 231 256H25C11.1929 256 0 244.807 0 231V25Z" fill="#1F222C"/>
<g clip-path="url(#clip1_759_310)">
<path d="M113.738 54H141.082C142.091 54.7905 142.878 55.346 142.955 56.7211C143.113 59.5488 143.049 62.5896 143.047 65.425L143.038 80.8947C143.036 83.7061 142.944 87.2523 143.113 89.994C147.95 84.9102 153.062 80.0268 157.956 74.9838C160.798 72.1706 163.385 69.1291 166.425 66.5208C168.774 64.4397 170.751 66.7382 172.4 68.4194C177.519 73.64 182.753 78.7642 187.901 83.9574C190.682 86.7625 188.61 88.6377 186.356 90.86C182.18 94.8977 178.035 98.9674 173.921 103.069C171.008 105.959 167.961 109.107 165.019 111.929C168.018 112.059 171.46 111.979 174.494 111.973L189.189 111.971C192.302 111.97 195.601 111.795 198.693 112.131C199.738 112.245 200.437 113.017 201 113.851V141.135C200.362 142.026 199.699 142.859 198.535 142.944C195.283 143.182 191.624 143.047 188.35 143.048L165.013 143.071L180.788 158.748C183.31 161.252 185.923 163.606 188.298 166.247C190.952 169.199 187.468 171.545 185.397 173.608C183.652 175.354 181.897 177.09 180.132 178.815C177.288 181.59 174.564 184.539 171.704 187.304C170.646 188.326 169.832 189.05 168.394 189.468C165.425 188.285 159.073 181.11 156.516 178.534L147.901 169.835C146.326 168.25 144.617 166.641 143.111 165.009C142.957 167.955 143.037 171.337 143.036 174.323L143.033 189.796C143.034 190.957 143.121 192.282 143.043 193.425C142.838 196.438 143.98 199 141.221 201H113.787C111.034 198.933 111.998 193.291 111.985 189.943C111.962 184.493 111.401 177.481 113.61 172.51C116.179 166.728 122.283 161.536 126.811 157.015L143.809 140.017C145.668 138.168 147.553 136.326 149.396 134.469C151.319 132.532 152.433 130.96 152.645 128.17C152.885 125.023 151.632 122.705 149.472 120.535C147.325 118.38 145.175 116.286 143.043 114.153L126.21 97.3189C123.125 94.2395 119.729 91.0192 116.864 87.7952C111.09 81.2982 111.978 73.9719 111.987 65.9812C111.99 63.1746 111.872 60.092 111.97 57.2774C112.023 55.7444 112.624 54.9232 113.738 54Z" fill="white"/>
<path d="M65.6311 86.6061C65.8992 85.8327 66.1447 85.1233 66.6706 84.4789C68.0067 82.8415 84.1551 66.6452 85.2018 66.129C85.7438 65.8617 86.4276 65.8601 86.9917 66.0579C87.9013 66.3768 88.7069 67.0903 89.4027 67.7413C92.8244 70.9434 96.0677 74.3841 99.3811 77.7012L118.098 96.4172L134.586 112.901C137.352 115.669 140.143 118.399 142.856 121.223C145.136 123.595 145.755 126.475 145.127 129.647C144.712 131.737 143.708 132.994 142.244 134.482C138.159 138.631 134.027 142.737 129.912 146.857L105.913 170.908L94.3577 182.54C92.4049 184.512 89.6626 187.446 87.4029 189.24C87.2675 189.347 86.6789 189.375 86.4821 189.36C84.8753 189.233 83.4823 187.734 82.4043 186.655C77.3542 181.603 72.1612 176.656 67.1593 171.561C65.1042 169.468 65.2985 167.91 67.3479 165.919C75.0082 158.476 82.3476 150.559 89.9821 143.109C78.881 142.807 67.6308 143.31 56.5327 142.953C55.3744 142.915 54.5991 141.994 54 141.114V113.87C54.6812 112.944 55.2646 112.171 56.4843 112.079C59.9187 111.82 63.6996 111.972 67.1536 111.974L90.0558 111.966L74.7603 96.7973C72.9548 95.0076 71.1136 93.2551 69.3072 91.4674C67.8213 89.9968 66.2389 88.6612 65.6311 86.6061Z" fill="white"/>
</g>
</g>
<defs>
<clipPath id="clip0_759_310">
<rect width="256" height="256" fill="white"/>
</clipPath>
<clipPath id="clip1_759_310">
<rect width="147" height="147" fill="white" transform="translate(54 54)"/>
</clipPath>
</defs>
</svg>
